%TF.GenerationSoftware,KiCad,Pcbnew,(5.1.10)-1*%
%TF.CreationDate,2021-12-26T22:15:38+01:00*%
%TF.ProjectId,LORA_ATTINY_v3,4c4f5241-5f41-4545-9449-4e595f76332e,rev?*%
%TF.SameCoordinates,Original*%
%TF.FileFunction,Legend,Bot*%
%TF.FilePolarity,Positive*%
%FSLAX46Y46*%
G04 Gerber Fmt 4.6, Leading zero omitted, Abs format (unit mm)*
G04 Created by KiCad (PCBNEW (5.1.10)-1) date 2021-12-26 22:15:38*
%MOMM*%
%LPD*%
G01*
G04 APERTURE LIST*
%ADD10C,0.150000*%
%ADD11C,0.010000*%
%ADD12C,0.120000*%
%ADD13C,0.100000*%
G04 APERTURE END LIST*
D10*
X67198666Y-42616380D02*
X67770095Y-42616380D01*
X67484380Y-42616380D02*
X67484380Y-41616380D01*
X67579619Y-41759238D01*
X67674857Y-41854476D01*
X67770095Y-41902095D01*
X66817714Y-41711619D02*
X66770095Y-41664000D01*
X66674857Y-41616380D01*
X66436761Y-41616380D01*
X66341523Y-41664000D01*
X66293904Y-41711619D01*
X66246285Y-41806857D01*
X66246285Y-41902095D01*
X66293904Y-42044952D01*
X66865333Y-42616380D01*
X66246285Y-42616380D01*
X65103428Y-41568761D02*
X65960571Y-42854476D01*
X64817714Y-41711619D02*
X64770095Y-41664000D01*
X64674857Y-41616380D01*
X64436761Y-41616380D01*
X64341523Y-41664000D01*
X64293904Y-41711619D01*
X64246285Y-41806857D01*
X64246285Y-41902095D01*
X64293904Y-42044952D01*
X64865333Y-42616380D01*
X64246285Y-42616380D01*
X63293904Y-42616380D02*
X63865333Y-42616380D01*
X63579619Y-42616380D02*
X63579619Y-41616380D01*
X63674857Y-41759238D01*
X63770095Y-41854476D01*
X63865333Y-41902095D01*
X76414380Y-57102952D02*
X77128666Y-57102952D01*
X77271523Y-57055333D01*
X77366761Y-56960095D01*
X77414380Y-56817238D01*
X77414380Y-56722000D01*
X77414380Y-58055333D02*
X77414380Y-57579142D01*
X76414380Y-57579142D01*
X77319142Y-58960095D02*
X77366761Y-58912476D01*
X77414380Y-58769619D01*
X77414380Y-58674380D01*
X77366761Y-58531523D01*
X77271523Y-58436285D01*
X77176285Y-58388666D01*
X76985809Y-58341047D01*
X76842952Y-58341047D01*
X76652476Y-58388666D01*
X76557238Y-58436285D01*
X76462000Y-58531523D01*
X76414380Y-58674380D01*
X76414380Y-58769619D01*
X76462000Y-58912476D01*
X76509619Y-58960095D01*
X76414380Y-59674380D02*
X77128666Y-59674380D01*
X77271523Y-59626761D01*
X77366761Y-59531523D01*
X77414380Y-59388666D01*
X77414380Y-59293428D01*
X77414380Y-60626761D02*
X77414380Y-60150571D01*
X76414380Y-60150571D01*
X77319142Y-61531523D02*
X77366761Y-61483904D01*
X77414380Y-61341047D01*
X77414380Y-61245809D01*
X77366761Y-61102952D01*
X77271523Y-61007714D01*
X77176285Y-60960095D01*
X76985809Y-60912476D01*
X76842952Y-60912476D01*
X76652476Y-60960095D01*
X76557238Y-61007714D01*
X76462000Y-61102952D01*
X76414380Y-61245809D01*
X76414380Y-61341047D01*
X76462000Y-61483904D01*
X76509619Y-61531523D01*
X76414380Y-62245809D02*
X77128666Y-62245809D01*
X77271523Y-62198190D01*
X77366761Y-62102952D01*
X77414380Y-61960095D01*
X77414380Y-61864857D01*
X77414380Y-63198190D02*
X77414380Y-62722000D01*
X76414380Y-62722000D01*
X77319142Y-64102952D02*
X77366761Y-64055333D01*
X77414380Y-63912476D01*
X77414380Y-63817238D01*
X77366761Y-63674380D01*
X77271523Y-63579142D01*
X77176285Y-63531523D01*
X76985809Y-63483904D01*
X76842952Y-63483904D01*
X76652476Y-63531523D01*
X76557238Y-63579142D01*
X76462000Y-63674380D01*
X76414380Y-63817238D01*
X76414380Y-63912476D01*
X76462000Y-64055333D01*
X76509619Y-64102952D01*
X76414380Y-64817238D02*
X77128666Y-64817238D01*
X77271523Y-64769619D01*
X77366761Y-64674380D01*
X77414380Y-64531523D01*
X77414380Y-64436285D01*
X77414380Y-65769619D02*
X77414380Y-65293428D01*
X76414380Y-65293428D01*
X77319142Y-66674380D02*
X77366761Y-66626761D01*
X77414380Y-66483904D01*
X77414380Y-66388666D01*
X77366761Y-66245809D01*
X77271523Y-66150571D01*
X77176285Y-66102952D01*
X76985809Y-66055333D01*
X76842952Y-66055333D01*
X76652476Y-66102952D01*
X76557238Y-66150571D01*
X76462000Y-66245809D01*
X76414380Y-66388666D01*
X76414380Y-66483904D01*
X76462000Y-66626761D01*
X76509619Y-66674380D01*
X67579571Y-43664190D02*
X67627190Y-43616571D01*
X67722428Y-43568952D01*
X67817666Y-43568952D01*
X67912904Y-43616571D01*
X67960523Y-43664190D01*
X68008142Y-43759428D01*
X68008142Y-43854666D01*
X67960523Y-43949904D01*
X67912904Y-43997523D01*
X67817666Y-44045142D01*
X67722428Y-44045142D01*
X67627190Y-43997523D01*
X67579571Y-43949904D01*
X67579571Y-43568952D02*
X67579571Y-43949904D01*
X67531952Y-43997523D01*
X67484333Y-43997523D01*
X67389095Y-43949904D01*
X67341476Y-43854666D01*
X67341476Y-43616571D01*
X67436714Y-43473714D01*
X67579571Y-43378476D01*
X67770047Y-43330857D01*
X67960523Y-43378476D01*
X68103380Y-43473714D01*
X68198619Y-43616571D01*
X68246238Y-43807047D01*
X68198619Y-43997523D01*
X68103380Y-44140380D01*
X67960523Y-44235619D01*
X67770047Y-44283238D01*
X67579571Y-44235619D01*
X67436714Y-44140380D01*
X66484333Y-43473714D02*
X66484333Y-44140380D01*
X66912904Y-43473714D02*
X66912904Y-43997523D01*
X66865285Y-44092761D01*
X66770047Y-44140380D01*
X66627190Y-44140380D01*
X66531952Y-44092761D01*
X66484333Y-44045142D01*
X66055761Y-44092761D02*
X65960523Y-44140380D01*
X65770047Y-44140380D01*
X65674809Y-44092761D01*
X65627190Y-43997523D01*
X65627190Y-43949904D01*
X65674809Y-43854666D01*
X65770047Y-43807047D01*
X65912904Y-43807047D01*
X66008142Y-43759428D01*
X66055761Y-43664190D01*
X66055761Y-43616571D01*
X66008142Y-43521333D01*
X65912904Y-43473714D01*
X65770047Y-43473714D01*
X65674809Y-43521333D01*
X65198619Y-43473714D02*
X65198619Y-44473714D01*
X65198619Y-43521333D02*
X65103380Y-43473714D01*
X64912904Y-43473714D01*
X64817666Y-43521333D01*
X64770047Y-43568952D01*
X64722428Y-43664190D01*
X64722428Y-43949904D01*
X64770047Y-44045142D01*
X64817666Y-44092761D01*
X64912904Y-44140380D01*
X65103380Y-44140380D01*
X65198619Y-44092761D01*
X64293857Y-44140380D02*
X64293857Y-43473714D01*
X64293857Y-43140380D02*
X64341476Y-43188000D01*
X64293857Y-43235619D01*
X64246238Y-43188000D01*
X64293857Y-43140380D01*
X64293857Y-43235619D01*
X63912904Y-43473714D02*
X63389095Y-43473714D01*
X63912904Y-44140380D01*
X63389095Y-44140380D01*
X63008142Y-44140380D02*
X63008142Y-43473714D01*
X63008142Y-43140380D02*
X63055761Y-43188000D01*
X63008142Y-43235619D01*
X62960523Y-43188000D01*
X63008142Y-43140380D01*
X63008142Y-43235619D01*
X62103380Y-43473714D02*
X62103380Y-44283238D01*
X62151000Y-44378476D01*
X62198619Y-44426095D01*
X62293857Y-44473714D01*
X62436714Y-44473714D01*
X62531952Y-44426095D01*
X62103380Y-44092761D02*
X62198619Y-44140380D01*
X62389095Y-44140380D01*
X62484333Y-44092761D01*
X62531952Y-44045142D01*
X62579571Y-43949904D01*
X62579571Y-43664190D01*
X62531952Y-43568952D01*
X62484333Y-43521333D01*
X62389095Y-43473714D01*
X62198619Y-43473714D01*
X62103380Y-43521333D01*
D11*
%TO.C,OSHW*%
G36*
X62979256Y-75833918D02*
G01*
X62923799Y-75861568D01*
X62874852Y-75912480D01*
X62861371Y-75931338D01*
X62846686Y-75956015D01*
X62837158Y-75982816D01*
X62831707Y-76018587D01*
X62829253Y-76070169D01*
X62828714Y-76138267D01*
X62831148Y-76231588D01*
X62839606Y-76301657D01*
X62855826Y-76353931D01*
X62881546Y-76393869D01*
X62918503Y-76426929D01*
X62921218Y-76428886D01*
X62957640Y-76448908D01*
X63001498Y-76458815D01*
X63057276Y-76461257D01*
X63147952Y-76461257D01*
X63147990Y-76549283D01*
X63148834Y-76598308D01*
X63153976Y-76627065D01*
X63167413Y-76644311D01*
X63193142Y-76658808D01*
X63199321Y-76661769D01*
X63228236Y-76675648D01*
X63250624Y-76684414D01*
X63267271Y-76685171D01*
X63278964Y-76675023D01*
X63286490Y-76651073D01*
X63290634Y-76610426D01*
X63292185Y-76550186D01*
X63291929Y-76467455D01*
X63290651Y-76359339D01*
X63290252Y-76327000D01*
X63288815Y-76215524D01*
X63287528Y-76142603D01*
X63148029Y-76142603D01*
X63147245Y-76204499D01*
X63143760Y-76244997D01*
X63135876Y-76271708D01*
X63121895Y-76292244D01*
X63112403Y-76302260D01*
X63073596Y-76331567D01*
X63039237Y-76333952D01*
X63003784Y-76309750D01*
X63002886Y-76308857D01*
X62988461Y-76290153D01*
X62979687Y-76264732D01*
X62975261Y-76225584D01*
X62973882Y-76165697D01*
X62973857Y-76152430D01*
X62977188Y-76069901D01*
X62988031Y-76012691D01*
X63007660Y-75977766D01*
X63037350Y-75962094D01*
X63054509Y-75960514D01*
X63095234Y-75967926D01*
X63123168Y-75992330D01*
X63139983Y-76036980D01*
X63147350Y-76105130D01*
X63148029Y-76142603D01*
X63287528Y-76142603D01*
X63287292Y-76129245D01*
X63285323Y-76064333D01*
X63282550Y-76016958D01*
X63278612Y-75983290D01*
X63273151Y-75959498D01*
X63265808Y-75941753D01*
X63256223Y-75926224D01*
X63252113Y-75920381D01*
X63197595Y-75865185D01*
X63128664Y-75833890D01*
X63048928Y-75825165D01*
X62979256Y-75833918D01*
G37*
X62979256Y-75833918D02*
X62923799Y-75861568D01*
X62874852Y-75912480D01*
X62861371Y-75931338D01*
X62846686Y-75956015D01*
X62837158Y-75982816D01*
X62831707Y-76018587D01*
X62829253Y-76070169D01*
X62828714Y-76138267D01*
X62831148Y-76231588D01*
X62839606Y-76301657D01*
X62855826Y-76353931D01*
X62881546Y-76393869D01*
X62918503Y-76426929D01*
X62921218Y-76428886D01*
X62957640Y-76448908D01*
X63001498Y-76458815D01*
X63057276Y-76461257D01*
X63147952Y-76461257D01*
X63147990Y-76549283D01*
X63148834Y-76598308D01*
X63153976Y-76627065D01*
X63167413Y-76644311D01*
X63193142Y-76658808D01*
X63199321Y-76661769D01*
X63228236Y-76675648D01*
X63250624Y-76684414D01*
X63267271Y-76685171D01*
X63278964Y-76675023D01*
X63286490Y-76651073D01*
X63290634Y-76610426D01*
X63292185Y-76550186D01*
X63291929Y-76467455D01*
X63290651Y-76359339D01*
X63290252Y-76327000D01*
X63288815Y-76215524D01*
X63287528Y-76142603D01*
X63148029Y-76142603D01*
X63147245Y-76204499D01*
X63143760Y-76244997D01*
X63135876Y-76271708D01*
X63121895Y-76292244D01*
X63112403Y-76302260D01*
X63073596Y-76331567D01*
X63039237Y-76333952D01*
X63003784Y-76309750D01*
X63002886Y-76308857D01*
X62988461Y-76290153D01*
X62979687Y-76264732D01*
X62975261Y-76225584D01*
X62973882Y-76165697D01*
X62973857Y-76152430D01*
X62977188Y-76069901D01*
X62988031Y-76012691D01*
X63007660Y-75977766D01*
X63037350Y-75962094D01*
X63054509Y-75960514D01*
X63095234Y-75967926D01*
X63123168Y-75992330D01*
X63139983Y-76036980D01*
X63147350Y-76105130D01*
X63148029Y-76142603D01*
X63287528Y-76142603D01*
X63287292Y-76129245D01*
X63285323Y-76064333D01*
X63282550Y-76016958D01*
X63278612Y-75983290D01*
X63273151Y-75959498D01*
X63265808Y-75941753D01*
X63256223Y-75926224D01*
X63252113Y-75920381D01*
X63197595Y-75865185D01*
X63128664Y-75833890D01*
X63048928Y-75825165D01*
X62979256Y-75833918D01*
G36*
X61862907Y-75841780D02*
G01*
X61816328Y-75868723D01*
X61783943Y-75895466D01*
X61760258Y-75923484D01*
X61743941Y-75957748D01*
X61733661Y-76003227D01*
X61728086Y-76064892D01*
X61725884Y-76147711D01*
X61725629Y-76207246D01*
X61725629Y-76426391D01*
X61787314Y-76454044D01*
X61849000Y-76481697D01*
X61856257Y-76241670D01*
X61859256Y-76152028D01*
X61862402Y-76086962D01*
X61866299Y-76042026D01*
X61871553Y-76012770D01*
X61878769Y-75994748D01*
X61888550Y-75983511D01*
X61891688Y-75981079D01*
X61939239Y-75962083D01*
X61987303Y-75969600D01*
X62015914Y-75989543D01*
X62027553Y-76003675D01*
X62035609Y-76022220D01*
X62040729Y-76050334D01*
X62043559Y-76093173D01*
X62044744Y-76155895D01*
X62044943Y-76221261D01*
X62044982Y-76303268D01*
X62046386Y-76361316D01*
X62051086Y-76400465D01*
X62061013Y-76425780D01*
X62078097Y-76442323D01*
X62104268Y-76455156D01*
X62139225Y-76468491D01*
X62177404Y-76483007D01*
X62172859Y-76225389D01*
X62171029Y-76132519D01*
X62168888Y-76063889D01*
X62165819Y-76014711D01*
X62161206Y-75980198D01*
X62154432Y-75955562D01*
X62144881Y-75936016D01*
X62133366Y-75918770D01*
X62077810Y-75863680D01*
X62010020Y-75831822D01*
X61936287Y-75824191D01*
X61862907Y-75841780D01*
G37*
X61862907Y-75841780D02*
X61816328Y-75868723D01*
X61783943Y-75895466D01*
X61760258Y-75923484D01*
X61743941Y-75957748D01*
X61733661Y-76003227D01*
X61728086Y-76064892D01*
X61725884Y-76147711D01*
X61725629Y-76207246D01*
X61725629Y-76426391D01*
X61787314Y-76454044D01*
X61849000Y-76481697D01*
X61856257Y-76241670D01*
X61859256Y-76152028D01*
X61862402Y-76086962D01*
X61866299Y-76042026D01*
X61871553Y-76012770D01*
X61878769Y-75994748D01*
X61888550Y-75983511D01*
X61891688Y-75981079D01*
X61939239Y-75962083D01*
X61987303Y-75969600D01*
X62015914Y-75989543D01*
X62027553Y-76003675D01*
X62035609Y-76022220D01*
X62040729Y-76050334D01*
X62043559Y-76093173D01*
X62044744Y-76155895D01*
X62044943Y-76221261D01*
X62044982Y-76303268D01*
X62046386Y-76361316D01*
X62051086Y-76400465D01*
X62061013Y-76425780D01*
X62078097Y-76442323D01*
X62104268Y-76455156D01*
X62139225Y-76468491D01*
X62177404Y-76483007D01*
X62172859Y-76225389D01*
X62171029Y-76132519D01*
X62168888Y-76063889D01*
X62165819Y-76014711D01*
X62161206Y-75980198D01*
X62154432Y-75955562D01*
X62144881Y-75936016D01*
X62133366Y-75918770D01*
X62077810Y-75863680D01*
X62010020Y-75831822D01*
X61936287Y-75824191D01*
X61862907Y-75841780D01*
G36*
X63537885Y-75835962D02*
G01*
X63469855Y-75871733D01*
X63419649Y-75929301D01*
X63401815Y-75966312D01*
X63387937Y-76021882D01*
X63380833Y-76092096D01*
X63380160Y-76168727D01*
X63385573Y-76243552D01*
X63396730Y-76308342D01*
X63413286Y-76354873D01*
X63418374Y-76362887D01*
X63478645Y-76422707D01*
X63550231Y-76458535D01*
X63627908Y-76469020D01*
X63706452Y-76452810D01*
X63728311Y-76443092D01*
X63770878Y-76413143D01*
X63808237Y-76373433D01*
X63811768Y-76368397D01*
X63826119Y-76344124D01*
X63835606Y-76318178D01*
X63841210Y-76284022D01*
X63843914Y-76235119D01*
X63844701Y-76164935D01*
X63844714Y-76149200D01*
X63844678Y-76144192D01*
X63699571Y-76144192D01*
X63698727Y-76210430D01*
X63695404Y-76254386D01*
X63688417Y-76282779D01*
X63676584Y-76302325D01*
X63670543Y-76308857D01*
X63635814Y-76333680D01*
X63602097Y-76332548D01*
X63568005Y-76311016D01*
X63547671Y-76288029D01*
X63535629Y-76254478D01*
X63528866Y-76201569D01*
X63528402Y-76195399D01*
X63527248Y-76099513D01*
X63539312Y-76028299D01*
X63564430Y-75982194D01*
X63602440Y-75961635D01*
X63616008Y-75960514D01*
X63651636Y-75966152D01*
X63676006Y-75985686D01*
X63690907Y-76023042D01*
X63698125Y-76082150D01*
X63699571Y-76144192D01*
X63844678Y-76144192D01*
X63844174Y-76074413D01*
X63841904Y-76022159D01*
X63836932Y-75985949D01*
X63828287Y-75959299D01*
X63814995Y-75935722D01*
X63812057Y-75931338D01*
X63762687Y-75872249D01*
X63708891Y-75837947D01*
X63643398Y-75824331D01*
X63621158Y-75823665D01*
X63537885Y-75835962D01*
G37*
X63537885Y-75835962D02*
X63469855Y-75871733D01*
X63419649Y-75929301D01*
X63401815Y-75966312D01*
X63387937Y-76021882D01*
X63380833Y-76092096D01*
X63380160Y-76168727D01*
X63385573Y-76243552D01*
X63396730Y-76308342D01*
X63413286Y-76354873D01*
X63418374Y-76362887D01*
X63478645Y-76422707D01*
X63550231Y-76458535D01*
X63627908Y-76469020D01*
X63706452Y-76452810D01*
X63728311Y-76443092D01*
X63770878Y-76413143D01*
X63808237Y-76373433D01*
X63811768Y-76368397D01*
X63826119Y-76344124D01*
X63835606Y-76318178D01*
X63841210Y-76284022D01*
X63843914Y-76235119D01*
X63844701Y-76164935D01*
X63844714Y-76149200D01*
X63844678Y-76144192D01*
X63699571Y-76144192D01*
X63698727Y-76210430D01*
X63695404Y-76254386D01*
X63688417Y-76282779D01*
X63676584Y-76302325D01*
X63670543Y-76308857D01*
X63635814Y-76333680D01*
X63602097Y-76332548D01*
X63568005Y-76311016D01*
X63547671Y-76288029D01*
X63535629Y-76254478D01*
X63528866Y-76201569D01*
X63528402Y-76195399D01*
X63527248Y-76099513D01*
X63539312Y-76028299D01*
X63564430Y-75982194D01*
X63602440Y-75961635D01*
X63616008Y-75960514D01*
X63651636Y-75966152D01*
X63676006Y-75985686D01*
X63690907Y-76023042D01*
X63698125Y-76082150D01*
X63699571Y-76144192D01*
X63844678Y-76144192D01*
X63844174Y-76074413D01*
X63841904Y-76022159D01*
X63836932Y-75985949D01*
X63828287Y-75959299D01*
X63814995Y-75935722D01*
X63812057Y-75931338D01*
X63762687Y-75872249D01*
X63708891Y-75837947D01*
X63643398Y-75824331D01*
X63621158Y-75823665D01*
X63537885Y-75835962D01*
G36*
X62410697Y-75845239D02*
G01*
X62353473Y-75883735D01*
X62309251Y-75939335D01*
X62282833Y-76010086D01*
X62277490Y-76062162D01*
X62278097Y-76083893D01*
X62283178Y-76100531D01*
X62297145Y-76115437D01*
X62324411Y-76131973D01*
X62369388Y-76153498D01*
X62436489Y-76183374D01*
X62436829Y-76183524D01*
X62498593Y-76211813D01*
X62549241Y-76236933D01*
X62583596Y-76256179D01*
X62596482Y-76266848D01*
X62596486Y-76266934D01*
X62585128Y-76290166D01*
X62558569Y-76315774D01*
X62528077Y-76334221D01*
X62512630Y-76337886D01*
X62470485Y-76325212D01*
X62434192Y-76293471D01*
X62416483Y-76258572D01*
X62399448Y-76232845D01*
X62366078Y-76203546D01*
X62326851Y-76178235D01*
X62292244Y-76164471D01*
X62285007Y-76163714D01*
X62276861Y-76176160D01*
X62276370Y-76207972D01*
X62282357Y-76250866D01*
X62293643Y-76296558D01*
X62309050Y-76336761D01*
X62309829Y-76338322D01*
X62356196Y-76403062D01*
X62416289Y-76447097D01*
X62484535Y-76468711D01*
X62555362Y-76466185D01*
X62623196Y-76437804D01*
X62626212Y-76435808D01*
X62679573Y-76387448D01*
X62714660Y-76324352D01*
X62734078Y-76241387D01*
X62736684Y-76218078D01*
X62741299Y-76108055D01*
X62735767Y-76056748D01*
X62596486Y-76056748D01*
X62594676Y-76088753D01*
X62584778Y-76098093D01*
X62560102Y-76091105D01*
X62521205Y-76074587D01*
X62477725Y-76053881D01*
X62476644Y-76053333D01*
X62439791Y-76033949D01*
X62425000Y-76021013D01*
X62428647Y-76007451D01*
X62444005Y-75989632D01*
X62483077Y-75963845D01*
X62525154Y-75961950D01*
X62562897Y-75980717D01*
X62588966Y-76016915D01*
X62596486Y-76056748D01*
X62735767Y-76056748D01*
X62731806Y-76020027D01*
X62707450Y-75950212D01*
X62673544Y-75901302D01*
X62612347Y-75851878D01*
X62544937Y-75827359D01*
X62476120Y-75825797D01*
X62410697Y-75845239D01*
G37*
X62410697Y-75845239D02*
X62353473Y-75883735D01*
X62309251Y-75939335D01*
X62282833Y-76010086D01*
X62277490Y-76062162D01*
X62278097Y-76083893D01*
X62283178Y-76100531D01*
X62297145Y-76115437D01*
X62324411Y-76131973D01*
X62369388Y-76153498D01*
X62436489Y-76183374D01*
X62436829Y-76183524D01*
X62498593Y-76211813D01*
X62549241Y-76236933D01*
X62583596Y-76256179D01*
X62596482Y-76266848D01*
X62596486Y-76266934D01*
X62585128Y-76290166D01*
X62558569Y-76315774D01*
X62528077Y-76334221D01*
X62512630Y-76337886D01*
X62470485Y-76325212D01*
X62434192Y-76293471D01*
X62416483Y-76258572D01*
X62399448Y-76232845D01*
X62366078Y-76203546D01*
X62326851Y-76178235D01*
X62292244Y-76164471D01*
X62285007Y-76163714D01*
X62276861Y-76176160D01*
X62276370Y-76207972D01*
X62282357Y-76250866D01*
X62293643Y-76296558D01*
X62309050Y-76336761D01*
X62309829Y-76338322D01*
X62356196Y-76403062D01*
X62416289Y-76447097D01*
X62484535Y-76468711D01*
X62555362Y-76466185D01*
X62623196Y-76437804D01*
X62626212Y-76435808D01*
X62679573Y-76387448D01*
X62714660Y-76324352D01*
X62734078Y-76241387D01*
X62736684Y-76218078D01*
X62741299Y-76108055D01*
X62735767Y-76056748D01*
X62596486Y-76056748D01*
X62594676Y-76088753D01*
X62584778Y-76098093D01*
X62560102Y-76091105D01*
X62521205Y-76074587D01*
X62477725Y-76053881D01*
X62476644Y-76053333D01*
X62439791Y-76033949D01*
X62425000Y-76021013D01*
X62428647Y-76007451D01*
X62444005Y-75989632D01*
X62483077Y-75963845D01*
X62525154Y-75961950D01*
X62562897Y-75980717D01*
X62588966Y-76016915D01*
X62596486Y-76056748D01*
X62735767Y-76056748D01*
X62731806Y-76020027D01*
X62707450Y-75950212D01*
X62673544Y-75901302D01*
X62612347Y-75851878D01*
X62544937Y-75827359D01*
X62476120Y-75825797D01*
X62410697Y-75845239D01*
G36*
X61203114Y-75765289D02*
G01*
X61198861Y-75824613D01*
X61193975Y-75859572D01*
X61187205Y-75874820D01*
X61177298Y-75875015D01*
X61174086Y-75873195D01*
X61131356Y-75860015D01*
X61075773Y-75860785D01*
X61019263Y-75874333D01*
X60983918Y-75891861D01*
X60947679Y-75919861D01*
X60921187Y-75951549D01*
X60903001Y-75991813D01*
X60891678Y-76045543D01*
X60885778Y-76117626D01*
X60883857Y-76212951D01*
X60883823Y-76231237D01*
X60883800Y-76436646D01*
X60929509Y-76452580D01*
X60961973Y-76463420D01*
X60979785Y-76468468D01*
X60980309Y-76468514D01*
X60982063Y-76454828D01*
X60983556Y-76417076D01*
X60984674Y-76360224D01*
X60985303Y-76289234D01*
X60985400Y-76246073D01*
X60985602Y-76160973D01*
X60986642Y-76099981D01*
X60989169Y-76058177D01*
X60993836Y-76030642D01*
X61001293Y-76012456D01*
X61012189Y-75998698D01*
X61018993Y-75992073D01*
X61065728Y-75965375D01*
X61116728Y-75963375D01*
X61162999Y-75985955D01*
X61171556Y-75994107D01*
X61184107Y-76009436D01*
X61192812Y-76027618D01*
X61198369Y-76053909D01*
X61201474Y-76093562D01*
X61202824Y-76151832D01*
X61203114Y-76232173D01*
X61203114Y-76436646D01*
X61248823Y-76452580D01*
X61281287Y-76463420D01*
X61299099Y-76468468D01*
X61299623Y-76468514D01*
X61300963Y-76454623D01*
X61302172Y-76415439D01*
X61303199Y-76354700D01*
X61303998Y-76276141D01*
X61304519Y-76183498D01*
X61304714Y-76080509D01*
X61304714Y-75683342D01*
X61257543Y-75663444D01*
X61210371Y-75643547D01*
X61203114Y-75765289D01*
G37*
X61203114Y-75765289D02*
X61198861Y-75824613D01*
X61193975Y-75859572D01*
X61187205Y-75874820D01*
X61177298Y-75875015D01*
X61174086Y-75873195D01*
X61131356Y-75860015D01*
X61075773Y-75860785D01*
X61019263Y-75874333D01*
X60983918Y-75891861D01*
X60947679Y-75919861D01*
X60921187Y-75951549D01*
X60903001Y-75991813D01*
X60891678Y-76045543D01*
X60885778Y-76117626D01*
X60883857Y-76212951D01*
X60883823Y-76231237D01*
X60883800Y-76436646D01*
X60929509Y-76452580D01*
X60961973Y-76463420D01*
X60979785Y-76468468D01*
X60980309Y-76468514D01*
X60982063Y-76454828D01*
X60983556Y-76417076D01*
X60984674Y-76360224D01*
X60985303Y-76289234D01*
X60985400Y-76246073D01*
X60985602Y-76160973D01*
X60986642Y-76099981D01*
X60989169Y-76058177D01*
X60993836Y-76030642D01*
X61001293Y-76012456D01*
X61012189Y-75998698D01*
X61018993Y-75992073D01*
X61065728Y-75965375D01*
X61116728Y-75963375D01*
X61162999Y-75985955D01*
X61171556Y-75994107D01*
X61184107Y-76009436D01*
X61192812Y-76027618D01*
X61198369Y-76053909D01*
X61201474Y-76093562D01*
X61202824Y-76151832D01*
X61203114Y-76232173D01*
X61203114Y-76436646D01*
X61248823Y-76452580D01*
X61281287Y-76463420D01*
X61299099Y-76468468D01*
X61299623Y-76468514D01*
X61300963Y-76454623D01*
X61302172Y-76415439D01*
X61303199Y-76354700D01*
X61303998Y-76276141D01*
X61304519Y-76183498D01*
X61304714Y-76080509D01*
X61304714Y-75683342D01*
X61257543Y-75663444D01*
X61210371Y-75643547D01*
X61203114Y-75765289D01*
G36*
X60539256Y-75864968D02*
G01*
X60482384Y-75886087D01*
X60481733Y-75886493D01*
X60446560Y-75912380D01*
X60420593Y-75942633D01*
X60402330Y-75982058D01*
X60390268Y-76035462D01*
X60382904Y-76107651D01*
X60378736Y-76203432D01*
X60378371Y-76217078D01*
X60373124Y-76422842D01*
X60417284Y-76445678D01*
X60449237Y-76461110D01*
X60468530Y-76468423D01*
X60469422Y-76468514D01*
X60472761Y-76455022D01*
X60475413Y-76418626D01*
X60477044Y-76365452D01*
X60477400Y-76322393D01*
X60477408Y-76252641D01*
X60480597Y-76208837D01*
X60491712Y-76187944D01*
X60515499Y-76186925D01*
X60556704Y-76202741D01*
X60618914Y-76231815D01*
X60664659Y-76255963D01*
X60688187Y-76276913D01*
X60695104Y-76299747D01*
X60695114Y-76300877D01*
X60683701Y-76340212D01*
X60649908Y-76361462D01*
X60598191Y-76364539D01*
X60560939Y-76364006D01*
X60541297Y-76374735D01*
X60529048Y-76400505D01*
X60521998Y-76433337D01*
X60532158Y-76451966D01*
X60535983Y-76454632D01*
X60571999Y-76465340D01*
X60622434Y-76466856D01*
X60674374Y-76459759D01*
X60711178Y-76446788D01*
X60762062Y-76403585D01*
X60790986Y-76343446D01*
X60796714Y-76296462D01*
X60792343Y-76254082D01*
X60776525Y-76219488D01*
X60745203Y-76188763D01*
X60694322Y-76157990D01*
X60619824Y-76123252D01*
X60615286Y-76121288D01*
X60548179Y-76090287D01*
X60506768Y-76064862D01*
X60489019Y-76042014D01*
X60492893Y-76018745D01*
X60516357Y-75992056D01*
X60523373Y-75985914D01*
X60570370Y-75962100D01*
X60619067Y-75963103D01*
X60661478Y-75986451D01*
X60689616Y-76029675D01*
X60692231Y-76038160D01*
X60717692Y-76079308D01*
X60749999Y-76099128D01*
X60796714Y-76118770D01*
X60796714Y-76067950D01*
X60782504Y-75994082D01*
X60740325Y-75926327D01*
X60718376Y-75903661D01*
X60668483Y-75874569D01*
X60605033Y-75861400D01*
X60539256Y-75864968D01*
G37*
X60539256Y-75864968D02*
X60482384Y-75886087D01*
X60481733Y-75886493D01*
X60446560Y-75912380D01*
X60420593Y-75942633D01*
X60402330Y-75982058D01*
X60390268Y-76035462D01*
X60382904Y-76107651D01*
X60378736Y-76203432D01*
X60378371Y-76217078D01*
X60373124Y-76422842D01*
X60417284Y-76445678D01*
X60449237Y-76461110D01*
X60468530Y-76468423D01*
X60469422Y-76468514D01*
X60472761Y-76455022D01*
X60475413Y-76418626D01*
X60477044Y-76365452D01*
X60477400Y-76322393D01*
X60477408Y-76252641D01*
X60480597Y-76208837D01*
X60491712Y-76187944D01*
X60515499Y-76186925D01*
X60556704Y-76202741D01*
X60618914Y-76231815D01*
X60664659Y-76255963D01*
X60688187Y-76276913D01*
X60695104Y-76299747D01*
X60695114Y-76300877D01*
X60683701Y-76340212D01*
X60649908Y-76361462D01*
X60598191Y-76364539D01*
X60560939Y-76364006D01*
X60541297Y-76374735D01*
X60529048Y-76400505D01*
X60521998Y-76433337D01*
X60532158Y-76451966D01*
X60535983Y-76454632D01*
X60571999Y-76465340D01*
X60622434Y-76466856D01*
X60674374Y-76459759D01*
X60711178Y-76446788D01*
X60762062Y-76403585D01*
X60790986Y-76343446D01*
X60796714Y-76296462D01*
X60792343Y-76254082D01*
X60776525Y-76219488D01*
X60745203Y-76188763D01*
X60694322Y-76157990D01*
X60619824Y-76123252D01*
X60615286Y-76121288D01*
X60548179Y-76090287D01*
X60506768Y-76064862D01*
X60489019Y-76042014D01*
X60492893Y-76018745D01*
X60516357Y-75992056D01*
X60523373Y-75985914D01*
X60570370Y-75962100D01*
X60619067Y-75963103D01*
X60661478Y-75986451D01*
X60689616Y-76029675D01*
X60692231Y-76038160D01*
X60717692Y-76079308D01*
X60749999Y-76099128D01*
X60796714Y-76118770D01*
X60796714Y-76067950D01*
X60782504Y-75994082D01*
X60740325Y-75926327D01*
X60718376Y-75903661D01*
X60668483Y-75874569D01*
X60605033Y-75861400D01*
X60539256Y-75864968D01*
G36*
X60049074Y-75863755D02*
G01*
X59983142Y-75888084D01*
X59929727Y-75931117D01*
X59908836Y-75961409D01*
X59886061Y-76016994D01*
X59886534Y-76057186D01*
X59910438Y-76084217D01*
X59919283Y-76088813D01*
X59957470Y-76103144D01*
X59976972Y-76099472D01*
X59983578Y-76075407D01*
X59983914Y-76062114D01*
X59996008Y-76013210D01*
X60027529Y-75978999D01*
X60071341Y-75962476D01*
X60120305Y-75966634D01*
X60160106Y-75988227D01*
X60173550Y-76000544D01*
X60183079Y-76015487D01*
X60189515Y-76038075D01*
X60193683Y-76073328D01*
X60196403Y-76126266D01*
X60198498Y-76201907D01*
X60199040Y-76225857D01*
X60201019Y-76307790D01*
X60203269Y-76365455D01*
X60206643Y-76403608D01*
X60211994Y-76427004D01*
X60220176Y-76440398D01*
X60232041Y-76448545D01*
X60239638Y-76452144D01*
X60271898Y-76464452D01*
X60290889Y-76468514D01*
X60297164Y-76454948D01*
X60300994Y-76413934D01*
X60302400Y-76344999D01*
X60301402Y-76247669D01*
X60301092Y-76232657D01*
X60298899Y-76143859D01*
X60296307Y-76079019D01*
X60292618Y-76033067D01*
X60287136Y-76000935D01*
X60279165Y-75977553D01*
X60268007Y-75957852D01*
X60262170Y-75949410D01*
X60228704Y-75912057D01*
X60191273Y-75883003D01*
X60186691Y-75880467D01*
X60119574Y-75860443D01*
X60049074Y-75863755D01*
G37*
X60049074Y-75863755D02*
X59983142Y-75888084D01*
X59929727Y-75931117D01*
X59908836Y-75961409D01*
X59886061Y-76016994D01*
X59886534Y-76057186D01*
X59910438Y-76084217D01*
X59919283Y-76088813D01*
X59957470Y-76103144D01*
X59976972Y-76099472D01*
X59983578Y-76075407D01*
X59983914Y-76062114D01*
X59996008Y-76013210D01*
X60027529Y-75978999D01*
X60071341Y-75962476D01*
X60120305Y-75966634D01*
X60160106Y-75988227D01*
X60173550Y-76000544D01*
X60183079Y-76015487D01*
X60189515Y-76038075D01*
X60193683Y-76073328D01*
X60196403Y-76126266D01*
X60198498Y-76201907D01*
X60199040Y-76225857D01*
X60201019Y-76307790D01*
X60203269Y-76365455D01*
X60206643Y-76403608D01*
X60211994Y-76427004D01*
X60220176Y-76440398D01*
X60232041Y-76448545D01*
X60239638Y-76452144D01*
X60271898Y-76464452D01*
X60290889Y-76468514D01*
X60297164Y-76454948D01*
X60300994Y-76413934D01*
X60302400Y-76344999D01*
X60301402Y-76247669D01*
X60301092Y-76232657D01*
X60298899Y-76143859D01*
X60296307Y-76079019D01*
X60292618Y-76033067D01*
X60287136Y-76000935D01*
X60279165Y-75977553D01*
X60268007Y-75957852D01*
X60262170Y-75949410D01*
X60228704Y-75912057D01*
X60191273Y-75883003D01*
X60186691Y-75880467D01*
X60119574Y-75860443D01*
X60049074Y-75863755D01*
G36*
X59388883Y-75979358D02*
G01*
X59389067Y-76087837D01*
X59389781Y-76171287D01*
X59391325Y-76233704D01*
X59393999Y-76279085D01*
X59398106Y-76311429D01*
X59403945Y-76334733D01*
X59411818Y-76352995D01*
X59417779Y-76363418D01*
X59467145Y-76419945D01*
X59529736Y-76455377D01*
X59598987Y-76468090D01*
X59668332Y-76456463D01*
X59709625Y-76435568D01*
X59752975Y-76399422D01*
X59782519Y-76355276D01*
X59800345Y-76297462D01*
X59808537Y-76220313D01*
X59809698Y-76163714D01*
X59809542Y-76159647D01*
X59708143Y-76159647D01*
X59707524Y-76224550D01*
X59704686Y-76267514D01*
X59698160Y-76295622D01*
X59686477Y-76315953D01*
X59672517Y-76331288D01*
X59625635Y-76360890D01*
X59575299Y-76363419D01*
X59527724Y-76338705D01*
X59524021Y-76335356D01*
X59508217Y-76317935D01*
X59498307Y-76297209D01*
X59492942Y-76266362D01*
X59490772Y-76218577D01*
X59490429Y-76165748D01*
X59491173Y-76099381D01*
X59494252Y-76055106D01*
X59500939Y-76026009D01*
X59512504Y-76005173D01*
X59521987Y-75994107D01*
X59566040Y-75966198D01*
X59616776Y-75962843D01*
X59665204Y-75984159D01*
X59674550Y-75992073D01*
X59690460Y-76009647D01*
X59700390Y-76030587D01*
X59705722Y-76061782D01*
X59707837Y-76110122D01*
X59708143Y-76159647D01*
X59809542Y-76159647D01*
X59806190Y-76072568D01*
X59794274Y-76004086D01*
X59771865Y-75952600D01*
X59736876Y-75912443D01*
X59709625Y-75891861D01*
X59660093Y-75869625D01*
X59602684Y-75859304D01*
X59549318Y-75862067D01*
X59519457Y-75873212D01*
X59507739Y-75876383D01*
X59499963Y-75864557D01*
X59494535Y-75832866D01*
X59490429Y-75784593D01*
X59485933Y-75730829D01*
X59479687Y-75698482D01*
X59468324Y-75679985D01*
X59448472Y-75667770D01*
X59436000Y-75662362D01*
X59388829Y-75642601D01*
X59388883Y-75979358D01*
G37*
X59388883Y-75979358D02*
X59389067Y-76087837D01*
X59389781Y-76171287D01*
X59391325Y-76233704D01*
X59393999Y-76279085D01*
X59398106Y-76311429D01*
X59403945Y-76334733D01*
X59411818Y-76352995D01*
X59417779Y-76363418D01*
X59467145Y-76419945D01*
X59529736Y-76455377D01*
X59598987Y-76468090D01*
X59668332Y-76456463D01*
X59709625Y-76435568D01*
X59752975Y-76399422D01*
X59782519Y-76355276D01*
X59800345Y-76297462D01*
X59808537Y-76220313D01*
X59809698Y-76163714D01*
X59809542Y-76159647D01*
X59708143Y-76159647D01*
X59707524Y-76224550D01*
X59704686Y-76267514D01*
X59698160Y-76295622D01*
X59686477Y-76315953D01*
X59672517Y-76331288D01*
X59625635Y-76360890D01*
X59575299Y-76363419D01*
X59527724Y-76338705D01*
X59524021Y-76335356D01*
X59508217Y-76317935D01*
X59498307Y-76297209D01*
X59492942Y-76266362D01*
X59490772Y-76218577D01*
X59490429Y-76165748D01*
X59491173Y-76099381D01*
X59494252Y-76055106D01*
X59500939Y-76026009D01*
X59512504Y-76005173D01*
X59521987Y-75994107D01*
X59566040Y-75966198D01*
X59616776Y-75962843D01*
X59665204Y-75984159D01*
X59674550Y-75992073D01*
X59690460Y-76009647D01*
X59700390Y-76030587D01*
X59705722Y-76061782D01*
X59707837Y-76110122D01*
X59708143Y-76159647D01*
X59809542Y-76159647D01*
X59806190Y-76072568D01*
X59794274Y-76004086D01*
X59771865Y-75952600D01*
X59736876Y-75912443D01*
X59709625Y-75891861D01*
X59660093Y-75869625D01*
X59602684Y-75859304D01*
X59549318Y-75862067D01*
X59519457Y-75873212D01*
X59507739Y-75876383D01*
X59499963Y-75864557D01*
X59494535Y-75832866D01*
X59490429Y-75784593D01*
X59485933Y-75730829D01*
X59479687Y-75698482D01*
X59468324Y-75679985D01*
X59448472Y-75667770D01*
X59436000Y-75662362D01*
X59388829Y-75642601D01*
X59388883Y-75979358D01*
G36*
X58799167Y-75872663D02*
G01*
X58796952Y-75910850D01*
X58795216Y-75968886D01*
X58794101Y-76042180D01*
X58793743Y-76119055D01*
X58793743Y-76379196D01*
X58839674Y-76425127D01*
X58871325Y-76453429D01*
X58899110Y-76464893D01*
X58937085Y-76464168D01*
X58952160Y-76462321D01*
X58999274Y-76456948D01*
X59038244Y-76453869D01*
X59047743Y-76453585D01*
X59079767Y-76455445D01*
X59125568Y-76460114D01*
X59143326Y-76462321D01*
X59186943Y-76465735D01*
X59216255Y-76458320D01*
X59245320Y-76435427D01*
X59255812Y-76425127D01*
X59301743Y-76379196D01*
X59301743Y-75892602D01*
X59264774Y-75875758D01*
X59232941Y-75863282D01*
X59214317Y-75858914D01*
X59209542Y-75872718D01*
X59205079Y-75911286D01*
X59201225Y-75970356D01*
X59198278Y-76045663D01*
X59196857Y-76109286D01*
X59192886Y-76359657D01*
X59158241Y-76364556D01*
X59126732Y-76361131D01*
X59111292Y-76350041D01*
X59106977Y-76329308D01*
X59103292Y-76285145D01*
X59100531Y-76223146D01*
X59098988Y-76148909D01*
X59098765Y-76110706D01*
X59098543Y-75890783D01*
X59052834Y-75874849D01*
X59020482Y-75864015D01*
X59002885Y-75858962D01*
X59002377Y-75858914D01*
X59000612Y-75872648D01*
X58998671Y-75910730D01*
X58996718Y-75968482D01*
X58994916Y-76041227D01*
X58993657Y-76109286D01*
X58989686Y-76359657D01*
X58902600Y-76359657D01*
X58898604Y-76131240D01*
X58894608Y-75902822D01*
X58852153Y-75880868D01*
X58820808Y-75865793D01*
X58802256Y-75858951D01*
X58801721Y-75858914D01*
X58799167Y-75872663D01*
G37*
X58799167Y-75872663D02*
X58796952Y-75910850D01*
X58795216Y-75968886D01*
X58794101Y-76042180D01*
X58793743Y-76119055D01*
X58793743Y-76379196D01*
X58839674Y-76425127D01*
X58871325Y-76453429D01*
X58899110Y-76464893D01*
X58937085Y-76464168D01*
X58952160Y-76462321D01*
X58999274Y-76456948D01*
X59038244Y-76453869D01*
X59047743Y-76453585D01*
X59079767Y-76455445D01*
X59125568Y-76460114D01*
X59143326Y-76462321D01*
X59186943Y-76465735D01*
X59216255Y-76458320D01*
X59245320Y-76435427D01*
X59255812Y-76425127D01*
X59301743Y-76379196D01*
X59301743Y-75892602D01*
X59264774Y-75875758D01*
X59232941Y-75863282D01*
X59214317Y-75858914D01*
X59209542Y-75872718D01*
X59205079Y-75911286D01*
X59201225Y-75970356D01*
X59198278Y-76045663D01*
X59196857Y-76109286D01*
X59192886Y-76359657D01*
X59158241Y-76364556D01*
X59126732Y-76361131D01*
X59111292Y-76350041D01*
X59106977Y-76329308D01*
X59103292Y-76285145D01*
X59100531Y-76223146D01*
X59098988Y-76148909D01*
X59098765Y-76110706D01*
X59098543Y-75890783D01*
X59052834Y-75874849D01*
X59020482Y-75864015D01*
X59002885Y-75858962D01*
X59002377Y-75858914D01*
X59000612Y-75872648D01*
X58998671Y-75910730D01*
X58996718Y-75968482D01*
X58994916Y-76041227D01*
X58993657Y-76109286D01*
X58989686Y-76359657D01*
X58902600Y-76359657D01*
X58898604Y-76131240D01*
X58894608Y-75902822D01*
X58852153Y-75880868D01*
X58820808Y-75865793D01*
X58802256Y-75858951D01*
X58801721Y-75858914D01*
X58799167Y-75872663D01*
G36*
X58434124Y-75870335D02*
G01*
X58392333Y-75889344D01*
X58359531Y-75912378D01*
X58335497Y-75938133D01*
X58318903Y-75971358D01*
X58308423Y-76016800D01*
X58302729Y-76079207D01*
X58300493Y-76163327D01*
X58300257Y-76218721D01*
X58300257Y-76434826D01*
X58337226Y-76451670D01*
X58366344Y-76463981D01*
X58380769Y-76468514D01*
X58383528Y-76455025D01*
X58385718Y-76418653D01*
X58387058Y-76365542D01*
X58387343Y-76323372D01*
X58388566Y-76262447D01*
X58391864Y-76214115D01*
X58396679Y-76184518D01*
X58400504Y-76178229D01*
X58426217Y-76184652D01*
X58466582Y-76201125D01*
X58513321Y-76223458D01*
X58558155Y-76247457D01*
X58592807Y-76268930D01*
X58608998Y-76283685D01*
X58609062Y-76283845D01*
X58607670Y-76311152D01*
X58595182Y-76337219D01*
X58573257Y-76358392D01*
X58541257Y-76365474D01*
X58513908Y-76364649D01*
X58475174Y-76364042D01*
X58454842Y-76373116D01*
X58442631Y-76397092D01*
X58441091Y-76401613D01*
X58435797Y-76435806D01*
X58449953Y-76456568D01*
X58486852Y-76466462D01*
X58526711Y-76468292D01*
X58598438Y-76454727D01*
X58635568Y-76435355D01*
X58681424Y-76389845D01*
X58705744Y-76333983D01*
X58707927Y-76274957D01*
X58687371Y-76219953D01*
X58656451Y-76185486D01*
X58625580Y-76166189D01*
X58577058Y-76141759D01*
X58520515Y-76116985D01*
X58511090Y-76113199D01*
X58448981Y-76085791D01*
X58413178Y-76061634D01*
X58401663Y-76037619D01*
X58412420Y-76010635D01*
X58430886Y-75989543D01*
X58474531Y-75963572D01*
X58522554Y-75961624D01*
X58566594Y-75981637D01*
X58598291Y-76021551D01*
X58602451Y-76031848D01*
X58626673Y-76069724D01*
X58662035Y-76097842D01*
X58706657Y-76120917D01*
X58706657Y-76055485D01*
X58704031Y-76015506D01*
X58692770Y-75983997D01*
X58667801Y-75950378D01*
X58643831Y-75924484D01*
X58606559Y-75887817D01*
X58577599Y-75868121D01*
X58546495Y-75860220D01*
X58511287Y-75858914D01*
X58434124Y-75870335D01*
G37*
X58434124Y-75870335D02*
X58392333Y-75889344D01*
X58359531Y-75912378D01*
X58335497Y-75938133D01*
X58318903Y-75971358D01*
X58308423Y-76016800D01*
X58302729Y-76079207D01*
X58300493Y-76163327D01*
X58300257Y-76218721D01*
X58300257Y-76434826D01*
X58337226Y-76451670D01*
X58366344Y-76463981D01*
X58380769Y-76468514D01*
X58383528Y-76455025D01*
X58385718Y-76418653D01*
X58387058Y-76365542D01*
X58387343Y-76323372D01*
X58388566Y-76262447D01*
X58391864Y-76214115D01*
X58396679Y-76184518D01*
X58400504Y-76178229D01*
X58426217Y-76184652D01*
X58466582Y-76201125D01*
X58513321Y-76223458D01*
X58558155Y-76247457D01*
X58592807Y-76268930D01*
X58608998Y-76283685D01*
X58609062Y-76283845D01*
X58607670Y-76311152D01*
X58595182Y-76337219D01*
X58573257Y-76358392D01*
X58541257Y-76365474D01*
X58513908Y-76364649D01*
X58475174Y-76364042D01*
X58454842Y-76373116D01*
X58442631Y-76397092D01*
X58441091Y-76401613D01*
X58435797Y-76435806D01*
X58449953Y-76456568D01*
X58486852Y-76466462D01*
X58526711Y-76468292D01*
X58598438Y-76454727D01*
X58635568Y-76435355D01*
X58681424Y-76389845D01*
X58705744Y-76333983D01*
X58707927Y-76274957D01*
X58687371Y-76219953D01*
X58656451Y-76185486D01*
X58625580Y-76166189D01*
X58577058Y-76141759D01*
X58520515Y-76116985D01*
X58511090Y-76113199D01*
X58448981Y-76085791D01*
X58413178Y-76061634D01*
X58401663Y-76037619D01*
X58412420Y-76010635D01*
X58430886Y-75989543D01*
X58474531Y-75963572D01*
X58522554Y-75961624D01*
X58566594Y-75981637D01*
X58598291Y-76021551D01*
X58602451Y-76031848D01*
X58626673Y-76069724D01*
X58662035Y-76097842D01*
X58706657Y-76120917D01*
X58706657Y-76055485D01*
X58704031Y-76015506D01*
X58692770Y-75983997D01*
X58667801Y-75950378D01*
X58643831Y-75924484D01*
X58606559Y-75887817D01*
X58577599Y-75868121D01*
X58546495Y-75860220D01*
X58511287Y-75858914D01*
X58434124Y-75870335D01*
G36*
X57926400Y-75872752D02*
G01*
X57909052Y-75880334D01*
X57867644Y-75913128D01*
X57832235Y-75960547D01*
X57810336Y-76011151D01*
X57806771Y-76036098D01*
X57818721Y-76070927D01*
X57844933Y-76089357D01*
X57873036Y-76100516D01*
X57885905Y-76102572D01*
X57892171Y-76087649D01*
X57904544Y-76055175D01*
X57909972Y-76040502D01*
X57940410Y-75989744D01*
X57984480Y-75964427D01*
X58040990Y-75965206D01*
X58045175Y-75966203D01*
X58075345Y-75980507D01*
X58097524Y-76008393D01*
X58112673Y-76053287D01*
X58121750Y-76118615D01*
X58125714Y-76207804D01*
X58126086Y-76255261D01*
X58126270Y-76330071D01*
X58127478Y-76381069D01*
X58130691Y-76413471D01*
X58136891Y-76432495D01*
X58147060Y-76443356D01*
X58162181Y-76451272D01*
X58163054Y-76451670D01*
X58192172Y-76463981D01*
X58206597Y-76468514D01*
X58208814Y-76454809D01*
X58210711Y-76416925D01*
X58212153Y-76359715D01*
X58213002Y-76288027D01*
X58213171Y-76235565D01*
X58212308Y-76134047D01*
X58208930Y-76057032D01*
X58201858Y-76000023D01*
X58189912Y-75958526D01*
X58171910Y-75928043D01*
X58146673Y-75904080D01*
X58121753Y-75887355D01*
X58061829Y-75865097D01*
X57992089Y-75860076D01*
X57926400Y-75872752D01*
G37*
X57926400Y-75872752D02*
X57909052Y-75880334D01*
X57867644Y-75913128D01*
X57832235Y-75960547D01*
X57810336Y-76011151D01*
X57806771Y-76036098D01*
X57818721Y-76070927D01*
X57844933Y-76089357D01*
X57873036Y-76100516D01*
X57885905Y-76102572D01*
X57892171Y-76087649D01*
X57904544Y-76055175D01*
X57909972Y-76040502D01*
X57940410Y-75989744D01*
X57984480Y-75964427D01*
X58040990Y-75965206D01*
X58045175Y-75966203D01*
X58075345Y-75980507D01*
X58097524Y-76008393D01*
X58112673Y-76053287D01*
X58121750Y-76118615D01*
X58125714Y-76207804D01*
X58126086Y-76255261D01*
X58126270Y-76330071D01*
X58127478Y-76381069D01*
X58130691Y-76413471D01*
X58136891Y-76432495D01*
X58147060Y-76443356D01*
X58162181Y-76451272D01*
X58163054Y-76451670D01*
X58192172Y-76463981D01*
X58206597Y-76468514D01*
X58208814Y-76454809D01*
X58210711Y-76416925D01*
X58212153Y-76359715D01*
X58213002Y-76288027D01*
X58213171Y-76235565D01*
X58212308Y-76134047D01*
X58208930Y-76057032D01*
X58201858Y-76000023D01*
X58189912Y-75958526D01*
X58171910Y-75928043D01*
X58146673Y-75904080D01*
X58121753Y-75887355D01*
X58061829Y-75865097D01*
X57992089Y-75860076D01*
X57926400Y-75872752D01*
G36*
X57425405Y-75880966D02*
G01*
X57367979Y-75918497D01*
X57340281Y-75952096D01*
X57318338Y-76013064D01*
X57316595Y-76061308D01*
X57320543Y-76125816D01*
X57469314Y-76190934D01*
X57541651Y-76224202D01*
X57588916Y-76250964D01*
X57613493Y-76274144D01*
X57617763Y-76296667D01*
X57604111Y-76321455D01*
X57589057Y-76337886D01*
X57545254Y-76364235D01*
X57497611Y-76366081D01*
X57453855Y-76345546D01*
X57421711Y-76304752D01*
X57415962Y-76290347D01*
X57388424Y-76245356D01*
X57356742Y-76226182D01*
X57313286Y-76209779D01*
X57313286Y-76271966D01*
X57317128Y-76314283D01*
X57332177Y-76349969D01*
X57363720Y-76390943D01*
X57368408Y-76396267D01*
X57403494Y-76432720D01*
X57433653Y-76452283D01*
X57471385Y-76461283D01*
X57502665Y-76464230D01*
X57558615Y-76464965D01*
X57598445Y-76455660D01*
X57623292Y-76441846D01*
X57662344Y-76411467D01*
X57689375Y-76378613D01*
X57706483Y-76337294D01*
X57715762Y-76281521D01*
X57719307Y-76205305D01*
X57719590Y-76166622D01*
X57718628Y-76120247D01*
X57630993Y-76120247D01*
X57629977Y-76145126D01*
X57627444Y-76149200D01*
X57610726Y-76143665D01*
X57574751Y-76129017D01*
X57526669Y-76108190D01*
X57516614Y-76103714D01*
X57455848Y-76072814D01*
X57422368Y-76045657D01*
X57415010Y-76020220D01*
X57432609Y-75994481D01*
X57447144Y-75983109D01*
X57499590Y-75960364D01*
X57548678Y-75964122D01*
X57589773Y-75991884D01*
X57618242Y-76041152D01*
X57627369Y-76080257D01*
X57630993Y-76120247D01*
X57718628Y-76120247D01*
X57717715Y-76076249D01*
X57710804Y-76009384D01*
X57697116Y-75960695D01*
X57674904Y-75924849D01*
X57642426Y-75896513D01*
X57628267Y-75887355D01*
X57563947Y-75863507D01*
X57493527Y-75862006D01*
X57425405Y-75880966D01*
G37*
X57425405Y-75880966D02*
X57367979Y-75918497D01*
X57340281Y-75952096D01*
X57318338Y-76013064D01*
X57316595Y-76061308D01*
X57320543Y-76125816D01*
X57469314Y-76190934D01*
X57541651Y-76224202D01*
X57588916Y-76250964D01*
X57613493Y-76274144D01*
X57617763Y-76296667D01*
X57604111Y-76321455D01*
X57589057Y-76337886D01*
X57545254Y-76364235D01*
X57497611Y-76366081D01*
X57453855Y-76345546D01*
X57421711Y-76304752D01*
X57415962Y-76290347D01*
X57388424Y-76245356D01*
X57356742Y-76226182D01*
X57313286Y-76209779D01*
X57313286Y-76271966D01*
X57317128Y-76314283D01*
X57332177Y-76349969D01*
X57363720Y-76390943D01*
X57368408Y-76396267D01*
X57403494Y-76432720D01*
X57433653Y-76452283D01*
X57471385Y-76461283D01*
X57502665Y-76464230D01*
X57558615Y-76464965D01*
X57598445Y-76455660D01*
X57623292Y-76441846D01*
X57662344Y-76411467D01*
X57689375Y-76378613D01*
X57706483Y-76337294D01*
X57715762Y-76281521D01*
X57719307Y-76205305D01*
X57719590Y-76166622D01*
X57718628Y-76120247D01*
X57630993Y-76120247D01*
X57629977Y-76145126D01*
X57627444Y-76149200D01*
X57610726Y-76143665D01*
X57574751Y-76129017D01*
X57526669Y-76108190D01*
X57516614Y-76103714D01*
X57455848Y-76072814D01*
X57422368Y-76045657D01*
X57415010Y-76020220D01*
X57432609Y-75994481D01*
X57447144Y-75983109D01*
X57499590Y-75960364D01*
X57548678Y-75964122D01*
X57589773Y-75991884D01*
X57618242Y-76041152D01*
X57627369Y-76080257D01*
X57630993Y-76120247D01*
X57718628Y-76120247D01*
X57717715Y-76076249D01*
X57710804Y-76009384D01*
X57697116Y-75960695D01*
X57674904Y-75924849D01*
X57642426Y-75896513D01*
X57628267Y-75887355D01*
X57563947Y-75863507D01*
X57493527Y-75862006D01*
X57425405Y-75880966D01*
G36*
X60475090Y-71156348D02*
G01*
X60396546Y-71156778D01*
X60339702Y-71157942D01*
X60300895Y-71160207D01*
X60276462Y-71163940D01*
X60262738Y-71169506D01*
X60256060Y-71177273D01*
X60252764Y-71187605D01*
X60252444Y-71188943D01*
X60247438Y-71213079D01*
X60238171Y-71260701D01*
X60225608Y-71326741D01*
X60210713Y-71406128D01*
X60194449Y-71493796D01*
X60193881Y-71496875D01*
X60177590Y-71582789D01*
X60162348Y-71658696D01*
X60149139Y-71720045D01*
X60138946Y-71762282D01*
X60132752Y-71780855D01*
X60132457Y-71781184D01*
X60114212Y-71790253D01*
X60076595Y-71805367D01*
X60027729Y-71823262D01*
X60027457Y-71823358D01*
X59965907Y-71846493D01*
X59893343Y-71875965D01*
X59824943Y-71905597D01*
X59821706Y-71907062D01*
X59710298Y-71957626D01*
X59463601Y-71789160D01*
X59387923Y-71737803D01*
X59319369Y-71691889D01*
X59261912Y-71654030D01*
X59219524Y-71626837D01*
X59196175Y-71612921D01*
X59193958Y-71611889D01*
X59176990Y-71616484D01*
X59145299Y-71638655D01*
X59097648Y-71679447D01*
X59032802Y-71739905D01*
X58966603Y-71804227D01*
X58902786Y-71867612D01*
X58845671Y-71925451D01*
X58798695Y-71974175D01*
X58765297Y-72010210D01*
X58748915Y-72029984D01*
X58748306Y-72031002D01*
X58746495Y-72044572D01*
X58753317Y-72066733D01*
X58770460Y-72100478D01*
X58799607Y-72148800D01*
X58842445Y-72214692D01*
X58899552Y-72299517D01*
X58950234Y-72374177D01*
X58995539Y-72441140D01*
X59032850Y-72496516D01*
X59059548Y-72536420D01*
X59073015Y-72556962D01*
X59073863Y-72558356D01*
X59072219Y-72578038D01*
X59059755Y-72616293D01*
X59038952Y-72665889D01*
X59031538Y-72681728D01*
X58999186Y-72752290D01*
X58964672Y-72832353D01*
X58936635Y-72901629D01*
X58916432Y-72953045D01*
X58900385Y-72992119D01*
X58891112Y-73012541D01*
X58889959Y-73014114D01*
X58872904Y-73016721D01*
X58832702Y-73023863D01*
X58774698Y-73034523D01*
X58704237Y-73047685D01*
X58626665Y-73062333D01*
X58547328Y-73077449D01*
X58471569Y-73092018D01*
X58404736Y-73105022D01*
X58352172Y-73115445D01*
X58319224Y-73122270D01*
X58311143Y-73124199D01*
X58302795Y-73128962D01*
X58296494Y-73139718D01*
X58291955Y-73160098D01*
X58288896Y-73193734D01*
X58287033Y-73244255D01*
X58286082Y-73315292D01*
X58285760Y-73410476D01*
X58285743Y-73449492D01*
X58285743Y-73766799D01*
X58361943Y-73781839D01*
X58404337Y-73789995D01*
X58467600Y-73801899D01*
X58544038Y-73816116D01*
X58625957Y-73831210D01*
X58648600Y-73835355D01*
X58724194Y-73850053D01*
X58790047Y-73864505D01*
X58840634Y-73877375D01*
X58870426Y-73887322D01*
X58875388Y-73890287D01*
X58887574Y-73911283D01*
X58905047Y-73951967D01*
X58924423Y-74004322D01*
X58928266Y-74015600D01*
X58953661Y-74085523D01*
X58985183Y-74164418D01*
X59016031Y-74235266D01*
X59016183Y-74235595D01*
X59067553Y-74346733D01*
X58898601Y-74595253D01*
X58729648Y-74843772D01*
X58946571Y-75061058D01*
X59012181Y-75125726D01*
X59072021Y-75182733D01*
X59122733Y-75229033D01*
X59160954Y-75261584D01*
X59183325Y-75277343D01*
X59186534Y-75278343D01*
X59205374Y-75270469D01*
X59243820Y-75248578D01*
X59297670Y-75215267D01*
X59362724Y-75173131D01*
X59433060Y-75125943D01*
X59504445Y-75077810D01*
X59568092Y-75035928D01*
X59619959Y-75002871D01*
X59656005Y-74981218D01*
X59672133Y-74973543D01*
X59691811Y-74980037D01*
X59729125Y-74997150D01*
X59776379Y-75021326D01*
X59781388Y-75024013D01*
X59845023Y-75055927D01*
X59888659Y-75071579D01*
X59915798Y-75071745D01*
X59929943Y-75057204D01*
X59930025Y-75057000D01*
X59937095Y-75039779D01*
X59953958Y-74998899D01*
X59979305Y-74937525D01*
X60011829Y-74858819D01*
X60050222Y-74765947D01*
X60093178Y-74662072D01*
X60134778Y-74561502D01*
X60180496Y-74450516D01*
X60222474Y-74347703D01*
X60259452Y-74256215D01*
X60290173Y-74179201D01*
X60313378Y-74119815D01*
X60327810Y-74081209D01*
X60332257Y-74066800D01*
X60321104Y-74050272D01*
X60291931Y-74023930D01*
X60253029Y-73994887D01*
X60142243Y-73903039D01*
X60055649Y-73797759D01*
X59994284Y-73681266D01*
X59959185Y-73555776D01*
X59951392Y-73423507D01*
X59957057Y-73362457D01*
X59987922Y-73235795D01*
X60041080Y-73123941D01*
X60113233Y-73028001D01*
X60201083Y-72949076D01*
X60301335Y-72888270D01*
X60410690Y-72846687D01*
X60525853Y-72825428D01*
X60643525Y-72825599D01*
X60760410Y-72848301D01*
X60873211Y-72894638D01*
X60978631Y-72965713D01*
X61022632Y-73005911D01*
X61107021Y-73109129D01*
X61165778Y-73221925D01*
X61199296Y-73341010D01*
X61207965Y-73463095D01*
X61192177Y-73584893D01*
X61152322Y-73703116D01*
X61088793Y-73814475D01*
X61001979Y-73915684D01*
X60904971Y-73994887D01*
X60864563Y-74025162D01*
X60836018Y-74051219D01*
X60825743Y-74066825D01*
X60831123Y-74083843D01*
X60846425Y-74124500D01*
X60870388Y-74185642D01*
X60901756Y-74264119D01*
X60939268Y-74356780D01*
X60981667Y-74460472D01*
X61023337Y-74561526D01*
X61069310Y-74672607D01*
X61111893Y-74775541D01*
X61149779Y-74867165D01*
X61181660Y-74944316D01*
X61206229Y-75003831D01*
X61222180Y-75042544D01*
X61228090Y-75057000D01*
X61242052Y-75071685D01*
X61269060Y-75071642D01*
X61312587Y-75056099D01*
X61376110Y-75024284D01*
X61376612Y-75024013D01*
X61424440Y-74999323D01*
X61463103Y-74981338D01*
X61484905Y-74973614D01*
X61485867Y-74973543D01*
X61502279Y-74981378D01*
X61538513Y-75003165D01*
X61590526Y-75036328D01*
X61654275Y-75078291D01*
X61724940Y-75125943D01*
X61796884Y-75174191D01*
X61861726Y-75216151D01*
X61915265Y-75249227D01*
X61953303Y-75270821D01*
X61971467Y-75278343D01*
X61988192Y-75268457D01*
X62021820Y-75240826D01*
X62068990Y-75198495D01*
X62126342Y-75144505D01*
X62190516Y-75081899D01*
X62211503Y-75060983D01*
X62428501Y-74843623D01*
X62263332Y-74601220D01*
X62213136Y-74526781D01*
X62169081Y-74459972D01*
X62133638Y-74404665D01*
X62109281Y-74364729D01*
X62098478Y-74344036D01*
X62098162Y-74342563D01*
X62103857Y-74323058D01*
X62119174Y-74283822D01*
X62141463Y-74231430D01*
X62157107Y-74196355D01*
X62186359Y-74129201D01*
X62213906Y-74061358D01*
X62235263Y-74004034D01*
X62241065Y-73986572D01*
X62257548Y-73939938D01*
X62273660Y-73903905D01*
X62282510Y-73890287D01*
X62302040Y-73881952D01*
X62344666Y-73870137D01*
X62404855Y-73856181D01*
X62477078Y-73841422D01*
X62509400Y-73835355D01*
X62591478Y-73820273D01*
X62670205Y-73805669D01*
X62737891Y-73792980D01*
X62786840Y-73783642D01*
X62796057Y-73781839D01*
X62872257Y-73766799D01*
X62872257Y-73449492D01*
X62872086Y-73345154D01*
X62871384Y-73266213D01*
X62869866Y-73209038D01*
X62867251Y-73169999D01*
X62863254Y-73145465D01*
X62857591Y-73131805D01*
X62849980Y-73125389D01*
X62846857Y-73124199D01*
X62828022Y-73119980D01*
X62786412Y-73111562D01*
X62727370Y-73099961D01*
X62656243Y-73086195D01*
X62578375Y-73071280D01*
X62499113Y-73056232D01*
X62423802Y-73042069D01*
X62357787Y-73029806D01*
X62306413Y-73020461D01*
X62275025Y-73015050D01*
X62268041Y-73014114D01*
X62261715Y-73001596D01*
X62247710Y-72968246D01*
X62228645Y-72920377D01*
X62221366Y-72901629D01*
X62192004Y-72829195D01*
X62157429Y-72749170D01*
X62126463Y-72681728D01*
X62103677Y-72630159D01*
X62088518Y-72587785D01*
X62083458Y-72561834D01*
X62084264Y-72558356D01*
X62094959Y-72541936D01*
X62119380Y-72505417D01*
X62154905Y-72452687D01*
X62198913Y-72387635D01*
X62248783Y-72314151D01*
X62258644Y-72299645D01*
X62316508Y-72213704D01*
X62359044Y-72148261D01*
X62387946Y-72100304D01*
X62404910Y-72066820D01*
X62411633Y-72044795D01*
X62409810Y-72031217D01*
X62409764Y-72031131D01*
X62395414Y-72013297D01*
X62363677Y-71978817D01*
X62317990Y-71931268D01*
X62261796Y-71874222D01*
X62198532Y-71811255D01*
X62191398Y-71804227D01*
X62111670Y-71727020D01*
X62050143Y-71670330D01*
X62005579Y-71633110D01*
X61976743Y-71614315D01*
X61964042Y-71611889D01*
X61945506Y-71622471D01*
X61907039Y-71646916D01*
X61852614Y-71682612D01*
X61786202Y-71726947D01*
X61711775Y-71777311D01*
X61694399Y-71789160D01*
X61447703Y-71957626D01*
X61336294Y-71907062D01*
X61268543Y-71877595D01*
X61195817Y-71847959D01*
X61133297Y-71824330D01*
X61130543Y-71823358D01*
X61081640Y-71805457D01*
X61043943Y-71790320D01*
X61025575Y-71781210D01*
X61025544Y-71781184D01*
X61019715Y-71764717D01*
X61009808Y-71724219D01*
X60996805Y-71664242D01*
X60981691Y-71589340D01*
X60965448Y-71504064D01*
X60964119Y-71496875D01*
X60947825Y-71409014D01*
X60932867Y-71329260D01*
X60920209Y-71262681D01*
X60910814Y-71214347D01*
X60905646Y-71189325D01*
X60905556Y-71188943D01*
X60902411Y-71178299D01*
X60896296Y-71170262D01*
X60883547Y-71164467D01*
X60860500Y-71160547D01*
X60823491Y-71158135D01*
X60768856Y-71156865D01*
X60692933Y-71156371D01*
X60592056Y-71156286D01*
X60579000Y-71156286D01*
X60475090Y-71156348D01*
G37*
X60475090Y-71156348D02*
X60396546Y-71156778D01*
X60339702Y-71157942D01*
X60300895Y-71160207D01*
X60276462Y-71163940D01*
X60262738Y-71169506D01*
X60256060Y-71177273D01*
X60252764Y-71187605D01*
X60252444Y-71188943D01*
X60247438Y-71213079D01*
X60238171Y-71260701D01*
X60225608Y-71326741D01*
X60210713Y-71406128D01*
X60194449Y-71493796D01*
X60193881Y-71496875D01*
X60177590Y-71582789D01*
X60162348Y-71658696D01*
X60149139Y-71720045D01*
X60138946Y-71762282D01*
X60132752Y-71780855D01*
X60132457Y-71781184D01*
X60114212Y-71790253D01*
X60076595Y-71805367D01*
X60027729Y-71823262D01*
X60027457Y-71823358D01*
X59965907Y-71846493D01*
X59893343Y-71875965D01*
X59824943Y-71905597D01*
X59821706Y-71907062D01*
X59710298Y-71957626D01*
X59463601Y-71789160D01*
X59387923Y-71737803D01*
X59319369Y-71691889D01*
X59261912Y-71654030D01*
X59219524Y-71626837D01*
X59196175Y-71612921D01*
X59193958Y-71611889D01*
X59176990Y-71616484D01*
X59145299Y-71638655D01*
X59097648Y-71679447D01*
X59032802Y-71739905D01*
X58966603Y-71804227D01*
X58902786Y-71867612D01*
X58845671Y-71925451D01*
X58798695Y-71974175D01*
X58765297Y-72010210D01*
X58748915Y-72029984D01*
X58748306Y-72031002D01*
X58746495Y-72044572D01*
X58753317Y-72066733D01*
X58770460Y-72100478D01*
X58799607Y-72148800D01*
X58842445Y-72214692D01*
X58899552Y-72299517D01*
X58950234Y-72374177D01*
X58995539Y-72441140D01*
X59032850Y-72496516D01*
X59059548Y-72536420D01*
X59073015Y-72556962D01*
X59073863Y-72558356D01*
X59072219Y-72578038D01*
X59059755Y-72616293D01*
X59038952Y-72665889D01*
X59031538Y-72681728D01*
X58999186Y-72752290D01*
X58964672Y-72832353D01*
X58936635Y-72901629D01*
X58916432Y-72953045D01*
X58900385Y-72992119D01*
X58891112Y-73012541D01*
X58889959Y-73014114D01*
X58872904Y-73016721D01*
X58832702Y-73023863D01*
X58774698Y-73034523D01*
X58704237Y-73047685D01*
X58626665Y-73062333D01*
X58547328Y-73077449D01*
X58471569Y-73092018D01*
X58404736Y-73105022D01*
X58352172Y-73115445D01*
X58319224Y-73122270D01*
X58311143Y-73124199D01*
X58302795Y-73128962D01*
X58296494Y-73139718D01*
X58291955Y-73160098D01*
X58288896Y-73193734D01*
X58287033Y-73244255D01*
X58286082Y-73315292D01*
X58285760Y-73410476D01*
X58285743Y-73449492D01*
X58285743Y-73766799D01*
X58361943Y-73781839D01*
X58404337Y-73789995D01*
X58467600Y-73801899D01*
X58544038Y-73816116D01*
X58625957Y-73831210D01*
X58648600Y-73835355D01*
X58724194Y-73850053D01*
X58790047Y-73864505D01*
X58840634Y-73877375D01*
X58870426Y-73887322D01*
X58875388Y-73890287D01*
X58887574Y-73911283D01*
X58905047Y-73951967D01*
X58924423Y-74004322D01*
X58928266Y-74015600D01*
X58953661Y-74085523D01*
X58985183Y-74164418D01*
X59016031Y-74235266D01*
X59016183Y-74235595D01*
X59067553Y-74346733D01*
X58898601Y-74595253D01*
X58729648Y-74843772D01*
X58946571Y-75061058D01*
X59012181Y-75125726D01*
X59072021Y-75182733D01*
X59122733Y-75229033D01*
X59160954Y-75261584D01*
X59183325Y-75277343D01*
X59186534Y-75278343D01*
X59205374Y-75270469D01*
X59243820Y-75248578D01*
X59297670Y-75215267D01*
X59362724Y-75173131D01*
X59433060Y-75125943D01*
X59504445Y-75077810D01*
X59568092Y-75035928D01*
X59619959Y-75002871D01*
X59656005Y-74981218D01*
X59672133Y-74973543D01*
X59691811Y-74980037D01*
X59729125Y-74997150D01*
X59776379Y-75021326D01*
X59781388Y-75024013D01*
X59845023Y-75055927D01*
X59888659Y-75071579D01*
X59915798Y-75071745D01*
X59929943Y-75057204D01*
X59930025Y-75057000D01*
X59937095Y-75039779D01*
X59953958Y-74998899D01*
X59979305Y-74937525D01*
X60011829Y-74858819D01*
X60050222Y-74765947D01*
X60093178Y-74662072D01*
X60134778Y-74561502D01*
X60180496Y-74450516D01*
X60222474Y-74347703D01*
X60259452Y-74256215D01*
X60290173Y-74179201D01*
X60313378Y-74119815D01*
X60327810Y-74081209D01*
X60332257Y-74066800D01*
X60321104Y-74050272D01*
X60291931Y-74023930D01*
X60253029Y-73994887D01*
X60142243Y-73903039D01*
X60055649Y-73797759D01*
X59994284Y-73681266D01*
X59959185Y-73555776D01*
X59951392Y-73423507D01*
X59957057Y-73362457D01*
X59987922Y-73235795D01*
X60041080Y-73123941D01*
X60113233Y-73028001D01*
X60201083Y-72949076D01*
X60301335Y-72888270D01*
X60410690Y-72846687D01*
X60525853Y-72825428D01*
X60643525Y-72825599D01*
X60760410Y-72848301D01*
X60873211Y-72894638D01*
X60978631Y-72965713D01*
X61022632Y-73005911D01*
X61107021Y-73109129D01*
X61165778Y-73221925D01*
X61199296Y-73341010D01*
X61207965Y-73463095D01*
X61192177Y-73584893D01*
X61152322Y-73703116D01*
X61088793Y-73814475D01*
X61001979Y-73915684D01*
X60904971Y-73994887D01*
X60864563Y-74025162D01*
X60836018Y-74051219D01*
X60825743Y-74066825D01*
X60831123Y-74083843D01*
X60846425Y-74124500D01*
X60870388Y-74185642D01*
X60901756Y-74264119D01*
X60939268Y-74356780D01*
X60981667Y-74460472D01*
X61023337Y-74561526D01*
X61069310Y-74672607D01*
X61111893Y-74775541D01*
X61149779Y-74867165D01*
X61181660Y-74944316D01*
X61206229Y-75003831D01*
X61222180Y-75042544D01*
X61228090Y-75057000D01*
X61242052Y-75071685D01*
X61269060Y-75071642D01*
X61312587Y-75056099D01*
X61376110Y-75024284D01*
X61376612Y-75024013D01*
X61424440Y-74999323D01*
X61463103Y-74981338D01*
X61484905Y-74973614D01*
X61485867Y-74973543D01*
X61502279Y-74981378D01*
X61538513Y-75003165D01*
X61590526Y-75036328D01*
X61654275Y-75078291D01*
X61724940Y-75125943D01*
X61796884Y-75174191D01*
X61861726Y-75216151D01*
X61915265Y-75249227D01*
X61953303Y-75270821D01*
X61971467Y-75278343D01*
X61988192Y-75268457D01*
X62021820Y-75240826D01*
X62068990Y-75198495D01*
X62126342Y-75144505D01*
X62190516Y-75081899D01*
X62211503Y-75060983D01*
X62428501Y-74843623D01*
X62263332Y-74601220D01*
X62213136Y-74526781D01*
X62169081Y-74459972D01*
X62133638Y-74404665D01*
X62109281Y-74364729D01*
X62098478Y-74344036D01*
X62098162Y-74342563D01*
X62103857Y-74323058D01*
X62119174Y-74283822D01*
X62141463Y-74231430D01*
X62157107Y-74196355D01*
X62186359Y-74129201D01*
X62213906Y-74061358D01*
X62235263Y-74004034D01*
X62241065Y-73986572D01*
X62257548Y-73939938D01*
X62273660Y-73903905D01*
X62282510Y-73890287D01*
X62302040Y-73881952D01*
X62344666Y-73870137D01*
X62404855Y-73856181D01*
X62477078Y-73841422D01*
X62509400Y-73835355D01*
X62591478Y-73820273D01*
X62670205Y-73805669D01*
X62737891Y-73792980D01*
X62786840Y-73783642D01*
X62796057Y-73781839D01*
X62872257Y-73766799D01*
X62872257Y-73449492D01*
X62872086Y-73345154D01*
X62871384Y-73266213D01*
X62869866Y-73209038D01*
X62867251Y-73169999D01*
X62863254Y-73145465D01*
X62857591Y-73131805D01*
X62849980Y-73125389D01*
X62846857Y-73124199D01*
X62828022Y-73119980D01*
X62786412Y-73111562D01*
X62727370Y-73099961D01*
X62656243Y-73086195D01*
X62578375Y-73071280D01*
X62499113Y-73056232D01*
X62423802Y-73042069D01*
X62357787Y-73029806D01*
X62306413Y-73020461D01*
X62275025Y-73015050D01*
X62268041Y-73014114D01*
X62261715Y-73001596D01*
X62247710Y-72968246D01*
X62228645Y-72920377D01*
X62221366Y-72901629D01*
X62192004Y-72829195D01*
X62157429Y-72749170D01*
X62126463Y-72681728D01*
X62103677Y-72630159D01*
X62088518Y-72587785D01*
X62083458Y-72561834D01*
X62084264Y-72558356D01*
X62094959Y-72541936D01*
X62119380Y-72505417D01*
X62154905Y-72452687D01*
X62198913Y-72387635D01*
X62248783Y-72314151D01*
X62258644Y-72299645D01*
X62316508Y-72213704D01*
X62359044Y-72148261D01*
X62387946Y-72100304D01*
X62404910Y-72066820D01*
X62411633Y-72044795D01*
X62409810Y-72031217D01*
X62409764Y-72031131D01*
X62395414Y-72013297D01*
X62363677Y-71978817D01*
X62317990Y-71931268D01*
X62261796Y-71874222D01*
X62198532Y-71811255D01*
X62191398Y-71804227D01*
X62111670Y-71727020D01*
X62050143Y-71670330D01*
X62005579Y-71633110D01*
X61976743Y-71614315D01*
X61964042Y-71611889D01*
X61945506Y-71622471D01*
X61907039Y-71646916D01*
X61852614Y-71682612D01*
X61786202Y-71726947D01*
X61711775Y-71777311D01*
X61694399Y-71789160D01*
X61447703Y-71957626D01*
X61336294Y-71907062D01*
X61268543Y-71877595D01*
X61195817Y-71847959D01*
X61133297Y-71824330D01*
X61130543Y-71823358D01*
X61081640Y-71805457D01*
X61043943Y-71790320D01*
X61025575Y-71781210D01*
X61025544Y-71781184D01*
X61019715Y-71764717D01*
X61009808Y-71724219D01*
X60996805Y-71664242D01*
X60981691Y-71589340D01*
X60965448Y-71504064D01*
X60964119Y-71496875D01*
X60947825Y-71409014D01*
X60932867Y-71329260D01*
X60920209Y-71262681D01*
X60910814Y-71214347D01*
X60905646Y-71189325D01*
X60905556Y-71188943D01*
X60902411Y-71178299D01*
X60896296Y-71170262D01*
X60883547Y-71164467D01*
X60860500Y-71160547D01*
X60823491Y-71158135D01*
X60768856Y-71156865D01*
X60692933Y-71156371D01*
X60592056Y-71156286D01*
X60579000Y-71156286D01*
X60475090Y-71156348D01*
D12*
%TO.C,BAT1*%
X65318640Y-72945240D02*
X65318640Y-74945240D01*
X66338200Y-73934320D02*
X64338200Y-73934320D01*
X79216000Y-49610000D02*
X74716000Y-49610000D01*
X79216000Y-72310000D02*
X74716000Y-72310000D01*
X79216000Y-72310000D02*
X79216000Y-49610000D01*
X74716000Y-46410000D02*
X73166000Y-46410000D01*
X74716000Y-49610000D02*
X74716000Y-46410000D01*
X74716000Y-75510000D02*
X73166000Y-75510000D01*
X74716000Y-72310000D02*
X74716000Y-75510000D01*
X67016000Y-75510000D02*
X68566000Y-75510000D01*
X67016000Y-72310000D02*
X67016000Y-75510000D01*
X62516000Y-70510000D02*
X64316000Y-72310000D01*
X64316000Y-72310000D02*
X67016000Y-72310000D01*
X62516000Y-49610000D02*
X62516000Y-70510000D01*
X62516000Y-49610000D02*
X67016000Y-49610000D01*
X67016000Y-46410000D02*
X68566000Y-46410000D01*
X67016000Y-49610000D02*
X67016000Y-46410000D01*
D13*
X71710428Y-61029857D02*
X71596142Y-61067952D01*
X71558047Y-61106047D01*
X71519952Y-61182238D01*
X71519952Y-61296523D01*
X71558047Y-61372714D01*
X71596142Y-61410809D01*
X71672333Y-61448904D01*
X71977095Y-61448904D01*
X71977095Y-60648904D01*
X71710428Y-60648904D01*
X71634238Y-60687000D01*
X71596142Y-60725095D01*
X71558047Y-60801285D01*
X71558047Y-60877476D01*
X71596142Y-60953666D01*
X71634238Y-60991761D01*
X71710428Y-61029857D01*
X71977095Y-61029857D01*
X71215190Y-61220333D02*
X70834238Y-61220333D01*
X71291380Y-61448904D02*
X71024714Y-60648904D01*
X70758047Y-61448904D01*
X70605666Y-60648904D02*
X70148523Y-60648904D01*
X70377095Y-61448904D02*
X70377095Y-60648904D01*
X69462809Y-61448904D02*
X69919952Y-61448904D01*
X69691380Y-61448904D02*
X69691380Y-60648904D01*
X69767571Y-60763190D01*
X69843761Y-60839380D01*
X69919952Y-60877476D01*
%TD*%
M02*
