M48
; DRILL file {KiCad (5.1.10)-1} date 12/27/21 13:21:30
; FORMAT={-:-/ absolute / inch / decimal}
; #@! TF.CreationDate,2021-12-27T13:21:30+01:00
; #@! TF.GenerationSoftware,Kicad,Pcbnew,(5.1.10)-1
FMAT,2
INCH
T1C0.0157
T2C0.0394
T3C0.0787
%
G90
G05
T1
X2.23Y-2.56
X2.24Y-1.68
X2.43Y-2.29
X2.45Y-1.92
X2.46Y-2.38
X2.4785Y-1.97
X2.56Y-2.12
X2.56Y-2.17
X2.57Y-2.83
X2.58Y-1.8
X2.61Y-2.07
X2.61Y-2.69
X2.68Y-1.91
X2.89Y-1.74
X2.89Y-2.26
X2.89Y-2.69
X2.93Y-2.52
X3.0Y-2.91
X3.0Y-2.95
X3.0Y-2.99
X3.0Y-3.03
X3.02Y-2.28
X3.03Y-3.06
X3.08Y-3.06
X3.13Y-3.06
X3.145Y-2.295
X3.17Y-2.02
X3.17Y-2.91
X3.18Y-3.06
X3.2Y-2.87
X3.21Y-1.96
X3.26Y-3.06
X3.27Y-2.88
X3.35Y-2.77
T2
X2.3Y-1.8
X2.3Y-1.9
X2.3Y-2.0
X2.3Y-2.1
X2.3Y-2.2
X2.3Y-2.3
X2.3Y-2.4
X2.3Y-2.5
X2.9594Y-1.7
X2.9594Y-1.8
X3.0594Y-1.7
X3.0594Y-1.8
X3.1594Y-1.7
X3.1594Y-1.8
X3.3Y-1.8
X3.3Y-1.9
X3.3Y-2.0
X3.3Y-2.1
X3.3Y-2.2
X3.3Y-2.3
X3.3Y-2.4
X3.3Y-2.5
X3.349Y-2.94
T3
X2.2835Y-3.0118
X3.3Y-1.6909
T0
M30
