%TF.GenerationSoftware,KiCad,Pcbnew,(5.1.10)-1*%
%TF.CreationDate,2021-12-27T13:21:28+01:00*%
%TF.ProjectId,LORA_ATTINY_v3,4c4f5241-5f41-4545-9449-4e595f76332e,rev?*%
%TF.SameCoordinates,Original*%
%TF.FileFunction,Other,Fab,Top*%
%FSLAX46Y46*%
G04 Gerber Fmt 4.6, Leading zero omitted, Abs format (unit mm)*
G04 Created by KiCad (PCBNEW (5.1.10)-1) date 2021-12-27 13:21:28*
%MOMM*%
%LPD*%
G01*
G04 APERTURE LIST*
%ADD10C,0.100000*%
%ADD11C,0.150000*%
%ADD12C,0.120000*%
G04 APERTURE END LIST*
D10*
%TO.C,ANT1*%
X87174000Y-74676000D02*
X86174000Y-75316000D01*
X86174000Y-74036000D02*
X87174000Y-74676000D01*
X95694000Y-71511000D02*
X95694000Y-77841000D01*
X82364000Y-71501000D02*
X95694000Y-71501000D01*
X82364000Y-71501000D02*
X82364000Y-72311000D01*
X82364000Y-72311000D02*
X86174000Y-72311000D01*
X86174000Y-72311000D02*
X86174000Y-77041000D01*
X86174000Y-77041000D02*
X82364000Y-77041000D01*
X82364000Y-77041000D02*
X82364000Y-77851000D01*
X82364000Y-77851000D02*
X95694000Y-77851000D01*
%TO.C,C1*%
X74346000Y-57442000D02*
X74346000Y-55842000D01*
X74346000Y-55842000D02*
X77546000Y-55842000D01*
X77546000Y-55842000D02*
X77546000Y-57442000D01*
X77546000Y-57442000D02*
X74346000Y-57442000D01*
%TO.C,C2*%
X85166000Y-69126000D02*
X81966000Y-69126000D01*
X85166000Y-67526000D02*
X85166000Y-69126000D01*
X81966000Y-67526000D02*
X85166000Y-67526000D01*
X81966000Y-69126000D02*
X81966000Y-67526000D01*
%TO.C,D1*%
X73838000Y-59982000D02*
X76638000Y-59982000D01*
X76638000Y-59982000D02*
X77038000Y-59582000D01*
X77038000Y-59582000D02*
X77038000Y-58382000D01*
X77038000Y-58382000D02*
X73838000Y-58382000D01*
X73838000Y-58382000D02*
X73838000Y-59982000D01*
%TO.C,J1*%
X57150000Y-44450000D02*
X59055000Y-44450000D01*
X59055000Y-44450000D02*
X59690000Y-45085000D01*
X59690000Y-45085000D02*
X59690000Y-64770000D01*
X59690000Y-64770000D02*
X57150000Y-64770000D01*
X57150000Y-64770000D02*
X57150000Y-44450000D01*
%TO.C,J2*%
X82550000Y-64770000D02*
X82550000Y-44450000D01*
X85090000Y-64770000D02*
X82550000Y-64770000D01*
X85090000Y-45085000D02*
X85090000Y-64770000D01*
X84455000Y-44450000D02*
X85090000Y-45085000D01*
X82550000Y-44450000D02*
X84455000Y-44450000D01*
%TO.C,UPDI*%
X73900000Y-45720000D02*
X73900000Y-41910000D01*
X73900000Y-41910000D02*
X81520000Y-41910000D01*
X81520000Y-41910000D02*
X81520000Y-46990000D01*
X81520000Y-46990000D02*
X75170000Y-46990000D01*
X75170000Y-46990000D02*
X73900000Y-45720000D01*
%TO.C,R1*%
X68504000Y-58382000D02*
X71704000Y-58382000D01*
X68504000Y-59982000D02*
X68504000Y-58382000D01*
X71704000Y-59982000D02*
X68504000Y-59982000D01*
X71704000Y-58382000D02*
X71704000Y-59982000D01*
%TO.C,R2*%
X57874000Y-70028000D02*
X59474000Y-70028000D01*
X59474000Y-70028000D02*
X59474000Y-73228000D01*
X59474000Y-73228000D02*
X57874000Y-73228000D01*
X57874000Y-73228000D02*
X57874000Y-70028000D01*
%TO.C,ATTiny 3216*%
X69552000Y-57073000D02*
X63052000Y-57073000D01*
X63052000Y-57073000D02*
X63052000Y-44273000D01*
X63052000Y-44273000D02*
X70552000Y-44273000D01*
X70552000Y-44273000D02*
X70552000Y-56073000D01*
X70552000Y-56073000D02*
X69552000Y-57073000D01*
%TD*%
%TO.C,ANT1*%
D11*
X97240666Y-77437904D02*
X97240666Y-76961714D01*
X97526380Y-77533142D02*
X96526380Y-77199809D01*
X97526380Y-76866476D01*
X96859714Y-76533142D02*
X97526380Y-76533142D01*
X96954952Y-76533142D02*
X96907333Y-76485523D01*
X96859714Y-76390285D01*
X96859714Y-76247428D01*
X96907333Y-76152190D01*
X97002571Y-76104571D01*
X97526380Y-76104571D01*
X96859714Y-75771238D02*
X96859714Y-75390285D01*
X96526380Y-75628380D02*
X97383523Y-75628380D01*
X97478761Y-75580761D01*
X97526380Y-75485523D01*
X97526380Y-75390285D01*
X97478761Y-74676000D02*
X97526380Y-74771238D01*
X97526380Y-74961714D01*
X97478761Y-75056952D01*
X97383523Y-75104571D01*
X97002571Y-75104571D01*
X96907333Y-75056952D01*
X96859714Y-74961714D01*
X96859714Y-74771238D01*
X96907333Y-74676000D01*
X97002571Y-74628380D01*
X97097809Y-74628380D01*
X97193047Y-75104571D01*
X96859714Y-74199809D02*
X97526380Y-74199809D01*
X96954952Y-74199809D02*
X96907333Y-74152190D01*
X96859714Y-74056952D01*
X96859714Y-73914095D01*
X96907333Y-73818857D01*
X97002571Y-73771238D01*
X97526380Y-73771238D01*
X96859714Y-73295047D02*
X97526380Y-73295047D01*
X96954952Y-73295047D02*
X96907333Y-73247428D01*
X96859714Y-73152190D01*
X96859714Y-73009333D01*
X96907333Y-72914095D01*
X97002571Y-72866476D01*
X97526380Y-72866476D01*
X97526380Y-71961714D02*
X97002571Y-71961714D01*
X96907333Y-72009333D01*
X96859714Y-72104571D01*
X96859714Y-72295047D01*
X96907333Y-72390285D01*
X97478761Y-71961714D02*
X97526380Y-72056952D01*
X97526380Y-72295047D01*
X97478761Y-72390285D01*
X97383523Y-72437904D01*
X97288285Y-72437904D01*
X97193047Y-72390285D01*
X97145428Y-72295047D01*
X97145428Y-72056952D01*
X97097809Y-71961714D01*
%TO.C,C1*%
X74826952Y-58944380D02*
X74255523Y-58944380D01*
X74541238Y-58944380D02*
X74541238Y-57944380D01*
X74446000Y-58087238D01*
X74350761Y-58182476D01*
X74255523Y-58230095D01*
X75446000Y-57944380D02*
X75541238Y-57944380D01*
X75636476Y-57992000D01*
X75684095Y-58039619D01*
X75731714Y-58134857D01*
X75779333Y-58325333D01*
X75779333Y-58563428D01*
X75731714Y-58753904D01*
X75684095Y-58849142D01*
X75636476Y-58896761D01*
X75541238Y-58944380D01*
X75446000Y-58944380D01*
X75350761Y-58896761D01*
X75303142Y-58849142D01*
X75255523Y-58753904D01*
X75207904Y-58563428D01*
X75207904Y-58325333D01*
X75255523Y-58134857D01*
X75303142Y-58039619D01*
X75350761Y-57992000D01*
X75446000Y-57944380D01*
X76398380Y-57944380D02*
X76493619Y-57944380D01*
X76588857Y-57992000D01*
X76636476Y-58039619D01*
X76684095Y-58134857D01*
X76731714Y-58325333D01*
X76731714Y-58563428D01*
X76684095Y-58753904D01*
X76636476Y-58849142D01*
X76588857Y-58896761D01*
X76493619Y-58944380D01*
X76398380Y-58944380D01*
X76303142Y-58896761D01*
X76255523Y-58849142D01*
X76207904Y-58753904D01*
X76160285Y-58563428D01*
X76160285Y-58325333D01*
X76207904Y-58134857D01*
X76255523Y-58039619D01*
X76303142Y-57992000D01*
X76398380Y-57944380D01*
X77160285Y-58277714D02*
X77160285Y-58944380D01*
X77160285Y-58372952D02*
X77207904Y-58325333D01*
X77303142Y-58277714D01*
X77446000Y-58277714D01*
X77541238Y-58325333D01*
X77588857Y-58420571D01*
X77588857Y-58944380D01*
D12*
X75812666Y-56927714D02*
X75774571Y-56965809D01*
X75660285Y-57003904D01*
X75584095Y-57003904D01*
X75469809Y-56965809D01*
X75393619Y-56889619D01*
X75355523Y-56813428D01*
X75317428Y-56661047D01*
X75317428Y-56546761D01*
X75355523Y-56394380D01*
X75393619Y-56318190D01*
X75469809Y-56242000D01*
X75584095Y-56203904D01*
X75660285Y-56203904D01*
X75774571Y-56242000D01*
X75812666Y-56280095D01*
X76574571Y-57003904D02*
X76117428Y-57003904D01*
X76346000Y-57003904D02*
X76346000Y-56203904D01*
X76269809Y-56318190D01*
X76193619Y-56394380D01*
X76117428Y-56432476D01*
%TO.C,C2*%
D11*
X82446952Y-70628380D02*
X81875523Y-70628380D01*
X82161238Y-70628380D02*
X82161238Y-69628380D01*
X82066000Y-69771238D01*
X81970761Y-69866476D01*
X81875523Y-69914095D01*
X83066000Y-69628380D02*
X83161238Y-69628380D01*
X83256476Y-69676000D01*
X83304095Y-69723619D01*
X83351714Y-69818857D01*
X83399333Y-70009333D01*
X83399333Y-70247428D01*
X83351714Y-70437904D01*
X83304095Y-70533142D01*
X83256476Y-70580761D01*
X83161238Y-70628380D01*
X83066000Y-70628380D01*
X82970761Y-70580761D01*
X82923142Y-70533142D01*
X82875523Y-70437904D01*
X82827904Y-70247428D01*
X82827904Y-70009333D01*
X82875523Y-69818857D01*
X82923142Y-69723619D01*
X82970761Y-69676000D01*
X83066000Y-69628380D01*
X84018380Y-69628380D02*
X84113619Y-69628380D01*
X84208857Y-69676000D01*
X84256476Y-69723619D01*
X84304095Y-69818857D01*
X84351714Y-70009333D01*
X84351714Y-70247428D01*
X84304095Y-70437904D01*
X84256476Y-70533142D01*
X84208857Y-70580761D01*
X84113619Y-70628380D01*
X84018380Y-70628380D01*
X83923142Y-70580761D01*
X83875523Y-70533142D01*
X83827904Y-70437904D01*
X83780285Y-70247428D01*
X83780285Y-70009333D01*
X83827904Y-69818857D01*
X83875523Y-69723619D01*
X83923142Y-69676000D01*
X84018380Y-69628380D01*
X84780285Y-69961714D02*
X84780285Y-70628380D01*
X84780285Y-70056952D02*
X84827904Y-70009333D01*
X84923142Y-69961714D01*
X85066000Y-69961714D01*
X85161238Y-70009333D01*
X85208857Y-70104571D01*
X85208857Y-70628380D01*
D12*
X83432666Y-68611714D02*
X83394571Y-68649809D01*
X83280285Y-68687904D01*
X83204095Y-68687904D01*
X83089809Y-68649809D01*
X83013619Y-68573619D01*
X82975523Y-68497428D01*
X82937428Y-68345047D01*
X82937428Y-68230761D01*
X82975523Y-68078380D01*
X83013619Y-68002190D01*
X83089809Y-67926000D01*
X83204095Y-67887904D01*
X83280285Y-67887904D01*
X83394571Y-67926000D01*
X83432666Y-67964095D01*
X83737428Y-67964095D02*
X83775523Y-67926000D01*
X83851714Y-67887904D01*
X84042190Y-67887904D01*
X84118380Y-67926000D01*
X84156476Y-67964095D01*
X84194571Y-68040285D01*
X84194571Y-68116476D01*
X84156476Y-68230761D01*
X83699333Y-68687904D01*
X84194571Y-68687904D01*
%TO.C,D1*%
D11*
X74795142Y-57814380D02*
X74318952Y-57814380D01*
X74318952Y-56814380D01*
X75128476Y-57290571D02*
X75461809Y-57290571D01*
X75604666Y-57814380D02*
X75128476Y-57814380D01*
X75128476Y-56814380D01*
X75604666Y-56814380D01*
X76033238Y-57814380D02*
X76033238Y-56814380D01*
X76271333Y-56814380D01*
X76414190Y-56862000D01*
X76509428Y-56957238D01*
X76557047Y-57052476D01*
X76604666Y-57242952D01*
X76604666Y-57385809D01*
X76557047Y-57576285D01*
X76509428Y-57671523D01*
X76414190Y-57766761D01*
X76271333Y-57814380D01*
X76033238Y-57814380D01*
D12*
X74847523Y-59543904D02*
X74847523Y-58743904D01*
X75038000Y-58743904D01*
X75152285Y-58782000D01*
X75228476Y-58858190D01*
X75266571Y-58934380D01*
X75304666Y-59086761D01*
X75304666Y-59201047D01*
X75266571Y-59353428D01*
X75228476Y-59429619D01*
X75152285Y-59505809D01*
X75038000Y-59543904D01*
X74847523Y-59543904D01*
X76066571Y-59543904D02*
X75609428Y-59543904D01*
X75838000Y-59543904D02*
X75838000Y-58743904D01*
X75761809Y-58858190D01*
X75685619Y-58934380D01*
X75609428Y-58972476D01*
%TO.C,J1*%
D11*
X52586666Y-66627142D02*
X52539047Y-66674761D01*
X52396190Y-66722380D01*
X52300952Y-66722380D01*
X52158095Y-66674761D01*
X52062857Y-66579523D01*
X52015238Y-66484285D01*
X51967619Y-66293809D01*
X51967619Y-66150952D01*
X52015238Y-65960476D01*
X52062857Y-65865238D01*
X52158095Y-65770000D01*
X52300952Y-65722380D01*
X52396190Y-65722380D01*
X52539047Y-65770000D01*
X52586666Y-65817619D01*
X53158095Y-66722380D02*
X53062857Y-66674761D01*
X53015238Y-66627142D01*
X52967619Y-66531904D01*
X52967619Y-66246190D01*
X53015238Y-66150952D01*
X53062857Y-66103333D01*
X53158095Y-66055714D01*
X53300952Y-66055714D01*
X53396190Y-66103333D01*
X53443809Y-66150952D01*
X53491428Y-66246190D01*
X53491428Y-66531904D01*
X53443809Y-66627142D01*
X53396190Y-66674761D01*
X53300952Y-66722380D01*
X53158095Y-66722380D01*
X53920000Y-66055714D02*
X53920000Y-66722380D01*
X53920000Y-66150952D02*
X53967619Y-66103333D01*
X54062857Y-66055714D01*
X54205714Y-66055714D01*
X54300952Y-66103333D01*
X54348571Y-66198571D01*
X54348571Y-66722380D01*
X54824761Y-66055714D02*
X54824761Y-66722380D01*
X54824761Y-66150952D02*
X54872380Y-66103333D01*
X54967619Y-66055714D01*
X55110476Y-66055714D01*
X55205714Y-66103333D01*
X55253333Y-66198571D01*
X55253333Y-66722380D01*
X55491428Y-66817619D02*
X56253333Y-66817619D01*
X56681904Y-65722380D02*
X56777142Y-65722380D01*
X56872380Y-65770000D01*
X56920000Y-65817619D01*
X56967619Y-65912857D01*
X57015238Y-66103333D01*
X57015238Y-66341428D01*
X56967619Y-66531904D01*
X56920000Y-66627142D01*
X56872380Y-66674761D01*
X56777142Y-66722380D01*
X56681904Y-66722380D01*
X56586666Y-66674761D01*
X56539047Y-66627142D01*
X56491428Y-66531904D01*
X56443809Y-66341428D01*
X56443809Y-66103333D01*
X56491428Y-65912857D01*
X56539047Y-65817619D01*
X56586666Y-65770000D01*
X56681904Y-65722380D01*
X57967619Y-66722380D02*
X57396190Y-66722380D01*
X57681904Y-66722380D02*
X57681904Y-65722380D01*
X57586666Y-65865238D01*
X57491428Y-65960476D01*
X57396190Y-66008095D01*
X58300952Y-66722380D02*
X58824761Y-66055714D01*
X58300952Y-66055714D02*
X58824761Y-66722380D01*
X59396190Y-65722380D02*
X59491428Y-65722380D01*
X59586666Y-65770000D01*
X59634285Y-65817619D01*
X59681904Y-65912857D01*
X59729523Y-66103333D01*
X59729523Y-66341428D01*
X59681904Y-66531904D01*
X59634285Y-66627142D01*
X59586666Y-66674761D01*
X59491428Y-66722380D01*
X59396190Y-66722380D01*
X59300952Y-66674761D01*
X59253333Y-66627142D01*
X59205714Y-66531904D01*
X59158095Y-66341428D01*
X59158095Y-66103333D01*
X59205714Y-65912857D01*
X59253333Y-65817619D01*
X59300952Y-65770000D01*
X59396190Y-65722380D01*
X60300952Y-66150952D02*
X60205714Y-66103333D01*
X60158095Y-66055714D01*
X60110476Y-65960476D01*
X60110476Y-65912857D01*
X60158095Y-65817619D01*
X60205714Y-65770000D01*
X60300952Y-65722380D01*
X60491428Y-65722380D01*
X60586666Y-65770000D01*
X60634285Y-65817619D01*
X60681904Y-65912857D01*
X60681904Y-65960476D01*
X60634285Y-66055714D01*
X60586666Y-66103333D01*
X60491428Y-66150952D01*
X60300952Y-66150952D01*
X60205714Y-66198571D01*
X60158095Y-66246190D01*
X60110476Y-66341428D01*
X60110476Y-66531904D01*
X60158095Y-66627142D01*
X60205714Y-66674761D01*
X60300952Y-66722380D01*
X60491428Y-66722380D01*
X60586666Y-66674761D01*
X60634285Y-66627142D01*
X60681904Y-66531904D01*
X60681904Y-66341428D01*
X60634285Y-66246190D01*
X60586666Y-66198571D01*
X60491428Y-66150952D01*
X60872380Y-66817619D02*
X61634285Y-66817619D01*
X61872380Y-66722380D02*
X61872380Y-65722380D01*
X62205714Y-66436666D01*
X62539047Y-65722380D01*
X62539047Y-66722380D01*
X63443809Y-66722380D02*
X63443809Y-66198571D01*
X63396190Y-66103333D01*
X63300952Y-66055714D01*
X63110476Y-66055714D01*
X63015238Y-66103333D01*
X63443809Y-66674761D02*
X63348571Y-66722380D01*
X63110476Y-66722380D01*
X63015238Y-66674761D01*
X62967619Y-66579523D01*
X62967619Y-66484285D01*
X63015238Y-66389047D01*
X63110476Y-66341428D01*
X63348571Y-66341428D01*
X63443809Y-66293809D01*
X64062857Y-66722380D02*
X63967619Y-66674761D01*
X63920000Y-66579523D01*
X63920000Y-65722380D01*
X64824761Y-66674761D02*
X64729523Y-66722380D01*
X64539047Y-66722380D01*
X64443809Y-66674761D01*
X64396190Y-66579523D01*
X64396190Y-66198571D01*
X64443809Y-66103333D01*
X64539047Y-66055714D01*
X64729523Y-66055714D01*
X64824761Y-66103333D01*
X64872380Y-66198571D01*
X64872380Y-66293809D01*
X64396190Y-66389047D01*
X57872380Y-54943333D02*
X58586666Y-54943333D01*
X58729523Y-54990952D01*
X58824761Y-55086190D01*
X58872380Y-55229047D01*
X58872380Y-55324285D01*
X58872380Y-53943333D02*
X58872380Y-54514761D01*
X58872380Y-54229047D02*
X57872380Y-54229047D01*
X58015238Y-54324285D01*
X58110476Y-54419523D01*
X58158095Y-54514761D01*
%TO.C,J2*%
X77986666Y-66627142D02*
X77939047Y-66674761D01*
X77796190Y-66722380D01*
X77700952Y-66722380D01*
X77558095Y-66674761D01*
X77462857Y-66579523D01*
X77415238Y-66484285D01*
X77367619Y-66293809D01*
X77367619Y-66150952D01*
X77415238Y-65960476D01*
X77462857Y-65865238D01*
X77558095Y-65770000D01*
X77700952Y-65722380D01*
X77796190Y-65722380D01*
X77939047Y-65770000D01*
X77986666Y-65817619D01*
X78558095Y-66722380D02*
X78462857Y-66674761D01*
X78415238Y-66627142D01*
X78367619Y-66531904D01*
X78367619Y-66246190D01*
X78415238Y-66150952D01*
X78462857Y-66103333D01*
X78558095Y-66055714D01*
X78700952Y-66055714D01*
X78796190Y-66103333D01*
X78843809Y-66150952D01*
X78891428Y-66246190D01*
X78891428Y-66531904D01*
X78843809Y-66627142D01*
X78796190Y-66674761D01*
X78700952Y-66722380D01*
X78558095Y-66722380D01*
X79320000Y-66055714D02*
X79320000Y-66722380D01*
X79320000Y-66150952D02*
X79367619Y-66103333D01*
X79462857Y-66055714D01*
X79605714Y-66055714D01*
X79700952Y-66103333D01*
X79748571Y-66198571D01*
X79748571Y-66722380D01*
X80224761Y-66055714D02*
X80224761Y-66722380D01*
X80224761Y-66150952D02*
X80272380Y-66103333D01*
X80367619Y-66055714D01*
X80510476Y-66055714D01*
X80605714Y-66103333D01*
X80653333Y-66198571D01*
X80653333Y-66722380D01*
X80891428Y-66817619D02*
X81653333Y-66817619D01*
X82081904Y-65722380D02*
X82177142Y-65722380D01*
X82272380Y-65770000D01*
X82320000Y-65817619D01*
X82367619Y-65912857D01*
X82415238Y-66103333D01*
X82415238Y-66341428D01*
X82367619Y-66531904D01*
X82320000Y-66627142D01*
X82272380Y-66674761D01*
X82177142Y-66722380D01*
X82081904Y-66722380D01*
X81986666Y-66674761D01*
X81939047Y-66627142D01*
X81891428Y-66531904D01*
X81843809Y-66341428D01*
X81843809Y-66103333D01*
X81891428Y-65912857D01*
X81939047Y-65817619D01*
X81986666Y-65770000D01*
X82081904Y-65722380D01*
X83367619Y-66722380D02*
X82796190Y-66722380D01*
X83081904Y-66722380D02*
X83081904Y-65722380D01*
X82986666Y-65865238D01*
X82891428Y-65960476D01*
X82796190Y-66008095D01*
X83700952Y-66722380D02*
X84224761Y-66055714D01*
X83700952Y-66055714D02*
X84224761Y-66722380D01*
X84796190Y-65722380D02*
X84891428Y-65722380D01*
X84986666Y-65770000D01*
X85034285Y-65817619D01*
X85081904Y-65912857D01*
X85129523Y-66103333D01*
X85129523Y-66341428D01*
X85081904Y-66531904D01*
X85034285Y-66627142D01*
X84986666Y-66674761D01*
X84891428Y-66722380D01*
X84796190Y-66722380D01*
X84700952Y-66674761D01*
X84653333Y-66627142D01*
X84605714Y-66531904D01*
X84558095Y-66341428D01*
X84558095Y-66103333D01*
X84605714Y-65912857D01*
X84653333Y-65817619D01*
X84700952Y-65770000D01*
X84796190Y-65722380D01*
X85700952Y-66150952D02*
X85605714Y-66103333D01*
X85558095Y-66055714D01*
X85510476Y-65960476D01*
X85510476Y-65912857D01*
X85558095Y-65817619D01*
X85605714Y-65770000D01*
X85700952Y-65722380D01*
X85891428Y-65722380D01*
X85986666Y-65770000D01*
X86034285Y-65817619D01*
X86081904Y-65912857D01*
X86081904Y-65960476D01*
X86034285Y-66055714D01*
X85986666Y-66103333D01*
X85891428Y-66150952D01*
X85700952Y-66150952D01*
X85605714Y-66198571D01*
X85558095Y-66246190D01*
X85510476Y-66341428D01*
X85510476Y-66531904D01*
X85558095Y-66627142D01*
X85605714Y-66674761D01*
X85700952Y-66722380D01*
X85891428Y-66722380D01*
X85986666Y-66674761D01*
X86034285Y-66627142D01*
X86081904Y-66531904D01*
X86081904Y-66341428D01*
X86034285Y-66246190D01*
X85986666Y-66198571D01*
X85891428Y-66150952D01*
X86272380Y-66817619D02*
X87034285Y-66817619D01*
X87272380Y-66722380D02*
X87272380Y-65722380D01*
X87605714Y-66436666D01*
X87939047Y-65722380D01*
X87939047Y-66722380D01*
X88843809Y-66722380D02*
X88843809Y-66198571D01*
X88796190Y-66103333D01*
X88700952Y-66055714D01*
X88510476Y-66055714D01*
X88415238Y-66103333D01*
X88843809Y-66674761D02*
X88748571Y-66722380D01*
X88510476Y-66722380D01*
X88415238Y-66674761D01*
X88367619Y-66579523D01*
X88367619Y-66484285D01*
X88415238Y-66389047D01*
X88510476Y-66341428D01*
X88748571Y-66341428D01*
X88843809Y-66293809D01*
X89462857Y-66722380D02*
X89367619Y-66674761D01*
X89320000Y-66579523D01*
X89320000Y-65722380D01*
X90224761Y-66674761D02*
X90129523Y-66722380D01*
X89939047Y-66722380D01*
X89843809Y-66674761D01*
X89796190Y-66579523D01*
X89796190Y-66198571D01*
X89843809Y-66103333D01*
X89939047Y-66055714D01*
X90129523Y-66055714D01*
X90224761Y-66103333D01*
X90272380Y-66198571D01*
X90272380Y-66293809D01*
X89796190Y-66389047D01*
X83272380Y-54943333D02*
X83986666Y-54943333D01*
X84129523Y-54990952D01*
X84224761Y-55086190D01*
X84272380Y-55229047D01*
X84272380Y-55324285D01*
X83367619Y-54514761D02*
X83320000Y-54467142D01*
X83272380Y-54371904D01*
X83272380Y-54133809D01*
X83320000Y-54038571D01*
X83367619Y-53990952D01*
X83462857Y-53943333D01*
X83558095Y-53943333D01*
X83700952Y-53990952D01*
X84272380Y-54562380D01*
X84272380Y-53943333D01*
%TO.C,UPDI*%
X83032380Y-45711904D02*
X82032380Y-45711904D01*
X82032380Y-45330952D01*
X82080000Y-45235714D01*
X82127619Y-45188095D01*
X82222857Y-45140476D01*
X82365714Y-45140476D01*
X82460952Y-45188095D01*
X82508571Y-45235714D01*
X82556190Y-45330952D01*
X82556190Y-45711904D01*
X83032380Y-44140476D02*
X82556190Y-44473809D01*
X83032380Y-44711904D02*
X82032380Y-44711904D01*
X82032380Y-44330952D01*
X82080000Y-44235714D01*
X82127619Y-44188095D01*
X82222857Y-44140476D01*
X82365714Y-44140476D01*
X82460952Y-44188095D01*
X82508571Y-44235714D01*
X82556190Y-44330952D01*
X82556190Y-44711904D01*
X82080000Y-43188095D02*
X82032380Y-43283333D01*
X82032380Y-43426190D01*
X82080000Y-43569047D01*
X82175238Y-43664285D01*
X82270476Y-43711904D01*
X82460952Y-43759523D01*
X82603809Y-43759523D01*
X82794285Y-43711904D01*
X82889523Y-43664285D01*
X82984761Y-43569047D01*
X83032380Y-43426190D01*
X83032380Y-43330952D01*
X82984761Y-43188095D01*
X82937142Y-43140476D01*
X82603809Y-43140476D01*
X82603809Y-43330952D01*
X76186190Y-43902380D02*
X76186190Y-44711904D01*
X76233809Y-44807142D01*
X76281428Y-44854761D01*
X76376666Y-44902380D01*
X76567142Y-44902380D01*
X76662380Y-44854761D01*
X76710000Y-44807142D01*
X76757619Y-44711904D01*
X76757619Y-43902380D01*
X77233809Y-44902380D02*
X77233809Y-43902380D01*
X77614761Y-43902380D01*
X77710000Y-43950000D01*
X77757619Y-43997619D01*
X77805238Y-44092857D01*
X77805238Y-44235714D01*
X77757619Y-44330952D01*
X77710000Y-44378571D01*
X77614761Y-44426190D01*
X77233809Y-44426190D01*
X78233809Y-44902380D02*
X78233809Y-43902380D01*
X78471904Y-43902380D01*
X78614761Y-43950000D01*
X78710000Y-44045238D01*
X78757619Y-44140476D01*
X78805238Y-44330952D01*
X78805238Y-44473809D01*
X78757619Y-44664285D01*
X78710000Y-44759523D01*
X78614761Y-44854761D01*
X78471904Y-44902380D01*
X78233809Y-44902380D01*
X79233809Y-44902380D02*
X79233809Y-43902380D01*
%TO.C,R1*%
X69437333Y-57814380D02*
X68865904Y-57814380D01*
X69151619Y-57814380D02*
X69151619Y-56814380D01*
X69056380Y-56957238D01*
X68961142Y-57052476D01*
X68865904Y-57100095D01*
X70056380Y-56814380D02*
X70151619Y-56814380D01*
X70246857Y-56862000D01*
X70294476Y-56909619D01*
X70342095Y-57004857D01*
X70389714Y-57195333D01*
X70389714Y-57433428D01*
X70342095Y-57623904D01*
X70294476Y-57719142D01*
X70246857Y-57766761D01*
X70151619Y-57814380D01*
X70056380Y-57814380D01*
X69961142Y-57766761D01*
X69913523Y-57719142D01*
X69865904Y-57623904D01*
X69818285Y-57433428D01*
X69818285Y-57195333D01*
X69865904Y-57004857D01*
X69913523Y-56909619D01*
X69961142Y-56862000D01*
X70056380Y-56814380D01*
X71008761Y-56814380D02*
X71104000Y-56814380D01*
X71199238Y-56862000D01*
X71246857Y-56909619D01*
X71294476Y-57004857D01*
X71342095Y-57195333D01*
X71342095Y-57433428D01*
X71294476Y-57623904D01*
X71246857Y-57719142D01*
X71199238Y-57766761D01*
X71104000Y-57814380D01*
X71008761Y-57814380D01*
X70913523Y-57766761D01*
X70865904Y-57719142D01*
X70818285Y-57623904D01*
X70770666Y-57433428D01*
X70770666Y-57195333D01*
X70818285Y-57004857D01*
X70865904Y-56909619D01*
X70913523Y-56862000D01*
X71008761Y-56814380D01*
D12*
X69970666Y-59543904D02*
X69704000Y-59162952D01*
X69513523Y-59543904D02*
X69513523Y-58743904D01*
X69818285Y-58743904D01*
X69894476Y-58782000D01*
X69932571Y-58820095D01*
X69970666Y-58896285D01*
X69970666Y-59010571D01*
X69932571Y-59086761D01*
X69894476Y-59124857D01*
X69818285Y-59162952D01*
X69513523Y-59162952D01*
X70732571Y-59543904D02*
X70275428Y-59543904D01*
X70504000Y-59543904D02*
X70504000Y-58743904D01*
X70427809Y-58858190D01*
X70351619Y-58934380D01*
X70275428Y-58972476D01*
%TO.C,R2*%
D11*
X56639714Y-72413714D02*
X57306380Y-72413714D01*
X56258761Y-72651809D02*
X56973047Y-72889904D01*
X56973047Y-72270857D01*
X56306380Y-71985142D02*
X56306380Y-71318476D01*
X57306380Y-71747047D01*
X57306380Y-70937523D02*
X56306380Y-70937523D01*
X57306380Y-70366095D02*
X56734952Y-70794666D01*
X56306380Y-70366095D02*
X56877809Y-70937523D01*
D12*
X59035904Y-71761333D02*
X58654952Y-72028000D01*
X59035904Y-72218476D02*
X58235904Y-72218476D01*
X58235904Y-71913714D01*
X58274000Y-71837523D01*
X58312095Y-71799428D01*
X58388285Y-71761333D01*
X58502571Y-71761333D01*
X58578761Y-71799428D01*
X58616857Y-71837523D01*
X58654952Y-71913714D01*
X58654952Y-72218476D01*
X58312095Y-71456571D02*
X58274000Y-71418476D01*
X58235904Y-71342285D01*
X58235904Y-71151809D01*
X58274000Y-71075619D01*
X58312095Y-71037523D01*
X58388285Y-70999428D01*
X58464476Y-70999428D01*
X58578761Y-71037523D01*
X59035904Y-71494666D01*
X59035904Y-70999428D01*
%TO.C,RFM95*%
D11*
X70769714Y-60882380D02*
X70436380Y-60406190D01*
X70198285Y-60882380D02*
X70198285Y-59882380D01*
X70579238Y-59882380D01*
X70674476Y-59930000D01*
X70722095Y-59977619D01*
X70769714Y-60072857D01*
X70769714Y-60215714D01*
X70722095Y-60310952D01*
X70674476Y-60358571D01*
X70579238Y-60406190D01*
X70198285Y-60406190D01*
X71531619Y-60358571D02*
X71198285Y-60358571D01*
X71198285Y-60882380D02*
X71198285Y-59882380D01*
X71674476Y-59882380D01*
X72055428Y-60882380D02*
X72055428Y-59882380D01*
X72388761Y-60596666D01*
X72722095Y-59882380D01*
X72722095Y-60882380D01*
X73245904Y-60882380D02*
X73436380Y-60882380D01*
X73531619Y-60834761D01*
X73579238Y-60787142D01*
X73674476Y-60644285D01*
X73722095Y-60453809D01*
X73722095Y-60072857D01*
X73674476Y-59977619D01*
X73626857Y-59930000D01*
X73531619Y-59882380D01*
X73341142Y-59882380D01*
X73245904Y-59930000D01*
X73198285Y-59977619D01*
X73150666Y-60072857D01*
X73150666Y-60310952D01*
X73198285Y-60406190D01*
X73245904Y-60453809D01*
X73341142Y-60501428D01*
X73531619Y-60501428D01*
X73626857Y-60453809D01*
X73674476Y-60406190D01*
X73722095Y-60310952D01*
X74626857Y-59882380D02*
X74150666Y-59882380D01*
X74103047Y-60358571D01*
X74150666Y-60310952D01*
X74245904Y-60263333D01*
X74484000Y-60263333D01*
X74579238Y-60310952D01*
X74626857Y-60358571D01*
X74674476Y-60453809D01*
X74674476Y-60691904D01*
X74626857Y-60787142D01*
X74579238Y-60834761D01*
X74484000Y-60882380D01*
X74245904Y-60882380D01*
X74150666Y-60834761D01*
X74103047Y-60787142D01*
X75007809Y-59882380D02*
X75245904Y-60882380D01*
X75436380Y-60168095D01*
X75626857Y-60882380D01*
X75864952Y-59882380D01*
X76245904Y-60501428D02*
X77007809Y-60501428D01*
X77626857Y-60310952D02*
X77531619Y-60263333D01*
X77484000Y-60215714D01*
X77436380Y-60120476D01*
X77436380Y-60072857D01*
X77484000Y-59977619D01*
X77531619Y-59930000D01*
X77626857Y-59882380D01*
X77817333Y-59882380D01*
X77912571Y-59930000D01*
X77960190Y-59977619D01*
X78007809Y-60072857D01*
X78007809Y-60120476D01*
X77960190Y-60215714D01*
X77912571Y-60263333D01*
X77817333Y-60310952D01*
X77626857Y-60310952D01*
X77531619Y-60358571D01*
X77484000Y-60406190D01*
X77436380Y-60501428D01*
X77436380Y-60691904D01*
X77484000Y-60787142D01*
X77531619Y-60834761D01*
X77626857Y-60882380D01*
X77817333Y-60882380D01*
X77912571Y-60834761D01*
X77960190Y-60787142D01*
X78007809Y-60691904D01*
X78007809Y-60501428D01*
X77960190Y-60406190D01*
X77912571Y-60358571D01*
X77817333Y-60310952D01*
X78864952Y-59882380D02*
X78674476Y-59882380D01*
X78579238Y-59930000D01*
X78531619Y-59977619D01*
X78436380Y-60120476D01*
X78388761Y-60310952D01*
X78388761Y-60691904D01*
X78436380Y-60787142D01*
X78484000Y-60834761D01*
X78579238Y-60882380D01*
X78769714Y-60882380D01*
X78864952Y-60834761D01*
X78912571Y-60787142D01*
X78960190Y-60691904D01*
X78960190Y-60453809D01*
X78912571Y-60358571D01*
X78864952Y-60310952D01*
X78769714Y-60263333D01*
X78579238Y-60263333D01*
X78484000Y-60310952D01*
X78436380Y-60358571D01*
X78388761Y-60453809D01*
X79531619Y-60310952D02*
X79436380Y-60263333D01*
X79388761Y-60215714D01*
X79341142Y-60120476D01*
X79341142Y-60072857D01*
X79388761Y-59977619D01*
X79436380Y-59930000D01*
X79531619Y-59882380D01*
X79722095Y-59882380D01*
X79817333Y-59930000D01*
X79864952Y-59977619D01*
X79912571Y-60072857D01*
X79912571Y-60120476D01*
X79864952Y-60215714D01*
X79817333Y-60263333D01*
X79722095Y-60310952D01*
X79531619Y-60310952D01*
X79436380Y-60358571D01*
X79388761Y-60406190D01*
X79341142Y-60501428D01*
X79341142Y-60691904D01*
X79388761Y-60787142D01*
X79436380Y-60834761D01*
X79531619Y-60882380D01*
X79722095Y-60882380D01*
X79817333Y-60834761D01*
X79864952Y-60787142D01*
X79912571Y-60691904D01*
X79912571Y-60501428D01*
X79864952Y-60406190D01*
X79817333Y-60358571D01*
X79722095Y-60310952D01*
X80293523Y-60834761D02*
X80436380Y-60882380D01*
X80674476Y-60882380D01*
X80769714Y-60834761D01*
X80817333Y-60787142D01*
X80864952Y-60691904D01*
X80864952Y-60596666D01*
X80817333Y-60501428D01*
X80769714Y-60453809D01*
X80674476Y-60406190D01*
X80484000Y-60358571D01*
X80388761Y-60310952D01*
X80341142Y-60263333D01*
X80293523Y-60168095D01*
X80293523Y-60072857D01*
X80341142Y-59977619D01*
X80388761Y-59930000D01*
X80484000Y-59882380D01*
X80722095Y-59882380D01*
X80864952Y-59930000D01*
X81245904Y-59977619D02*
X81293523Y-59930000D01*
X81388761Y-59882380D01*
X81626857Y-59882380D01*
X81722095Y-59930000D01*
X81769714Y-59977619D01*
X81817333Y-60072857D01*
X81817333Y-60168095D01*
X81769714Y-60310952D01*
X81198285Y-60882380D01*
X81817333Y-60882380D01*
%TO.C,ATTiny 3216*%
X61825809Y-43489666D02*
X62301999Y-43489666D01*
X61730571Y-43775380D02*
X62063904Y-42775380D01*
X62397238Y-43775380D01*
X62587714Y-42775380D02*
X63159142Y-42775380D01*
X62873428Y-43775380D02*
X62873428Y-42775380D01*
X63349619Y-43108714D02*
X63730571Y-43108714D01*
X63492476Y-42775380D02*
X63492476Y-43632523D01*
X63540095Y-43727761D01*
X63635333Y-43775380D01*
X63730571Y-43775380D01*
X64063904Y-43775380D02*
X64063904Y-43108714D01*
X64063904Y-42775380D02*
X64016285Y-42823000D01*
X64063904Y-42870619D01*
X64111523Y-42823000D01*
X64063904Y-42775380D01*
X64063904Y-42870619D01*
X64540095Y-43108714D02*
X64540095Y-43775380D01*
X64540095Y-43203952D02*
X64587714Y-43156333D01*
X64682952Y-43108714D01*
X64825809Y-43108714D01*
X64921047Y-43156333D01*
X64968666Y-43251571D01*
X64968666Y-43775380D01*
X65349619Y-43108714D02*
X65587714Y-43775380D01*
X65825809Y-43108714D02*
X65587714Y-43775380D01*
X65492476Y-44013476D01*
X65444857Y-44061095D01*
X65349619Y-44108714D01*
X66111523Y-42775380D02*
X66730571Y-42775380D01*
X66397238Y-43156333D01*
X66540095Y-43156333D01*
X66635333Y-43203952D01*
X66682952Y-43251571D01*
X66730571Y-43346809D01*
X66730571Y-43584904D01*
X66682952Y-43680142D01*
X66635333Y-43727761D01*
X66540095Y-43775380D01*
X66254380Y-43775380D01*
X66159142Y-43727761D01*
X66111523Y-43680142D01*
X67111523Y-42870619D02*
X67159142Y-42823000D01*
X67254380Y-42775380D01*
X67492476Y-42775380D01*
X67587714Y-42823000D01*
X67635333Y-42870619D01*
X67682952Y-42965857D01*
X67682952Y-43061095D01*
X67635333Y-43203952D01*
X67063904Y-43775380D01*
X67682952Y-43775380D01*
X68635333Y-43775380D02*
X68063904Y-43775380D01*
X68349619Y-43775380D02*
X68349619Y-42775380D01*
X68254380Y-42918238D01*
X68159142Y-43013476D01*
X68063904Y-43061095D01*
X69492476Y-42775380D02*
X69302000Y-42775380D01*
X69206761Y-42823000D01*
X69159142Y-42870619D01*
X69063904Y-43013476D01*
X69016285Y-43203952D01*
X69016285Y-43584904D01*
X69063904Y-43680142D01*
X69111523Y-43727761D01*
X69206761Y-43775380D01*
X69397238Y-43775380D01*
X69492476Y-43727761D01*
X69540095Y-43680142D01*
X69587714Y-43584904D01*
X69587714Y-43346809D01*
X69540095Y-43251571D01*
X69492476Y-43203952D01*
X69397238Y-43156333D01*
X69206761Y-43156333D01*
X69111523Y-43203952D01*
X69063904Y-43251571D01*
X69016285Y-43346809D01*
X70016285Y-43394428D02*
X70778190Y-43394428D01*
X71206761Y-43727761D02*
X71349619Y-43775380D01*
X71587714Y-43775380D01*
X71682952Y-43727761D01*
X71730571Y-43680142D01*
X71778190Y-43584904D01*
X71778190Y-43489666D01*
X71730571Y-43394428D01*
X71682952Y-43346809D01*
X71587714Y-43299190D01*
X71397238Y-43251571D01*
X71302000Y-43203952D01*
X71254380Y-43156333D01*
X71206761Y-43061095D01*
X71206761Y-42965857D01*
X71254380Y-42870619D01*
X71302000Y-42823000D01*
X71397238Y-42775380D01*
X71635333Y-42775380D01*
X71778190Y-42823000D01*
X62444857Y-50839666D02*
X62921047Y-50839666D01*
X62349619Y-51125380D02*
X62682952Y-50125380D01*
X63016285Y-51125380D01*
X63206761Y-50125380D02*
X63778190Y-50125380D01*
X63492476Y-51125380D02*
X63492476Y-50125380D01*
X63968666Y-50125380D02*
X64540095Y-50125380D01*
X64254380Y-51125380D02*
X64254380Y-50125380D01*
X64873428Y-51125380D02*
X64873428Y-50458714D01*
X64873428Y-50125380D02*
X64825809Y-50173000D01*
X64873428Y-50220619D01*
X64921047Y-50173000D01*
X64873428Y-50125380D01*
X64873428Y-50220619D01*
X65349619Y-50458714D02*
X65349619Y-51125380D01*
X65349619Y-50553952D02*
X65397238Y-50506333D01*
X65492476Y-50458714D01*
X65635333Y-50458714D01*
X65730571Y-50506333D01*
X65778190Y-50601571D01*
X65778190Y-51125380D01*
X66159142Y-50458714D02*
X66397238Y-51125380D01*
X66635333Y-50458714D02*
X66397238Y-51125380D01*
X66302000Y-51363476D01*
X66254380Y-51411095D01*
X66159142Y-51458714D01*
X67682952Y-50125380D02*
X68302000Y-50125380D01*
X67968666Y-50506333D01*
X68111523Y-50506333D01*
X68206761Y-50553952D01*
X68254380Y-50601571D01*
X68302000Y-50696809D01*
X68302000Y-50934904D01*
X68254380Y-51030142D01*
X68206761Y-51077761D01*
X68111523Y-51125380D01*
X67825809Y-51125380D01*
X67730571Y-51077761D01*
X67682952Y-51030142D01*
X68682952Y-50220619D02*
X68730571Y-50173000D01*
X68825809Y-50125380D01*
X69063904Y-50125380D01*
X69159142Y-50173000D01*
X69206761Y-50220619D01*
X69254380Y-50315857D01*
X69254380Y-50411095D01*
X69206761Y-50553952D01*
X68635333Y-51125380D01*
X69254380Y-51125380D01*
X70206761Y-51125380D02*
X69635333Y-51125380D01*
X69921047Y-51125380D02*
X69921047Y-50125380D01*
X69825809Y-50268238D01*
X69730571Y-50363476D01*
X69635333Y-50411095D01*
X71063904Y-50125380D02*
X70873428Y-50125380D01*
X70778190Y-50173000D01*
X70730571Y-50220619D01*
X70635333Y-50363476D01*
X70587714Y-50553952D01*
X70587714Y-50934904D01*
X70635333Y-51030142D01*
X70682952Y-51077761D01*
X70778190Y-51125380D01*
X70968666Y-51125380D01*
X71063904Y-51077761D01*
X71111523Y-51030142D01*
X71159142Y-50934904D01*
X71159142Y-50696809D01*
X71111523Y-50601571D01*
X71063904Y-50553952D01*
X70968666Y-50506333D01*
X70778190Y-50506333D01*
X70682952Y-50553952D01*
X70635333Y-50601571D01*
X70587714Y-50696809D01*
%TD*%
M02*
