%TF.GenerationSoftware,KiCad,Pcbnew,(5.1.10)-1*%
%TF.CreationDate,2021-12-27T13:21:28+01:00*%
%TF.ProjectId,LORA_ATTINY_v3,4c4f5241-5f41-4545-9449-4e595f76332e,rev?*%
%TF.SameCoordinates,Original*%
%TF.FileFunction,Other,User*%
%FSLAX46Y46*%
G04 Gerber Fmt 4.6, Leading zero omitted, Abs format (unit mm)*
G04 Created by KiCad (PCBNEW (5.1.10)-1) date 2021-12-27 13:21:28*
%MOMM*%
%LPD*%
G01*
G04 APERTURE LIST*
%ADD10C,0.050000*%
G04 APERTURE END LIST*
D10*
%TO.C,ANT1*%
X86674000Y-70676000D02*
X81474000Y-70676000D01*
X96194000Y-70996000D02*
X96194000Y-78356000D01*
X86674000Y-78676000D02*
X81474000Y-78676000D01*
X81474000Y-78676000D02*
X81474000Y-70676000D01*
X86674000Y-78356000D02*
X86674000Y-78676000D01*
X96194000Y-78356000D02*
X86674000Y-78356000D01*
X86674000Y-70676000D02*
X86674000Y-70996000D01*
X86674000Y-70996000D02*
X96194000Y-70996000D01*
%TO.C,BAT1*%
X62366000Y-49460000D02*
X62366000Y-54460000D01*
X62366000Y-67460000D02*
X62366000Y-72460000D01*
X66866000Y-72460000D02*
X62366000Y-72460000D01*
X66866000Y-75660000D02*
X66866000Y-72460000D01*
X66866000Y-75660000D02*
X68566000Y-75660000D01*
X68566000Y-75660000D02*
X68566000Y-77410000D01*
X68566000Y-77410000D02*
X73166000Y-77410000D01*
X73166000Y-75660000D02*
X73166000Y-77410000D01*
X73166000Y-75660000D02*
X74866000Y-75660000D01*
X74866000Y-75660000D02*
X74866000Y-72460000D01*
X74866000Y-72460000D02*
X79366000Y-72460000D01*
X79366000Y-72460000D02*
X79366000Y-67460000D01*
X79366000Y-49460000D02*
X74866000Y-49460000D01*
X74866000Y-49460000D02*
X74866000Y-46260000D01*
X74866000Y-46260000D02*
X73166000Y-46260000D01*
X73166000Y-46260000D02*
X73166000Y-44510000D01*
X73166000Y-44510000D02*
X68566000Y-44510000D01*
X68566000Y-44510000D02*
X68566000Y-46260000D01*
X68566000Y-46260000D02*
X66866000Y-46260000D01*
X66866000Y-46260000D02*
X66866000Y-49460000D01*
X66866000Y-49460000D02*
X62366000Y-49460000D01*
X79366000Y-49460000D02*
X79366000Y-54460000D01*
X62366000Y-54460001D02*
G75*
G03*
X62366000Y-67460000I8500000J-6499999D01*
G01*
X79366000Y-67459999D02*
G75*
G03*
X79366000Y-54460000I-8500000J6499999D01*
G01*
%TD*%
M02*
