%TF.GenerationSoftware,KiCad,Pcbnew,(5.1.10)-1*%
%TF.CreationDate,2021-12-27T13:21:27+01:00*%
%TF.ProjectId,LORA_ATTINY_v3,4c4f5241-5f41-4545-9449-4e595f76332e,rev?*%
%TF.SameCoordinates,Original*%
%TF.FileFunction,Paste,Top*%
%TF.FilePolarity,Positive*%
%FSLAX46Y46*%
G04 Gerber Fmt 4.6, Leading zero omitted, Abs format (unit mm)*
G04 Created by KiCad (PCBNEW (5.1.10)-1) date 2021-12-27 13:21:27*
%MOMM*%
%LPD*%
G01*
G04 APERTURE LIST*
%ADD10C,0.100000*%
%ADD11O,2.000000X1.000000*%
G04 APERTURE END LIST*
D10*
%TO.C,ANT1*%
G36*
X83973800Y-75728280D02*
G01*
X83973800Y-76828280D01*
X86173800Y-76828280D01*
X86173800Y-78178280D01*
X81973800Y-78178280D01*
X81973800Y-75728280D01*
X83973800Y-75728280D01*
G37*
G36*
X86173800Y-71176600D02*
G01*
X86173800Y-72526600D01*
X83973800Y-72526600D01*
X83973800Y-73626600D01*
X81973800Y-73626600D01*
X81973800Y-71176600D01*
X86173800Y-71176600D01*
G37*
%TD*%
%TO.C,C1*%
G36*
G01*
X73721000Y-57292003D02*
X73721000Y-55991997D01*
G75*
G02*
X73970997Y-55742000I249997J0D01*
G01*
X74796003Y-55742000D01*
G75*
G02*
X75046000Y-55991997I0J-249997D01*
G01*
X75046000Y-57292003D01*
G75*
G02*
X74796003Y-57542000I-249997J0D01*
G01*
X73970997Y-57542000D01*
G75*
G02*
X73721000Y-57292003I0J249997D01*
G01*
G37*
G36*
G01*
X76846000Y-57292003D02*
X76846000Y-55991997D01*
G75*
G02*
X77095997Y-55742000I249997J0D01*
G01*
X77921003Y-55742000D01*
G75*
G02*
X78171000Y-55991997I0J-249997D01*
G01*
X78171000Y-57292003D01*
G75*
G02*
X77921003Y-57542000I-249997J0D01*
G01*
X77095997Y-57542000D01*
G75*
G02*
X76846000Y-57292003I0J249997D01*
G01*
G37*
%TD*%
%TO.C,C2*%
G36*
G01*
X84466000Y-68976003D02*
X84466000Y-67675997D01*
G75*
G02*
X84715997Y-67426000I249997J0D01*
G01*
X85541003Y-67426000D01*
G75*
G02*
X85791000Y-67675997I0J-249997D01*
G01*
X85791000Y-68976003D01*
G75*
G02*
X85541003Y-69226000I-249997J0D01*
G01*
X84715997Y-69226000D01*
G75*
G02*
X84466000Y-68976003I0J249997D01*
G01*
G37*
G36*
G01*
X81341000Y-68976003D02*
X81341000Y-67675997D01*
G75*
G02*
X81590997Y-67426000I249997J0D01*
G01*
X82416003Y-67426000D01*
G75*
G02*
X82666000Y-67675997I0J-249997D01*
G01*
X82666000Y-68976003D01*
G75*
G02*
X82416003Y-69226000I-249997J0D01*
G01*
X81590997Y-69226000D01*
G75*
G02*
X81341000Y-68976003I0J249997D01*
G01*
G37*
%TD*%
%TO.C,D1*%
G36*
G01*
X77638000Y-58557000D02*
X77638000Y-59807000D01*
G75*
G02*
X77388000Y-60057000I-250000J0D01*
G01*
X76463000Y-60057000D01*
G75*
G02*
X76213000Y-59807000I0J250000D01*
G01*
X76213000Y-58557000D01*
G75*
G02*
X76463000Y-58307000I250000J0D01*
G01*
X77388000Y-58307000D01*
G75*
G02*
X77638000Y-58557000I0J-250000D01*
G01*
G37*
G36*
G01*
X74663000Y-58557000D02*
X74663000Y-59807000D01*
G75*
G02*
X74413000Y-60057000I-250000J0D01*
G01*
X73488000Y-60057000D01*
G75*
G02*
X73238000Y-59807000I0J250000D01*
G01*
X73238000Y-58557000D01*
G75*
G02*
X73488000Y-58307000I250000J0D01*
G01*
X74413000Y-58307000D01*
G75*
G02*
X74663000Y-58557000I0J-250000D01*
G01*
G37*
%TD*%
%TO.C,R1*%
G36*
G01*
X69204000Y-58556999D02*
X69204000Y-59807001D01*
G75*
G02*
X68954001Y-60057000I-249999J0D01*
G01*
X68153999Y-60057000D01*
G75*
G02*
X67904000Y-59807001I0J249999D01*
G01*
X67904000Y-58556999D01*
G75*
G02*
X68153999Y-58307000I249999J0D01*
G01*
X68954001Y-58307000D01*
G75*
G02*
X69204000Y-58556999I0J-249999D01*
G01*
G37*
G36*
G01*
X72304000Y-58556999D02*
X72304000Y-59807001D01*
G75*
G02*
X72054001Y-60057000I-249999J0D01*
G01*
X71253999Y-60057000D01*
G75*
G02*
X71004000Y-59807001I0J249999D01*
G01*
X71004000Y-58556999D01*
G75*
G02*
X71253999Y-58307000I249999J0D01*
G01*
X72054001Y-58307000D01*
G75*
G02*
X72304000Y-58556999I0J-249999D01*
G01*
G37*
%TD*%
%TO.C,R2*%
G36*
G01*
X58048999Y-69428000D02*
X59299001Y-69428000D01*
G75*
G02*
X59549000Y-69677999I0J-249999D01*
G01*
X59549000Y-70478001D01*
G75*
G02*
X59299001Y-70728000I-249999J0D01*
G01*
X58048999Y-70728000D01*
G75*
G02*
X57799000Y-70478001I0J249999D01*
G01*
X57799000Y-69677999D01*
G75*
G02*
X58048999Y-69428000I249999J0D01*
G01*
G37*
G36*
G01*
X58048999Y-72528000D02*
X59299001Y-72528000D01*
G75*
G02*
X59549000Y-72777999I0J-249999D01*
G01*
X59549000Y-73578001D01*
G75*
G02*
X59299001Y-73828000I-249999J0D01*
G01*
X58048999Y-73828000D01*
G75*
G02*
X57799000Y-73578001I0J249999D01*
G01*
X57799000Y-72777999D01*
G75*
G02*
X58048999Y-72528000I249999J0D01*
G01*
G37*
%TD*%
D11*
%TO.C,RFM95*%
X62484000Y-62230000D03*
X62484000Y-64230000D03*
X62484000Y-66230000D03*
X62484000Y-68230000D03*
X62484000Y-70230000D03*
X62484000Y-72230000D03*
X62484000Y-74230000D03*
X62484000Y-76230000D03*
X78484000Y-76230000D03*
X78484000Y-74230000D03*
X78484000Y-72230000D03*
X78484000Y-70230000D03*
X78484000Y-68230000D03*
X78484000Y-66230000D03*
X78484000Y-64230000D03*
X78484000Y-62230000D03*
%TD*%
%TO.C,ATTiny 3216*%
G36*
G01*
X72477000Y-56238000D02*
X72477000Y-56538000D01*
G75*
G02*
X72327000Y-56688000I-150000J0D01*
G01*
X70577000Y-56688000D01*
G75*
G02*
X70427000Y-56538000I0J150000D01*
G01*
X70427000Y-56238000D01*
G75*
G02*
X70577000Y-56088000I150000J0D01*
G01*
X72327000Y-56088000D01*
G75*
G02*
X72477000Y-56238000I0J-150000D01*
G01*
G37*
G36*
G01*
X72477000Y-54968000D02*
X72477000Y-55268000D01*
G75*
G02*
X72327000Y-55418000I-150000J0D01*
G01*
X70577000Y-55418000D01*
G75*
G02*
X70427000Y-55268000I0J150000D01*
G01*
X70427000Y-54968000D01*
G75*
G02*
X70577000Y-54818000I150000J0D01*
G01*
X72327000Y-54818000D01*
G75*
G02*
X72477000Y-54968000I0J-150000D01*
G01*
G37*
G36*
G01*
X72477000Y-53698000D02*
X72477000Y-53998000D01*
G75*
G02*
X72327000Y-54148000I-150000J0D01*
G01*
X70577000Y-54148000D01*
G75*
G02*
X70427000Y-53998000I0J150000D01*
G01*
X70427000Y-53698000D01*
G75*
G02*
X70577000Y-53548000I150000J0D01*
G01*
X72327000Y-53548000D01*
G75*
G02*
X72477000Y-53698000I0J-150000D01*
G01*
G37*
G36*
G01*
X72477000Y-52428000D02*
X72477000Y-52728000D01*
G75*
G02*
X72327000Y-52878000I-150000J0D01*
G01*
X70577000Y-52878000D01*
G75*
G02*
X70427000Y-52728000I0J150000D01*
G01*
X70427000Y-52428000D01*
G75*
G02*
X70577000Y-52278000I150000J0D01*
G01*
X72327000Y-52278000D01*
G75*
G02*
X72477000Y-52428000I0J-150000D01*
G01*
G37*
G36*
G01*
X72477000Y-51158000D02*
X72477000Y-51458000D01*
G75*
G02*
X72327000Y-51608000I-150000J0D01*
G01*
X70577000Y-51608000D01*
G75*
G02*
X70427000Y-51458000I0J150000D01*
G01*
X70427000Y-51158000D01*
G75*
G02*
X70577000Y-51008000I150000J0D01*
G01*
X72327000Y-51008000D01*
G75*
G02*
X72477000Y-51158000I0J-150000D01*
G01*
G37*
G36*
G01*
X72477000Y-49888000D02*
X72477000Y-50188000D01*
G75*
G02*
X72327000Y-50338000I-150000J0D01*
G01*
X70577000Y-50338000D01*
G75*
G02*
X70427000Y-50188000I0J150000D01*
G01*
X70427000Y-49888000D01*
G75*
G02*
X70577000Y-49738000I150000J0D01*
G01*
X72327000Y-49738000D01*
G75*
G02*
X72477000Y-49888000I0J-150000D01*
G01*
G37*
G36*
G01*
X72477000Y-48618000D02*
X72477000Y-48918000D01*
G75*
G02*
X72327000Y-49068000I-150000J0D01*
G01*
X70577000Y-49068000D01*
G75*
G02*
X70427000Y-48918000I0J150000D01*
G01*
X70427000Y-48618000D01*
G75*
G02*
X70577000Y-48468000I150000J0D01*
G01*
X72327000Y-48468000D01*
G75*
G02*
X72477000Y-48618000I0J-150000D01*
G01*
G37*
G36*
G01*
X72477000Y-47348000D02*
X72477000Y-47648000D01*
G75*
G02*
X72327000Y-47798000I-150000J0D01*
G01*
X70577000Y-47798000D01*
G75*
G02*
X70427000Y-47648000I0J150000D01*
G01*
X70427000Y-47348000D01*
G75*
G02*
X70577000Y-47198000I150000J0D01*
G01*
X72327000Y-47198000D01*
G75*
G02*
X72477000Y-47348000I0J-150000D01*
G01*
G37*
G36*
G01*
X72477000Y-46078000D02*
X72477000Y-46378000D01*
G75*
G02*
X72327000Y-46528000I-150000J0D01*
G01*
X70577000Y-46528000D01*
G75*
G02*
X70427000Y-46378000I0J150000D01*
G01*
X70427000Y-46078000D01*
G75*
G02*
X70577000Y-45928000I150000J0D01*
G01*
X72327000Y-45928000D01*
G75*
G02*
X72477000Y-46078000I0J-150000D01*
G01*
G37*
G36*
G01*
X72477000Y-44808000D02*
X72477000Y-45108000D01*
G75*
G02*
X72327000Y-45258000I-150000J0D01*
G01*
X70577000Y-45258000D01*
G75*
G02*
X70427000Y-45108000I0J150000D01*
G01*
X70427000Y-44808000D01*
G75*
G02*
X70577000Y-44658000I150000J0D01*
G01*
X72327000Y-44658000D01*
G75*
G02*
X72477000Y-44808000I0J-150000D01*
G01*
G37*
G36*
G01*
X63177000Y-44808000D02*
X63177000Y-45108000D01*
G75*
G02*
X63027000Y-45258000I-150000J0D01*
G01*
X61277000Y-45258000D01*
G75*
G02*
X61127000Y-45108000I0J150000D01*
G01*
X61127000Y-44808000D01*
G75*
G02*
X61277000Y-44658000I150000J0D01*
G01*
X63027000Y-44658000D01*
G75*
G02*
X63177000Y-44808000I0J-150000D01*
G01*
G37*
G36*
G01*
X63177000Y-46078000D02*
X63177000Y-46378000D01*
G75*
G02*
X63027000Y-46528000I-150000J0D01*
G01*
X61277000Y-46528000D01*
G75*
G02*
X61127000Y-46378000I0J150000D01*
G01*
X61127000Y-46078000D01*
G75*
G02*
X61277000Y-45928000I150000J0D01*
G01*
X63027000Y-45928000D01*
G75*
G02*
X63177000Y-46078000I0J-150000D01*
G01*
G37*
G36*
G01*
X63177000Y-47348000D02*
X63177000Y-47648000D01*
G75*
G02*
X63027000Y-47798000I-150000J0D01*
G01*
X61277000Y-47798000D01*
G75*
G02*
X61127000Y-47648000I0J150000D01*
G01*
X61127000Y-47348000D01*
G75*
G02*
X61277000Y-47198000I150000J0D01*
G01*
X63027000Y-47198000D01*
G75*
G02*
X63177000Y-47348000I0J-150000D01*
G01*
G37*
G36*
G01*
X63177000Y-48618000D02*
X63177000Y-48918000D01*
G75*
G02*
X63027000Y-49068000I-150000J0D01*
G01*
X61277000Y-49068000D01*
G75*
G02*
X61127000Y-48918000I0J150000D01*
G01*
X61127000Y-48618000D01*
G75*
G02*
X61277000Y-48468000I150000J0D01*
G01*
X63027000Y-48468000D01*
G75*
G02*
X63177000Y-48618000I0J-150000D01*
G01*
G37*
G36*
G01*
X63177000Y-49888000D02*
X63177000Y-50188000D01*
G75*
G02*
X63027000Y-50338000I-150000J0D01*
G01*
X61277000Y-50338000D01*
G75*
G02*
X61127000Y-50188000I0J150000D01*
G01*
X61127000Y-49888000D01*
G75*
G02*
X61277000Y-49738000I150000J0D01*
G01*
X63027000Y-49738000D01*
G75*
G02*
X63177000Y-49888000I0J-150000D01*
G01*
G37*
G36*
G01*
X63177000Y-51158000D02*
X63177000Y-51458000D01*
G75*
G02*
X63027000Y-51608000I-150000J0D01*
G01*
X61277000Y-51608000D01*
G75*
G02*
X61127000Y-51458000I0J150000D01*
G01*
X61127000Y-51158000D01*
G75*
G02*
X61277000Y-51008000I150000J0D01*
G01*
X63027000Y-51008000D01*
G75*
G02*
X63177000Y-51158000I0J-150000D01*
G01*
G37*
G36*
G01*
X63177000Y-52428000D02*
X63177000Y-52728000D01*
G75*
G02*
X63027000Y-52878000I-150000J0D01*
G01*
X61277000Y-52878000D01*
G75*
G02*
X61127000Y-52728000I0J150000D01*
G01*
X61127000Y-52428000D01*
G75*
G02*
X61277000Y-52278000I150000J0D01*
G01*
X63027000Y-52278000D01*
G75*
G02*
X63177000Y-52428000I0J-150000D01*
G01*
G37*
G36*
G01*
X63177000Y-53698000D02*
X63177000Y-53998000D01*
G75*
G02*
X63027000Y-54148000I-150000J0D01*
G01*
X61277000Y-54148000D01*
G75*
G02*
X61127000Y-53998000I0J150000D01*
G01*
X61127000Y-53698000D01*
G75*
G02*
X61277000Y-53548000I150000J0D01*
G01*
X63027000Y-53548000D01*
G75*
G02*
X63177000Y-53698000I0J-150000D01*
G01*
G37*
G36*
G01*
X63177000Y-54968000D02*
X63177000Y-55268000D01*
G75*
G02*
X63027000Y-55418000I-150000J0D01*
G01*
X61277000Y-55418000D01*
G75*
G02*
X61127000Y-55268000I0J150000D01*
G01*
X61127000Y-54968000D01*
G75*
G02*
X61277000Y-54818000I150000J0D01*
G01*
X63027000Y-54818000D01*
G75*
G02*
X63177000Y-54968000I0J-150000D01*
G01*
G37*
G36*
G01*
X63177000Y-56238000D02*
X63177000Y-56538000D01*
G75*
G02*
X63027000Y-56688000I-150000J0D01*
G01*
X61277000Y-56688000D01*
G75*
G02*
X61127000Y-56538000I0J150000D01*
G01*
X61127000Y-56238000D01*
G75*
G02*
X61277000Y-56088000I150000J0D01*
G01*
X63027000Y-56088000D01*
G75*
G02*
X63177000Y-56238000I0J-150000D01*
G01*
G37*
%TD*%
M02*
