%TF.GenerationSoftware,KiCad,Pcbnew,(5.1.10)-1*%
%TF.CreationDate,2021-12-27T13:21:27+01:00*%
%TF.ProjectId,LORA_ATTINY_v3,4c4f5241-5f41-4545-9449-4e595f76332e,rev?*%
%TF.SameCoordinates,Original*%
%TF.FileFunction,Legend,Top*%
%TF.FilePolarity,Positive*%
%FSLAX46Y46*%
G04 Gerber Fmt 4.6, Leading zero omitted, Abs format (unit mm)*
G04 Created by KiCad (PCBNEW (5.1.10)-1) date 2021-12-27 13:21:27*
%MOMM*%
%LPD*%
G01*
G04 APERTURE LIST*
%ADD10C,0.150000*%
%ADD11C,0.250000*%
%ADD12C,0.100000*%
%ADD13C,0.010000*%
%ADD14C,0.120000*%
%ADD15C,0.200000*%
G04 APERTURE END LIST*
D10*
X56808666Y-74739142D02*
X56808666Y-74262952D01*
X57094380Y-74834380D02*
X56094380Y-74501047D01*
X57094380Y-74167714D01*
X56094380Y-73977238D02*
X56094380Y-73405809D01*
X57094380Y-73691523D02*
X56094380Y-73691523D01*
X56094380Y-73215333D02*
X56094380Y-72643904D01*
X57094380Y-72929619D02*
X56094380Y-72929619D01*
X57094380Y-72310571D02*
X56094380Y-72310571D01*
X57094380Y-71739142D01*
X56094380Y-71739142D01*
X57094380Y-71120095D02*
X57046761Y-71215333D01*
X56999142Y-71262952D01*
X56903904Y-71310571D01*
X56618190Y-71310571D01*
X56522952Y-71262952D01*
X56475333Y-71215333D01*
X56427714Y-71120095D01*
X56427714Y-70977238D01*
X56475333Y-70882000D01*
X56522952Y-70834380D01*
X56618190Y-70786761D01*
X56903904Y-70786761D01*
X56999142Y-70834380D01*
X57046761Y-70882000D01*
X57094380Y-70977238D01*
X57094380Y-71120095D01*
X57094380Y-69929619D02*
X56094380Y-69929619D01*
X57046761Y-69929619D02*
X57094380Y-70024857D01*
X57094380Y-70215333D01*
X57046761Y-70310571D01*
X56999142Y-70358190D01*
X56903904Y-70405809D01*
X56618190Y-70405809D01*
X56522952Y-70358190D01*
X56475333Y-70310571D01*
X56427714Y-70215333D01*
X56427714Y-70024857D01*
X56475333Y-69929619D01*
X57046761Y-69072476D02*
X57094380Y-69167714D01*
X57094380Y-69358190D01*
X57046761Y-69453428D01*
X56951523Y-69501047D01*
X56570571Y-69501047D01*
X56475333Y-69453428D01*
X56427714Y-69358190D01*
X56427714Y-69167714D01*
X56475333Y-69072476D01*
X56570571Y-69024857D01*
X56665809Y-69024857D01*
X56761047Y-69501047D01*
X64730380Y-75485047D02*
X65444666Y-75485047D01*
X65587523Y-75532666D01*
X65682761Y-75627904D01*
X65730380Y-75770761D01*
X65730380Y-75866000D01*
X65730380Y-74532666D02*
X65730380Y-75008857D01*
X64730380Y-75008857D01*
X65635142Y-73627904D02*
X65682761Y-73675523D01*
X65730380Y-73818380D01*
X65730380Y-73913619D01*
X65682761Y-74056476D01*
X65587523Y-74151714D01*
X65492285Y-74199333D01*
X65301809Y-74246952D01*
X65158952Y-74246952D01*
X64968476Y-74199333D01*
X64873238Y-74151714D01*
X64778000Y-74056476D01*
X64730380Y-73913619D01*
X64730380Y-73818380D01*
X64778000Y-73675523D01*
X64825619Y-73627904D01*
X64730380Y-72913619D02*
X65444666Y-72913619D01*
X65587523Y-72961238D01*
X65682761Y-73056476D01*
X65730380Y-73199333D01*
X65730380Y-73294571D01*
X65730380Y-71961238D02*
X65730380Y-72437428D01*
X64730380Y-72437428D01*
X65635142Y-71056476D02*
X65682761Y-71104095D01*
X65730380Y-71246952D01*
X65730380Y-71342190D01*
X65682761Y-71485047D01*
X65587523Y-71580285D01*
X65492285Y-71627904D01*
X65301809Y-71675523D01*
X65158952Y-71675523D01*
X64968476Y-71627904D01*
X64873238Y-71580285D01*
X64778000Y-71485047D01*
X64730380Y-71342190D01*
X64730380Y-71246952D01*
X64778000Y-71104095D01*
X64825619Y-71056476D01*
X64730380Y-70342190D02*
X65444666Y-70342190D01*
X65587523Y-70389809D01*
X65682761Y-70485047D01*
X65730380Y-70627904D01*
X65730380Y-70723142D01*
X65730380Y-69389809D02*
X65730380Y-69866000D01*
X64730380Y-69866000D01*
X65635142Y-68485047D02*
X65682761Y-68532666D01*
X65730380Y-68675523D01*
X65730380Y-68770761D01*
X65682761Y-68913619D01*
X65587523Y-69008857D01*
X65492285Y-69056476D01*
X65301809Y-69104095D01*
X65158952Y-69104095D01*
X64968476Y-69056476D01*
X64873238Y-69008857D01*
X64778000Y-68913619D01*
X64730380Y-68770761D01*
X64730380Y-68675523D01*
X64778000Y-68532666D01*
X64825619Y-68485047D01*
X64730380Y-67770761D02*
X65444666Y-67770761D01*
X65587523Y-67818380D01*
X65682761Y-67913619D01*
X65730380Y-68056476D01*
X65730380Y-68151714D01*
X65730380Y-66818380D02*
X65730380Y-67294571D01*
X64730380Y-67294571D01*
X65635142Y-65913619D02*
X65682761Y-65961238D01*
X65730380Y-66104095D01*
X65730380Y-66199333D01*
X65682761Y-66342190D01*
X65587523Y-66437428D01*
X65492285Y-66485047D01*
X65301809Y-66532666D01*
X65158952Y-66532666D01*
X64968476Y-66485047D01*
X64873238Y-66437428D01*
X64778000Y-66342190D01*
X64730380Y-66199333D01*
X64730380Y-66104095D01*
X64778000Y-65961238D01*
X64825619Y-65913619D01*
D11*
X69596000Y-56364142D02*
X69643619Y-56411761D01*
X69596000Y-56459380D01*
X69548380Y-56411761D01*
X69596000Y-56364142D01*
X69596000Y-56459380D01*
D12*
X56854285Y-64304761D02*
X56104285Y-64304761D01*
X56104285Y-64057142D01*
X56140000Y-63995238D01*
X56175714Y-63964285D01*
X56247142Y-63933333D01*
X56354285Y-63933333D01*
X56425714Y-63964285D01*
X56461428Y-63995238D01*
X56497142Y-64057142D01*
X56497142Y-64304761D01*
X56782857Y-63283333D02*
X56818571Y-63314285D01*
X56854285Y-63407142D01*
X56854285Y-63469047D01*
X56818571Y-63561904D01*
X56747142Y-63623809D01*
X56675714Y-63654761D01*
X56532857Y-63685714D01*
X56425714Y-63685714D01*
X56282857Y-63654761D01*
X56211428Y-63623809D01*
X56140000Y-63561904D01*
X56104285Y-63469047D01*
X56104285Y-63407142D01*
X56140000Y-63314285D01*
X56175714Y-63283333D01*
X56104285Y-63066666D02*
X56104285Y-62664285D01*
X56390000Y-62880952D01*
X56390000Y-62788095D01*
X56425714Y-62726190D01*
X56461428Y-62695238D01*
X56532857Y-62664285D01*
X56711428Y-62664285D01*
X56782857Y-62695238D01*
X56818571Y-62726190D01*
X56854285Y-62788095D01*
X56854285Y-62973809D01*
X56818571Y-63035714D01*
X56782857Y-63066666D01*
X56854285Y-61764761D02*
X56104285Y-61764761D01*
X56104285Y-61517142D01*
X56140000Y-61455238D01*
X56175714Y-61424285D01*
X56247142Y-61393333D01*
X56354285Y-61393333D01*
X56425714Y-61424285D01*
X56461428Y-61455238D01*
X56497142Y-61517142D01*
X56497142Y-61764761D01*
X56782857Y-60743333D02*
X56818571Y-60774285D01*
X56854285Y-60867142D01*
X56854285Y-60929047D01*
X56818571Y-61021904D01*
X56747142Y-61083809D01*
X56675714Y-61114761D01*
X56532857Y-61145714D01*
X56425714Y-61145714D01*
X56282857Y-61114761D01*
X56211428Y-61083809D01*
X56140000Y-61021904D01*
X56104285Y-60929047D01*
X56104285Y-60867142D01*
X56140000Y-60774285D01*
X56175714Y-60743333D01*
X56175714Y-60495714D02*
X56140000Y-60464761D01*
X56104285Y-60402857D01*
X56104285Y-60248095D01*
X56140000Y-60186190D01*
X56175714Y-60155238D01*
X56247142Y-60124285D01*
X56318571Y-60124285D01*
X56425714Y-60155238D01*
X56854285Y-60526666D01*
X56854285Y-60124285D01*
X56854285Y-59224761D02*
X56104285Y-59224761D01*
X56104285Y-58977142D01*
X56140000Y-58915238D01*
X56175714Y-58884285D01*
X56247142Y-58853333D01*
X56354285Y-58853333D01*
X56425714Y-58884285D01*
X56461428Y-58915238D01*
X56497142Y-58977142D01*
X56497142Y-59224761D01*
X56782857Y-58203333D02*
X56818571Y-58234285D01*
X56854285Y-58327142D01*
X56854285Y-58389047D01*
X56818571Y-58481904D01*
X56747142Y-58543809D01*
X56675714Y-58574761D01*
X56532857Y-58605714D01*
X56425714Y-58605714D01*
X56282857Y-58574761D01*
X56211428Y-58543809D01*
X56140000Y-58481904D01*
X56104285Y-58389047D01*
X56104285Y-58327142D01*
X56140000Y-58234285D01*
X56175714Y-58203333D01*
X56854285Y-57584285D02*
X56854285Y-57955714D01*
X56854285Y-57770000D02*
X56104285Y-57770000D01*
X56211428Y-57831904D01*
X56282857Y-57893809D01*
X56318571Y-57955714D01*
X56854285Y-56684761D02*
X56104285Y-56684761D01*
X56104285Y-56437142D01*
X56140000Y-56375238D01*
X56175714Y-56344285D01*
X56247142Y-56313333D01*
X56354285Y-56313333D01*
X56425714Y-56344285D01*
X56461428Y-56375238D01*
X56497142Y-56437142D01*
X56497142Y-56684761D01*
X56782857Y-55663333D02*
X56818571Y-55694285D01*
X56854285Y-55787142D01*
X56854285Y-55849047D01*
X56818571Y-55941904D01*
X56747142Y-56003809D01*
X56675714Y-56034761D01*
X56532857Y-56065714D01*
X56425714Y-56065714D01*
X56282857Y-56034761D01*
X56211428Y-56003809D01*
X56140000Y-55941904D01*
X56104285Y-55849047D01*
X56104285Y-55787142D01*
X56140000Y-55694285D01*
X56175714Y-55663333D01*
X56104285Y-55260952D02*
X56104285Y-55199047D01*
X56140000Y-55137142D01*
X56175714Y-55106190D01*
X56247142Y-55075238D01*
X56390000Y-55044285D01*
X56568571Y-55044285D01*
X56711428Y-55075238D01*
X56782857Y-55106190D01*
X56818571Y-55137142D01*
X56854285Y-55199047D01*
X56854285Y-55260952D01*
X56818571Y-55322857D01*
X56782857Y-55353809D01*
X56711428Y-55384761D01*
X56568571Y-55415714D01*
X56390000Y-55415714D01*
X56247142Y-55384761D01*
X56175714Y-55353809D01*
X56140000Y-55322857D01*
X56104285Y-55260952D01*
X56818571Y-54129285D02*
X56854285Y-54036428D01*
X56854285Y-53881666D01*
X56818571Y-53819761D01*
X56782857Y-53788809D01*
X56711428Y-53757857D01*
X56640000Y-53757857D01*
X56568571Y-53788809D01*
X56532857Y-53819761D01*
X56497142Y-53881666D01*
X56461428Y-54005476D01*
X56425714Y-54067380D01*
X56390000Y-54098333D01*
X56318571Y-54129285D01*
X56247142Y-54129285D01*
X56175714Y-54098333D01*
X56140000Y-54067380D01*
X56104285Y-54005476D01*
X56104285Y-53850714D01*
X56140000Y-53757857D01*
X56854285Y-53479285D02*
X56104285Y-53479285D01*
X56104285Y-53324523D01*
X56140000Y-53231666D01*
X56211428Y-53169761D01*
X56282857Y-53138809D01*
X56425714Y-53107857D01*
X56532857Y-53107857D01*
X56675714Y-53138809D01*
X56747142Y-53169761D01*
X56818571Y-53231666D01*
X56854285Y-53324523D01*
X56854285Y-53479285D01*
X56640000Y-52860238D02*
X56640000Y-52550714D01*
X56854285Y-52922142D02*
X56104285Y-52705476D01*
X56854285Y-52488809D01*
X56818571Y-51573809D02*
X56854285Y-51480952D01*
X56854285Y-51326190D01*
X56818571Y-51264285D01*
X56782857Y-51233333D01*
X56711428Y-51202380D01*
X56640000Y-51202380D01*
X56568571Y-51233333D01*
X56532857Y-51264285D01*
X56497142Y-51326190D01*
X56461428Y-51450000D01*
X56425714Y-51511904D01*
X56390000Y-51542857D01*
X56318571Y-51573809D01*
X56247142Y-51573809D01*
X56175714Y-51542857D01*
X56140000Y-51511904D01*
X56104285Y-51450000D01*
X56104285Y-51295238D01*
X56140000Y-51202380D01*
X56782857Y-50552380D02*
X56818571Y-50583333D01*
X56854285Y-50676190D01*
X56854285Y-50738095D01*
X56818571Y-50830952D01*
X56747142Y-50892857D01*
X56675714Y-50923809D01*
X56532857Y-50954761D01*
X56425714Y-50954761D01*
X56282857Y-50923809D01*
X56211428Y-50892857D01*
X56140000Y-50830952D01*
X56104285Y-50738095D01*
X56104285Y-50676190D01*
X56140000Y-50583333D01*
X56175714Y-50552380D01*
X56854285Y-49964285D02*
X56854285Y-50273809D01*
X56104285Y-50273809D01*
X56140000Y-48755238D02*
X56104285Y-48817142D01*
X56104285Y-48910000D01*
X56140000Y-49002857D01*
X56211428Y-49064761D01*
X56282857Y-49095714D01*
X56425714Y-49126666D01*
X56532857Y-49126666D01*
X56675714Y-49095714D01*
X56747142Y-49064761D01*
X56818571Y-49002857D01*
X56854285Y-48910000D01*
X56854285Y-48848095D01*
X56818571Y-48755238D01*
X56782857Y-48724285D01*
X56532857Y-48724285D01*
X56532857Y-48848095D01*
X56854285Y-48445714D02*
X56104285Y-48445714D01*
X56854285Y-48074285D01*
X56104285Y-48074285D01*
X56854285Y-47764761D02*
X56104285Y-47764761D01*
X56104285Y-47610000D01*
X56140000Y-47517142D01*
X56211428Y-47455238D01*
X56282857Y-47424285D01*
X56425714Y-47393333D01*
X56532857Y-47393333D01*
X56675714Y-47424285D01*
X56747142Y-47455238D01*
X56818571Y-47517142D01*
X56854285Y-47610000D01*
X56854285Y-47764761D01*
X56104285Y-46385476D02*
X56854285Y-46168809D01*
X56104285Y-45952142D01*
X56854285Y-45735476D02*
X56354285Y-45735476D01*
X56104285Y-45735476D02*
X56140000Y-45766428D01*
X56175714Y-45735476D01*
X56140000Y-45704523D01*
X56104285Y-45735476D01*
X56175714Y-45735476D01*
X56354285Y-45425952D02*
X56854285Y-45425952D01*
X56425714Y-45425952D02*
X56390000Y-45395000D01*
X56354285Y-45333095D01*
X56354285Y-45240238D01*
X56390000Y-45178333D01*
X56461428Y-45147380D01*
X56854285Y-45147380D01*
X85314285Y-46493809D02*
X85314285Y-46122380D01*
X86064285Y-46308095D02*
X85314285Y-46308095D01*
X86064285Y-45967619D02*
X85564285Y-45627142D01*
X85564285Y-45967619D02*
X86064285Y-45627142D01*
X86064285Y-45379523D02*
X85314285Y-45379523D01*
X85314285Y-45224761D01*
X85350000Y-45131904D01*
X85421428Y-45070000D01*
X85492857Y-45039047D01*
X85635714Y-45008095D01*
X85742857Y-45008095D01*
X85885714Y-45039047D01*
X85957142Y-45070000D01*
X86028571Y-45131904D01*
X86064285Y-45224761D01*
X86064285Y-45379523D01*
X86064285Y-48646904D02*
X85707142Y-48863571D01*
X86064285Y-49018333D02*
X85314285Y-49018333D01*
X85314285Y-48770714D01*
X85350000Y-48708809D01*
X85385714Y-48677857D01*
X85457142Y-48646904D01*
X85564285Y-48646904D01*
X85635714Y-48677857D01*
X85671428Y-48708809D01*
X85707142Y-48770714D01*
X85707142Y-49018333D01*
X86064285Y-48430238D02*
X85564285Y-48089761D01*
X85564285Y-48430238D02*
X86064285Y-48089761D01*
X86064285Y-47842142D02*
X85314285Y-47842142D01*
X85314285Y-47687380D01*
X85350000Y-47594523D01*
X85421428Y-47532619D01*
X85492857Y-47501666D01*
X85635714Y-47470714D01*
X85742857Y-47470714D01*
X85885714Y-47501666D01*
X85957142Y-47532619D01*
X86028571Y-47594523D01*
X86064285Y-47687380D01*
X86064285Y-47842142D01*
X86064285Y-51604761D02*
X85314285Y-51604761D01*
X85314285Y-51357142D01*
X85350000Y-51295238D01*
X85385714Y-51264285D01*
X85457142Y-51233333D01*
X85564285Y-51233333D01*
X85635714Y-51264285D01*
X85671428Y-51295238D01*
X85707142Y-51357142D01*
X85707142Y-51604761D01*
X85671428Y-50738095D02*
X85707142Y-50645238D01*
X85742857Y-50614285D01*
X85814285Y-50583333D01*
X85921428Y-50583333D01*
X85992857Y-50614285D01*
X86028571Y-50645238D01*
X86064285Y-50707142D01*
X86064285Y-50954761D01*
X85314285Y-50954761D01*
X85314285Y-50738095D01*
X85350000Y-50676190D01*
X85385714Y-50645238D01*
X85457142Y-50614285D01*
X85528571Y-50614285D01*
X85600000Y-50645238D01*
X85635714Y-50676190D01*
X85671428Y-50738095D01*
X85671428Y-50954761D01*
X85564285Y-50026190D02*
X86064285Y-50026190D01*
X85278571Y-50180952D02*
X85814285Y-50335714D01*
X85814285Y-49933333D01*
X86064285Y-54144761D02*
X85314285Y-54144761D01*
X85314285Y-53897142D01*
X85350000Y-53835238D01*
X85385714Y-53804285D01*
X85457142Y-53773333D01*
X85564285Y-53773333D01*
X85635714Y-53804285D01*
X85671428Y-53835238D01*
X85707142Y-53897142D01*
X85707142Y-54144761D01*
X85671428Y-53278095D02*
X85707142Y-53185238D01*
X85742857Y-53154285D01*
X85814285Y-53123333D01*
X85921428Y-53123333D01*
X85992857Y-53154285D01*
X86028571Y-53185238D01*
X86064285Y-53247142D01*
X86064285Y-53494761D01*
X85314285Y-53494761D01*
X85314285Y-53278095D01*
X85350000Y-53216190D01*
X85385714Y-53185238D01*
X85457142Y-53154285D01*
X85528571Y-53154285D01*
X85600000Y-53185238D01*
X85635714Y-53216190D01*
X85671428Y-53278095D01*
X85671428Y-53494761D01*
X85314285Y-52535238D02*
X85314285Y-52844761D01*
X85671428Y-52875714D01*
X85635714Y-52844761D01*
X85600000Y-52782857D01*
X85600000Y-52628095D01*
X85635714Y-52566190D01*
X85671428Y-52535238D01*
X85742857Y-52504285D01*
X85921428Y-52504285D01*
X85992857Y-52535238D01*
X86028571Y-52566190D01*
X86064285Y-52628095D01*
X86064285Y-52782857D01*
X86028571Y-52844761D01*
X85992857Y-52875714D01*
X86064285Y-56638333D02*
X85314285Y-56638333D01*
X85314285Y-56390714D01*
X85350000Y-56328809D01*
X85385714Y-56297857D01*
X85457142Y-56266904D01*
X85564285Y-56266904D01*
X85635714Y-56297857D01*
X85671428Y-56328809D01*
X85707142Y-56390714D01*
X85707142Y-56638333D01*
X85850000Y-56019285D02*
X85850000Y-55709761D01*
X86064285Y-56081190D02*
X85314285Y-55864523D01*
X86064285Y-55647857D01*
X85314285Y-55493095D02*
X85314285Y-55059761D01*
X86064285Y-55338333D01*
X86064285Y-59441428D02*
X85314285Y-59441428D01*
X85850000Y-59224761D01*
X85314285Y-59008095D01*
X86064285Y-59008095D01*
X86064285Y-58698571D02*
X85314285Y-58698571D01*
X86028571Y-58420000D02*
X86064285Y-58327142D01*
X86064285Y-58172380D01*
X86028571Y-58110476D01*
X85992857Y-58079523D01*
X85921428Y-58048571D01*
X85850000Y-58048571D01*
X85778571Y-58079523D01*
X85742857Y-58110476D01*
X85707142Y-58172380D01*
X85671428Y-58296190D01*
X85635714Y-58358095D01*
X85600000Y-58389047D01*
X85528571Y-58420000D01*
X85457142Y-58420000D01*
X85385714Y-58389047D01*
X85350000Y-58358095D01*
X85314285Y-58296190D01*
X85314285Y-58141428D01*
X85350000Y-58048571D01*
X85314285Y-57646190D02*
X85314285Y-57522380D01*
X85350000Y-57460476D01*
X85421428Y-57398571D01*
X85564285Y-57367619D01*
X85814285Y-57367619D01*
X85957142Y-57398571D01*
X86028571Y-57460476D01*
X86064285Y-57522380D01*
X86064285Y-57646190D01*
X86028571Y-57708095D01*
X85957142Y-57770000D01*
X85814285Y-57800952D01*
X85564285Y-57800952D01*
X85421428Y-57770000D01*
X85350000Y-57708095D01*
X85314285Y-57646190D01*
X86064285Y-62108428D02*
X85314285Y-62108428D01*
X85850000Y-61891761D01*
X85314285Y-61675095D01*
X86064285Y-61675095D01*
X85314285Y-61241761D02*
X85314285Y-61117952D01*
X85350000Y-61056047D01*
X85421428Y-60994142D01*
X85564285Y-60963190D01*
X85814285Y-60963190D01*
X85957142Y-60994142D01*
X86028571Y-61056047D01*
X86064285Y-61117952D01*
X86064285Y-61241761D01*
X86028571Y-61303666D01*
X85957142Y-61365571D01*
X85814285Y-61396523D01*
X85564285Y-61396523D01*
X85421428Y-61365571D01*
X85350000Y-61303666D01*
X85314285Y-61241761D01*
X86028571Y-60715571D02*
X86064285Y-60622714D01*
X86064285Y-60467952D01*
X86028571Y-60406047D01*
X85992857Y-60375095D01*
X85921428Y-60344142D01*
X85850000Y-60344142D01*
X85778571Y-60375095D01*
X85742857Y-60406047D01*
X85707142Y-60467952D01*
X85671428Y-60591761D01*
X85635714Y-60653666D01*
X85600000Y-60684619D01*
X85528571Y-60715571D01*
X85457142Y-60715571D01*
X85385714Y-60684619D01*
X85350000Y-60653666D01*
X85314285Y-60591761D01*
X85314285Y-60437000D01*
X85350000Y-60344142D01*
X86064285Y-60065571D02*
X85314285Y-60065571D01*
X86028571Y-64335714D02*
X86064285Y-64242857D01*
X86064285Y-64088095D01*
X86028571Y-64026190D01*
X85992857Y-63995238D01*
X85921428Y-63964285D01*
X85850000Y-63964285D01*
X85778571Y-63995238D01*
X85742857Y-64026190D01*
X85707142Y-64088095D01*
X85671428Y-64211904D01*
X85635714Y-64273809D01*
X85600000Y-64304761D01*
X85528571Y-64335714D01*
X85457142Y-64335714D01*
X85385714Y-64304761D01*
X85350000Y-64273809D01*
X85314285Y-64211904D01*
X85314285Y-64057142D01*
X85350000Y-63964285D01*
X85992857Y-63314285D02*
X86028571Y-63345238D01*
X86064285Y-63438095D01*
X86064285Y-63500000D01*
X86028571Y-63592857D01*
X85957142Y-63654761D01*
X85885714Y-63685714D01*
X85742857Y-63716666D01*
X85635714Y-63716666D01*
X85492857Y-63685714D01*
X85421428Y-63654761D01*
X85350000Y-63592857D01*
X85314285Y-63500000D01*
X85314285Y-63438095D01*
X85350000Y-63345238D01*
X85385714Y-63314285D01*
X86064285Y-63035714D02*
X85314285Y-63035714D01*
X86064285Y-62664285D02*
X85635714Y-62942857D01*
X85314285Y-62664285D02*
X85742857Y-63035714D01*
D13*
%TO.C,G\u002A\u002A\u002A*%
G36*
X69837300Y-61671696D02*
G01*
X69703388Y-61734039D01*
X69575669Y-61812311D01*
X69455750Y-61919824D01*
X69351812Y-62045643D01*
X69272039Y-62178834D01*
X69224610Y-62308463D01*
X69215000Y-62386755D01*
X69239978Y-62527811D01*
X69313573Y-62668969D01*
X69407708Y-62780825D01*
X69538638Y-62912551D01*
X69526204Y-63199925D01*
X69521745Y-63332817D01*
X69522947Y-63430953D01*
X69531481Y-63510220D01*
X69549021Y-63586506D01*
X69575870Y-63671637D01*
X69637970Y-63855975D01*
X69407435Y-63979223D01*
X69304712Y-64033921D01*
X69170623Y-64105000D01*
X69018793Y-64185254D01*
X68862849Y-64267477D01*
X68771403Y-64315586D01*
X68632937Y-64390576D01*
X68503641Y-64464675D01*
X68393087Y-64532089D01*
X68310848Y-64587023D01*
X68272392Y-64617600D01*
X68184961Y-64731201D01*
X68140475Y-64857197D01*
X68135523Y-64987207D01*
X68166691Y-65112850D01*
X68230569Y-65225747D01*
X68323742Y-65317517D01*
X68442800Y-65379780D01*
X68584329Y-65404156D01*
X68592700Y-65404231D01*
X68660365Y-65398710D01*
X68743015Y-65380355D01*
X68849210Y-65346580D01*
X68987507Y-65294801D01*
X69088000Y-65254608D01*
X69214140Y-65203858D01*
X69322481Y-65161254D01*
X69404903Y-65129913D01*
X69453281Y-65112947D01*
X69462573Y-65110948D01*
X69462545Y-65137095D01*
X69456890Y-65201153D01*
X69446760Y-65290685D01*
X69443465Y-65317162D01*
X69425656Y-65430340D01*
X69405330Y-65500874D01*
X69379942Y-65536921D01*
X69373692Y-65540893D01*
X69334361Y-65570163D01*
X69273043Y-65624783D01*
X69202668Y-65693205D01*
X69199252Y-65696671D01*
X69074260Y-65858747D01*
X68989921Y-66045298D01*
X68947162Y-66249138D01*
X68946905Y-66463084D01*
X68990077Y-66679951D01*
X69051912Y-66841046D01*
X69166892Y-67029387D01*
X69316929Y-67182850D01*
X69497681Y-67297610D01*
X69628665Y-67349350D01*
X69652537Y-67358396D01*
X69657576Y-67365710D01*
X69639671Y-67371485D01*
X69594713Y-67375914D01*
X69518592Y-67379190D01*
X69407196Y-67381504D01*
X69256417Y-67383051D01*
X69062143Y-67384021D01*
X68878450Y-67384500D01*
X68021200Y-67386200D01*
X68021200Y-61671200D01*
X69837300Y-61671696D01*
G37*
X69837300Y-61671696D02*
X69703388Y-61734039D01*
X69575669Y-61812311D01*
X69455750Y-61919824D01*
X69351812Y-62045643D01*
X69272039Y-62178834D01*
X69224610Y-62308463D01*
X69215000Y-62386755D01*
X69239978Y-62527811D01*
X69313573Y-62668969D01*
X69407708Y-62780825D01*
X69538638Y-62912551D01*
X69526204Y-63199925D01*
X69521745Y-63332817D01*
X69522947Y-63430953D01*
X69531481Y-63510220D01*
X69549021Y-63586506D01*
X69575870Y-63671637D01*
X69637970Y-63855975D01*
X69407435Y-63979223D01*
X69304712Y-64033921D01*
X69170623Y-64105000D01*
X69018793Y-64185254D01*
X68862849Y-64267477D01*
X68771403Y-64315586D01*
X68632937Y-64390576D01*
X68503641Y-64464675D01*
X68393087Y-64532089D01*
X68310848Y-64587023D01*
X68272392Y-64617600D01*
X68184961Y-64731201D01*
X68140475Y-64857197D01*
X68135523Y-64987207D01*
X68166691Y-65112850D01*
X68230569Y-65225747D01*
X68323742Y-65317517D01*
X68442800Y-65379780D01*
X68584329Y-65404156D01*
X68592700Y-65404231D01*
X68660365Y-65398710D01*
X68743015Y-65380355D01*
X68849210Y-65346580D01*
X68987507Y-65294801D01*
X69088000Y-65254608D01*
X69214140Y-65203858D01*
X69322481Y-65161254D01*
X69404903Y-65129913D01*
X69453281Y-65112947D01*
X69462573Y-65110948D01*
X69462545Y-65137095D01*
X69456890Y-65201153D01*
X69446760Y-65290685D01*
X69443465Y-65317162D01*
X69425656Y-65430340D01*
X69405330Y-65500874D01*
X69379942Y-65536921D01*
X69373692Y-65540893D01*
X69334361Y-65570163D01*
X69273043Y-65624783D01*
X69202668Y-65693205D01*
X69199252Y-65696671D01*
X69074260Y-65858747D01*
X68989921Y-66045298D01*
X68947162Y-66249138D01*
X68946905Y-66463084D01*
X68990077Y-66679951D01*
X69051912Y-66841046D01*
X69166892Y-67029387D01*
X69316929Y-67182850D01*
X69497681Y-67297610D01*
X69628665Y-67349350D01*
X69652537Y-67358396D01*
X69657576Y-67365710D01*
X69639671Y-67371485D01*
X69594713Y-67375914D01*
X69518592Y-67379190D01*
X69407196Y-67381504D01*
X69256417Y-67383051D01*
X69062143Y-67384021D01*
X68878450Y-67384500D01*
X68021200Y-67386200D01*
X68021200Y-61671200D01*
X69837300Y-61671696D01*
G36*
X71351219Y-67119399D02*
G01*
X71493991Y-67244985D01*
X71652225Y-67332818D01*
X71742300Y-67362366D01*
X71735365Y-67366550D01*
X71682632Y-67370406D01*
X71589103Y-67373826D01*
X71459778Y-67376702D01*
X71299659Y-67378927D01*
X71113747Y-67380393D01*
X70907044Y-67380991D01*
X70878700Y-67381000D01*
X70669644Y-67380523D01*
X70480725Y-67379165D01*
X70316944Y-67377033D01*
X70183302Y-67374236D01*
X70084801Y-67370881D01*
X70026441Y-67367076D01*
X70013224Y-67362929D01*
X70015100Y-67362366D01*
X70176215Y-67299155D01*
X70329241Y-67193612D01*
X70406180Y-67119399D01*
X70515577Y-67000717D01*
X71241822Y-67000717D01*
X71351219Y-67119399D01*
G37*
X71351219Y-67119399D02*
X71493991Y-67244985D01*
X71652225Y-67332818D01*
X71742300Y-67362366D01*
X71735365Y-67366550D01*
X71682632Y-67370406D01*
X71589103Y-67373826D01*
X71459778Y-67376702D01*
X71299659Y-67378927D01*
X71113747Y-67380393D01*
X70907044Y-67380991D01*
X70878700Y-67381000D01*
X70669644Y-67380523D01*
X70480725Y-67379165D01*
X70316944Y-67377033D01*
X70183302Y-67374236D01*
X70084801Y-67370881D01*
X70026441Y-67367076D01*
X70013224Y-67362929D01*
X70015100Y-67362366D01*
X70176215Y-67299155D01*
X70329241Y-67193612D01*
X70406180Y-67119399D01*
X70515577Y-67000717D01*
X71241822Y-67000717D01*
X71351219Y-67119399D01*
G36*
X73736200Y-67386200D02*
G01*
X72878950Y-67384500D01*
X72648026Y-67383845D01*
X72463792Y-67382763D01*
X72322137Y-67381062D01*
X72218951Y-67378551D01*
X72150124Y-67375035D01*
X72111545Y-67370323D01*
X72099105Y-67364221D01*
X72108692Y-67356538D01*
X72128734Y-67349350D01*
X72317548Y-67265816D01*
X72478920Y-67146017D01*
X72611063Y-66996824D01*
X72712194Y-66825106D01*
X72780526Y-66637736D01*
X72814275Y-66441584D01*
X72811655Y-66243520D01*
X72770882Y-66050416D01*
X72690169Y-65869142D01*
X72567732Y-65706569D01*
X72558147Y-65696671D01*
X72487302Y-65627636D01*
X72424497Y-65571655D01*
X72382864Y-65540407D01*
X72381717Y-65539780D01*
X72354504Y-65511745D01*
X72333717Y-65454811D01*
X72316367Y-65359607D01*
X72310767Y-65317226D01*
X72300103Y-65223399D01*
X72293804Y-65151617D01*
X72292921Y-65114493D01*
X72293649Y-65112125D01*
X72318447Y-65118708D01*
X72382052Y-65141577D01*
X72476312Y-65177640D01*
X72593073Y-65223807D01*
X72669400Y-65254608D01*
X72830738Y-65318265D01*
X72954905Y-65362387D01*
X73050460Y-65389558D01*
X73125963Y-65402365D01*
X73164700Y-65404231D01*
X73307433Y-65382174D01*
X73427849Y-65321750D01*
X73522534Y-65231342D01*
X73588079Y-65119330D01*
X73621070Y-64994096D01*
X73618096Y-64864019D01*
X73575745Y-64737482D01*
X73490605Y-64622865D01*
X73484992Y-64617434D01*
X73437631Y-64581831D01*
X73351811Y-64526944D01*
X73234258Y-64456703D01*
X73091700Y-64375035D01*
X72930865Y-64285866D01*
X72758480Y-64193126D01*
X72755632Y-64191618D01*
X72119801Y-63854867D01*
X72181715Y-63671083D01*
X72209393Y-63582913D01*
X72226481Y-63506864D01*
X72234647Y-63427064D01*
X72235558Y-63327638D01*
X72231195Y-63199925D01*
X72218761Y-62912551D01*
X72349691Y-62780825D01*
X72461285Y-62642605D01*
X72525891Y-62501154D01*
X72542400Y-62386755D01*
X72520800Y-62265467D01*
X72461456Y-62133400D01*
X72372549Y-62001489D01*
X72262260Y-61880667D01*
X72138771Y-61781870D01*
X72054011Y-61734039D01*
X71920100Y-61671696D01*
X73736200Y-61671200D01*
X73736200Y-67386200D01*
G37*
X73736200Y-67386200D02*
X72878950Y-67384500D01*
X72648026Y-67383845D01*
X72463792Y-67382763D01*
X72322137Y-67381062D01*
X72218951Y-67378551D01*
X72150124Y-67375035D01*
X72111545Y-67370323D01*
X72099105Y-67364221D01*
X72108692Y-67356538D01*
X72128734Y-67349350D01*
X72317548Y-67265816D01*
X72478920Y-67146017D01*
X72611063Y-66996824D01*
X72712194Y-66825106D01*
X72780526Y-66637736D01*
X72814275Y-66441584D01*
X72811655Y-66243520D01*
X72770882Y-66050416D01*
X72690169Y-65869142D01*
X72567732Y-65706569D01*
X72558147Y-65696671D01*
X72487302Y-65627636D01*
X72424497Y-65571655D01*
X72382864Y-65540407D01*
X72381717Y-65539780D01*
X72354504Y-65511745D01*
X72333717Y-65454811D01*
X72316367Y-65359607D01*
X72310767Y-65317226D01*
X72300103Y-65223399D01*
X72293804Y-65151617D01*
X72292921Y-65114493D01*
X72293649Y-65112125D01*
X72318447Y-65118708D01*
X72382052Y-65141577D01*
X72476312Y-65177640D01*
X72593073Y-65223807D01*
X72669400Y-65254608D01*
X72830738Y-65318265D01*
X72954905Y-65362387D01*
X73050460Y-65389558D01*
X73125963Y-65402365D01*
X73164700Y-65404231D01*
X73307433Y-65382174D01*
X73427849Y-65321750D01*
X73522534Y-65231342D01*
X73588079Y-65119330D01*
X73621070Y-64994096D01*
X73618096Y-64864019D01*
X73575745Y-64737482D01*
X73490605Y-64622865D01*
X73484992Y-64617434D01*
X73437631Y-64581831D01*
X73351811Y-64526944D01*
X73234258Y-64456703D01*
X73091700Y-64375035D01*
X72930865Y-64285866D01*
X72758480Y-64193126D01*
X72755632Y-64191618D01*
X72119801Y-63854867D01*
X72181715Y-63671083D01*
X72209393Y-63582913D01*
X72226481Y-63506864D01*
X72234647Y-63427064D01*
X72235558Y-63327638D01*
X72231195Y-63199925D01*
X72218761Y-62912551D01*
X72349691Y-62780825D01*
X72461285Y-62642605D01*
X72525891Y-62501154D01*
X72542400Y-62386755D01*
X72520800Y-62265467D01*
X72461456Y-62133400D01*
X72372549Y-62001489D01*
X72262260Y-61880667D01*
X72138771Y-61781870D01*
X72054011Y-61734039D01*
X71920100Y-61671696D01*
X73736200Y-61671200D01*
X73736200Y-67386200D01*
G36*
X69932498Y-65708165D02*
G01*
X70074799Y-65783973D01*
X70183856Y-65879097D01*
X70293768Y-66023291D01*
X70367941Y-66181329D01*
X70408118Y-66346646D01*
X70416043Y-66512675D01*
X70393460Y-66672849D01*
X70342111Y-66820601D01*
X70263741Y-66949365D01*
X70160093Y-67052575D01*
X70032911Y-67123663D01*
X69883938Y-67156063D01*
X69844465Y-67157351D01*
X69754960Y-67145634D01*
X69652992Y-67116087D01*
X69608700Y-67097837D01*
X69453840Y-66998461D01*
X69327548Y-66861754D01*
X69234782Y-66695370D01*
X69180504Y-66506959D01*
X69170255Y-66421409D01*
X69176379Y-66232083D01*
X69219244Y-66065349D01*
X69293217Y-65924220D01*
X69392663Y-65811711D01*
X69511948Y-65730837D01*
X69645439Y-65684612D01*
X69787500Y-65676050D01*
X69932498Y-65708165D01*
G37*
X69932498Y-65708165D02*
X70074799Y-65783973D01*
X70183856Y-65879097D01*
X70293768Y-66023291D01*
X70367941Y-66181329D01*
X70408118Y-66346646D01*
X70416043Y-66512675D01*
X70393460Y-66672849D01*
X70342111Y-66820601D01*
X70263741Y-66949365D01*
X70160093Y-67052575D01*
X70032911Y-67123663D01*
X69883938Y-67156063D01*
X69844465Y-67157351D01*
X69754960Y-67145634D01*
X69652992Y-67116087D01*
X69608700Y-67097837D01*
X69453840Y-66998461D01*
X69327548Y-66861754D01*
X69234782Y-66695370D01*
X69180504Y-66506959D01*
X69170255Y-66421409D01*
X69176379Y-66232083D01*
X69219244Y-66065349D01*
X69293217Y-65924220D01*
X69392663Y-65811711D01*
X69511948Y-65730837D01*
X69645439Y-65684612D01*
X69787500Y-65676050D01*
X69932498Y-65708165D01*
G36*
X72155613Y-65694793D02*
G01*
X72293425Y-65756031D01*
X72413233Y-65859281D01*
X72468796Y-65933885D01*
X72545447Y-66081935D01*
X72583749Y-66231767D01*
X72588352Y-66402533D01*
X72587144Y-66421409D01*
X72554769Y-66602535D01*
X72488297Y-66765619D01*
X72393661Y-66906168D01*
X72276794Y-67019693D01*
X72143629Y-67101702D01*
X72000097Y-67147705D01*
X71852132Y-67153211D01*
X71705666Y-67113730D01*
X71685191Y-67104146D01*
X71551177Y-67011316D01*
X71449206Y-66886382D01*
X71379997Y-66737232D01*
X71344269Y-66571754D01*
X71342740Y-66397836D01*
X71376131Y-66223368D01*
X71445159Y-66056237D01*
X71550544Y-65904333D01*
X71573543Y-65879097D01*
X71708761Y-65767720D01*
X71855819Y-65700181D01*
X72007257Y-65676024D01*
X72155613Y-65694793D01*
G37*
X72155613Y-65694793D02*
X72293425Y-65756031D01*
X72413233Y-65859281D01*
X72468796Y-65933885D01*
X72545447Y-66081935D01*
X72583749Y-66231767D01*
X72588352Y-66402533D01*
X72587144Y-66421409D01*
X72554769Y-66602535D01*
X72488297Y-66765619D01*
X72393661Y-66906168D01*
X72276794Y-67019693D01*
X72143629Y-67101702D01*
X72000097Y-67147705D01*
X71852132Y-67153211D01*
X71705666Y-67113730D01*
X71685191Y-67104146D01*
X71551177Y-67011316D01*
X71449206Y-66886382D01*
X71379997Y-66737232D01*
X71344269Y-66571754D01*
X71342740Y-66397836D01*
X71376131Y-66223368D01*
X71445159Y-66056237D01*
X71550544Y-65904333D01*
X71573543Y-65879097D01*
X71708761Y-65767720D01*
X71855819Y-65700181D01*
X72007257Y-65676024D01*
X72155613Y-65694793D01*
G36*
X70960043Y-65111731D02*
G01*
X71101514Y-65149797D01*
X71230418Y-65223859D01*
X71338685Y-65333916D01*
X71410812Y-65461334D01*
X71442790Y-65558314D01*
X71442292Y-65635518D01*
X71406312Y-65711945D01*
X71361850Y-65770968D01*
X71245643Y-65942318D01*
X71170157Y-66127259D01*
X71131168Y-66337286D01*
X71125629Y-66413261D01*
X71123165Y-66542426D01*
X71128609Y-66650903D01*
X71141198Y-66724428D01*
X71142545Y-66728529D01*
X71159973Y-66784837D01*
X71165081Y-66814940D01*
X71164564Y-66815971D01*
X71133910Y-66822635D01*
X71066542Y-66828760D01*
X70976542Y-66833776D01*
X70877996Y-66837111D01*
X70784988Y-66838193D01*
X70711603Y-66836452D01*
X70693320Y-66835086D01*
X70626156Y-66825958D01*
X70598719Y-66810917D01*
X70599991Y-66781737D01*
X70604420Y-66768729D01*
X70612830Y-66720642D01*
X70619317Y-66635381D01*
X70623069Y-66526562D01*
X70623647Y-66446400D01*
X70621620Y-66318782D01*
X70614964Y-66226256D01*
X70601036Y-66153153D01*
X70577189Y-66083802D01*
X70553246Y-66029243D01*
X70499885Y-65927632D01*
X70436319Y-65826155D01*
X70395549Y-65770968D01*
X70334593Y-65684695D01*
X70311095Y-65610141D01*
X70322049Y-65528307D01*
X70346587Y-65461334D01*
X70429861Y-65319422D01*
X70540913Y-65213506D01*
X70671674Y-65143585D01*
X70814073Y-65109660D01*
X70960043Y-65111731D01*
G37*
X70960043Y-65111731D02*
X71101514Y-65149797D01*
X71230418Y-65223859D01*
X71338685Y-65333916D01*
X71410812Y-65461334D01*
X71442790Y-65558314D01*
X71442292Y-65635518D01*
X71406312Y-65711945D01*
X71361850Y-65770968D01*
X71245643Y-65942318D01*
X71170157Y-66127259D01*
X71131168Y-66337286D01*
X71125629Y-66413261D01*
X71123165Y-66542426D01*
X71128609Y-66650903D01*
X71141198Y-66724428D01*
X71142545Y-66728529D01*
X71159973Y-66784837D01*
X71165081Y-66814940D01*
X71164564Y-66815971D01*
X71133910Y-66822635D01*
X71066542Y-66828760D01*
X70976542Y-66833776D01*
X70877996Y-66837111D01*
X70784988Y-66838193D01*
X70711603Y-66836452D01*
X70693320Y-66835086D01*
X70626156Y-66825958D01*
X70598719Y-66810917D01*
X70599991Y-66781737D01*
X70604420Y-66768729D01*
X70612830Y-66720642D01*
X70619317Y-66635381D01*
X70623069Y-66526562D01*
X70623647Y-66446400D01*
X70621620Y-66318782D01*
X70614964Y-66226256D01*
X70601036Y-66153153D01*
X70577189Y-66083802D01*
X70553246Y-66029243D01*
X70499885Y-65927632D01*
X70436319Y-65826155D01*
X70395549Y-65770968D01*
X70334593Y-65684695D01*
X70311095Y-65610141D01*
X70322049Y-65528307D01*
X70346587Y-65461334D01*
X70429861Y-65319422D01*
X70540913Y-65213506D01*
X70671674Y-65143585D01*
X70814073Y-65109660D01*
X70960043Y-65111731D01*
G36*
X69916568Y-64229935D02*
G01*
X70073052Y-64369246D01*
X70227551Y-64471542D01*
X70397449Y-64546769D01*
X70550670Y-64592755D01*
X70741906Y-64631075D01*
X70914992Y-64639648D01*
X71092956Y-64618473D01*
X71206729Y-64592755D01*
X71401085Y-64531425D01*
X71566448Y-64450589D01*
X71720271Y-64340271D01*
X71840177Y-64230589D01*
X71915384Y-64157061D01*
X71975844Y-64099252D01*
X72013376Y-64064913D01*
X72021478Y-64058800D01*
X72044930Y-64070161D01*
X72107412Y-64102204D01*
X72203046Y-64151865D01*
X72325954Y-64216080D01*
X72470255Y-64291786D01*
X72630073Y-64375919D01*
X72634800Y-64378412D01*
X72847634Y-64491816D01*
X73018820Y-64586267D01*
X73152447Y-64664921D01*
X73252601Y-64730933D01*
X73323373Y-64787460D01*
X73368850Y-64837656D01*
X73393120Y-64884679D01*
X73400272Y-64931684D01*
X73397180Y-64966906D01*
X73370686Y-65047230D01*
X73327136Y-65115728D01*
X73326378Y-65116542D01*
X73284328Y-65151561D01*
X73233744Y-65171066D01*
X73168409Y-65173996D01*
X73082105Y-65159291D01*
X72968616Y-65125891D01*
X72821726Y-65072735D01*
X72635216Y-64998763D01*
X72634814Y-64998600D01*
X72492741Y-64942002D01*
X72363824Y-64892844D01*
X72256600Y-64854208D01*
X72179607Y-64829174D01*
X72142277Y-64820800D01*
X72096702Y-64829746D01*
X72067828Y-64861016D01*
X72054276Y-64921260D01*
X72054669Y-65017125D01*
X72067628Y-65155259D01*
X72069564Y-65171670D01*
X72081402Y-65280876D01*
X72088763Y-65369972D01*
X72090864Y-65427814D01*
X72088703Y-65443829D01*
X72058110Y-65451251D01*
X71995869Y-65455449D01*
X71969860Y-65455800D01*
X71871961Y-65465121D01*
X71772480Y-65487958D01*
X71760646Y-65491907D01*
X71658306Y-65528015D01*
X71642843Y-65445592D01*
X71598553Y-65323245D01*
X71516649Y-65197619D01*
X71407922Y-65080855D01*
X71283162Y-64985089D01*
X71190003Y-64936180D01*
X71008489Y-64885775D01*
X70823578Y-64880222D01*
X70643340Y-64915988D01*
X70475848Y-64989543D01*
X70329171Y-65097354D01*
X70211380Y-65235890D01*
X70131278Y-65399450D01*
X70089389Y-65523188D01*
X70001444Y-65491426D01*
X69922361Y-65472085D01*
X69823640Y-65459753D01*
X69779849Y-65457732D01*
X69646199Y-65455800D01*
X69659913Y-65360550D01*
X69684640Y-65181803D01*
X69700104Y-65047037D01*
X69705801Y-64950192D01*
X69701229Y-64885211D01*
X69685885Y-64846033D01*
X69659267Y-64826602D01*
X69620871Y-64820857D01*
X69615122Y-64820800D01*
X69574676Y-64830090D01*
X69495904Y-64855905D01*
X69387344Y-64895164D01*
X69257534Y-64944783D01*
X69122585Y-64998600D01*
X68935993Y-65072612D01*
X68789032Y-65125807D01*
X68675485Y-65159245D01*
X68589135Y-65173985D01*
X68523765Y-65171088D01*
X68473158Y-65151614D01*
X68431098Y-65116624D01*
X68431021Y-65116542D01*
X68387342Y-65048559D01*
X68360420Y-64968120D01*
X68360219Y-64966906D01*
X68357579Y-64917972D01*
X68368988Y-64871396D01*
X68398535Y-64824044D01*
X68450309Y-64772785D01*
X68528398Y-64714484D01*
X68636891Y-64646010D01*
X68779876Y-64564228D01*
X68961444Y-64466007D01*
X69129168Y-64377696D01*
X69741836Y-64057491D01*
X69916568Y-64229935D01*
G37*
X69916568Y-64229935D02*
X70073052Y-64369246D01*
X70227551Y-64471542D01*
X70397449Y-64546769D01*
X70550670Y-64592755D01*
X70741906Y-64631075D01*
X70914992Y-64639648D01*
X71092956Y-64618473D01*
X71206729Y-64592755D01*
X71401085Y-64531425D01*
X71566448Y-64450589D01*
X71720271Y-64340271D01*
X71840177Y-64230589D01*
X71915384Y-64157061D01*
X71975844Y-64099252D01*
X72013376Y-64064913D01*
X72021478Y-64058800D01*
X72044930Y-64070161D01*
X72107412Y-64102204D01*
X72203046Y-64151865D01*
X72325954Y-64216080D01*
X72470255Y-64291786D01*
X72630073Y-64375919D01*
X72634800Y-64378412D01*
X72847634Y-64491816D01*
X73018820Y-64586267D01*
X73152447Y-64664921D01*
X73252601Y-64730933D01*
X73323373Y-64787460D01*
X73368850Y-64837656D01*
X73393120Y-64884679D01*
X73400272Y-64931684D01*
X73397180Y-64966906D01*
X73370686Y-65047230D01*
X73327136Y-65115728D01*
X73326378Y-65116542D01*
X73284328Y-65151561D01*
X73233744Y-65171066D01*
X73168409Y-65173996D01*
X73082105Y-65159291D01*
X72968616Y-65125891D01*
X72821726Y-65072735D01*
X72635216Y-64998763D01*
X72634814Y-64998600D01*
X72492741Y-64942002D01*
X72363824Y-64892844D01*
X72256600Y-64854208D01*
X72179607Y-64829174D01*
X72142277Y-64820800D01*
X72096702Y-64829746D01*
X72067828Y-64861016D01*
X72054276Y-64921260D01*
X72054669Y-65017125D01*
X72067628Y-65155259D01*
X72069564Y-65171670D01*
X72081402Y-65280876D01*
X72088763Y-65369972D01*
X72090864Y-65427814D01*
X72088703Y-65443829D01*
X72058110Y-65451251D01*
X71995869Y-65455449D01*
X71969860Y-65455800D01*
X71871961Y-65465121D01*
X71772480Y-65487958D01*
X71760646Y-65491907D01*
X71658306Y-65528015D01*
X71642843Y-65445592D01*
X71598553Y-65323245D01*
X71516649Y-65197619D01*
X71407922Y-65080855D01*
X71283162Y-64985089D01*
X71190003Y-64936180D01*
X71008489Y-64885775D01*
X70823578Y-64880222D01*
X70643340Y-64915988D01*
X70475848Y-64989543D01*
X70329171Y-65097354D01*
X70211380Y-65235890D01*
X70131278Y-65399450D01*
X70089389Y-65523188D01*
X70001444Y-65491426D01*
X69922361Y-65472085D01*
X69823640Y-65459753D01*
X69779849Y-65457732D01*
X69646199Y-65455800D01*
X69659913Y-65360550D01*
X69684640Y-65181803D01*
X69700104Y-65047037D01*
X69705801Y-64950192D01*
X69701229Y-64885211D01*
X69685885Y-64846033D01*
X69659267Y-64826602D01*
X69620871Y-64820857D01*
X69615122Y-64820800D01*
X69574676Y-64830090D01*
X69495904Y-64855905D01*
X69387344Y-64895164D01*
X69257534Y-64944783D01*
X69122585Y-64998600D01*
X68935993Y-65072612D01*
X68789032Y-65125807D01*
X68675485Y-65159245D01*
X68589135Y-65173985D01*
X68523765Y-65171088D01*
X68473158Y-65151614D01*
X68431098Y-65116624D01*
X68431021Y-65116542D01*
X68387342Y-65048559D01*
X68360420Y-64968120D01*
X68360219Y-64966906D01*
X68357579Y-64917972D01*
X68368988Y-64871396D01*
X68398535Y-64824044D01*
X68450309Y-64772785D01*
X68528398Y-64714484D01*
X68636891Y-64646010D01*
X68779876Y-64564228D01*
X68961444Y-64466007D01*
X69129168Y-64377696D01*
X69741836Y-64057491D01*
X69916568Y-64229935D01*
G36*
X71039893Y-63067177D02*
G01*
X71168828Y-63103445D01*
X71280088Y-63170995D01*
X71364911Y-63250124D01*
X71468522Y-63392739D01*
X71535020Y-63555014D01*
X71562046Y-63725381D01*
X71547239Y-63892274D01*
X71515764Y-63989515D01*
X71445592Y-64108251D01*
X71345347Y-64223327D01*
X71232574Y-64315936D01*
X71185232Y-64343845D01*
X71092059Y-64376593D01*
X70972734Y-64398691D01*
X70847786Y-64408144D01*
X70737744Y-64402955D01*
X70688035Y-64392188D01*
X70527775Y-64315363D01*
X70386998Y-64201139D01*
X70278005Y-64060612D01*
X70241635Y-63989515D01*
X70199533Y-63830649D01*
X70200736Y-63661092D01*
X70242884Y-63492411D01*
X70254726Y-63469493D01*
X70540078Y-63469493D01*
X70540147Y-63530905D01*
X70561983Y-63607121D01*
X70625404Y-63717878D01*
X70722101Y-63793656D01*
X70843694Y-63828551D01*
X70878700Y-63830200D01*
X71006109Y-63806376D01*
X71071793Y-63772221D01*
X71156152Y-63686322D01*
X71195416Y-63607121D01*
X71217321Y-63530506D01*
X71217252Y-63469094D01*
X71195416Y-63392878D01*
X71135237Y-63285937D01*
X71048134Y-63213502D01*
X70944464Y-63175571D01*
X70834587Y-63172146D01*
X70728860Y-63203225D01*
X70637643Y-63268810D01*
X70571294Y-63368899D01*
X70561983Y-63392878D01*
X70540078Y-63469493D01*
X70254726Y-63469493D01*
X70323617Y-63336173D01*
X70392488Y-63250124D01*
X70500093Y-63153811D01*
X70613875Y-63093362D01*
X70748417Y-63062965D01*
X70878700Y-63056379D01*
X71039893Y-63067177D01*
G37*
X71039893Y-63067177D02*
X71168828Y-63103445D01*
X71280088Y-63170995D01*
X71364911Y-63250124D01*
X71468522Y-63392739D01*
X71535020Y-63555014D01*
X71562046Y-63725381D01*
X71547239Y-63892274D01*
X71515764Y-63989515D01*
X71445592Y-64108251D01*
X71345347Y-64223327D01*
X71232574Y-64315936D01*
X71185232Y-64343845D01*
X71092059Y-64376593D01*
X70972734Y-64398691D01*
X70847786Y-64408144D01*
X70737744Y-64402955D01*
X70688035Y-64392188D01*
X70527775Y-64315363D01*
X70386998Y-64201139D01*
X70278005Y-64060612D01*
X70241635Y-63989515D01*
X70199533Y-63830649D01*
X70200736Y-63661092D01*
X70242884Y-63492411D01*
X70254726Y-63469493D01*
X70540078Y-63469493D01*
X70540147Y-63530905D01*
X70561983Y-63607121D01*
X70625404Y-63717878D01*
X70722101Y-63793656D01*
X70843694Y-63828551D01*
X70878700Y-63830200D01*
X71006109Y-63806376D01*
X71071793Y-63772221D01*
X71156152Y-63686322D01*
X71195416Y-63607121D01*
X71217321Y-63530506D01*
X71217252Y-63469094D01*
X71195416Y-63392878D01*
X71135237Y-63285937D01*
X71048134Y-63213502D01*
X70944464Y-63175571D01*
X70834587Y-63172146D01*
X70728860Y-63203225D01*
X70637643Y-63268810D01*
X70571294Y-63368899D01*
X70561983Y-63392878D01*
X70540078Y-63469493D01*
X70254726Y-63469493D01*
X70323617Y-63336173D01*
X70392488Y-63250124D01*
X70500093Y-63153811D01*
X70613875Y-63093362D01*
X70748417Y-63062965D01*
X70878700Y-63056379D01*
X71039893Y-63067177D01*
G36*
X71049257Y-62143015D02*
G01*
X71100174Y-62152304D01*
X71324543Y-62222889D01*
X71522681Y-62332539D01*
X71691703Y-62475485D01*
X71828726Y-62645959D01*
X71930866Y-62838192D01*
X71995239Y-63046413D01*
X72018960Y-63264854D01*
X71999146Y-63487746D01*
X71932912Y-63709320D01*
X71907308Y-63766891D01*
X71853540Y-63874837D01*
X71815431Y-63936322D01*
X71790376Y-63950473D01*
X71775770Y-63916417D01*
X71769008Y-63833283D01*
X71767478Y-63720042D01*
X71765745Y-63594574D01*
X71759244Y-63505458D01*
X71745635Y-63438305D01*
X71722580Y-63378727D01*
X71706948Y-63347600D01*
X71610594Y-63191140D01*
X71505638Y-63067038D01*
X71413126Y-62992634D01*
X71327187Y-62939521D01*
X71388693Y-62878015D01*
X71431307Y-62820500D01*
X71450150Y-62765582D01*
X71450200Y-62763400D01*
X71430368Y-62704625D01*
X71382203Y-62643811D01*
X71322698Y-62598626D01*
X71279206Y-62585600D01*
X71199012Y-62608307D01*
X71141350Y-62667172D01*
X71120000Y-62745790D01*
X71120000Y-62826900D01*
X70637400Y-62826900D01*
X70637400Y-62745790D01*
X70614831Y-62665101D01*
X70556328Y-62607082D01*
X70478193Y-62585600D01*
X70421669Y-62606220D01*
X70363182Y-62656302D01*
X70319728Y-62718176D01*
X70307200Y-62763400D01*
X70324457Y-62817453D01*
X70366236Y-62875502D01*
X70368706Y-62878015D01*
X70430212Y-62939521D01*
X70344273Y-62992634D01*
X70238327Y-63080572D01*
X70134017Y-63209284D01*
X70050451Y-63347600D01*
X70021986Y-63408397D01*
X70004022Y-63469589D01*
X69994254Y-63545443D01*
X69990376Y-63650227D01*
X69989921Y-63722221D01*
X69989285Y-63830285D01*
X69987744Y-63916442D01*
X69985550Y-63970068D01*
X69983710Y-63982571D01*
X69967522Y-63963504D01*
X69933392Y-63915183D01*
X69913583Y-63885682D01*
X69821088Y-63703742D01*
X69762823Y-63496882D01*
X69740462Y-63279182D01*
X69755681Y-63064718D01*
X69796685Y-62903100D01*
X69896019Y-62693160D01*
X70032637Y-62510814D01*
X70200091Y-62359777D01*
X70391929Y-62243763D01*
X70601703Y-62166488D01*
X70822962Y-62131667D01*
X71049257Y-62143015D01*
G37*
X71049257Y-62143015D02*
X71100174Y-62152304D01*
X71324543Y-62222889D01*
X71522681Y-62332539D01*
X71691703Y-62475485D01*
X71828726Y-62645959D01*
X71930866Y-62838192D01*
X71995239Y-63046413D01*
X72018960Y-63264854D01*
X71999146Y-63487746D01*
X71932912Y-63709320D01*
X71907308Y-63766891D01*
X71853540Y-63874837D01*
X71815431Y-63936322D01*
X71790376Y-63950473D01*
X71775770Y-63916417D01*
X71769008Y-63833283D01*
X71767478Y-63720042D01*
X71765745Y-63594574D01*
X71759244Y-63505458D01*
X71745635Y-63438305D01*
X71722580Y-63378727D01*
X71706948Y-63347600D01*
X71610594Y-63191140D01*
X71505638Y-63067038D01*
X71413126Y-62992634D01*
X71327187Y-62939521D01*
X71388693Y-62878015D01*
X71431307Y-62820500D01*
X71450150Y-62765582D01*
X71450200Y-62763400D01*
X71430368Y-62704625D01*
X71382203Y-62643811D01*
X71322698Y-62598626D01*
X71279206Y-62585600D01*
X71199012Y-62608307D01*
X71141350Y-62667172D01*
X71120000Y-62745790D01*
X71120000Y-62826900D01*
X70637400Y-62826900D01*
X70637400Y-62745790D01*
X70614831Y-62665101D01*
X70556328Y-62607082D01*
X70478193Y-62585600D01*
X70421669Y-62606220D01*
X70363182Y-62656302D01*
X70319728Y-62718176D01*
X70307200Y-62763400D01*
X70324457Y-62817453D01*
X70366236Y-62875502D01*
X70368706Y-62878015D01*
X70430212Y-62939521D01*
X70344273Y-62992634D01*
X70238327Y-63080572D01*
X70134017Y-63209284D01*
X70050451Y-63347600D01*
X70021986Y-63408397D01*
X70004022Y-63469589D01*
X69994254Y-63545443D01*
X69990376Y-63650227D01*
X69989921Y-63722221D01*
X69989285Y-63830285D01*
X69987744Y-63916442D01*
X69985550Y-63970068D01*
X69983710Y-63982571D01*
X69967522Y-63963504D01*
X69933392Y-63915183D01*
X69913583Y-63885682D01*
X69821088Y-63703742D01*
X69762823Y-63496882D01*
X69740462Y-63279182D01*
X69755681Y-63064718D01*
X69796685Y-62903100D01*
X69896019Y-62693160D01*
X70032637Y-62510814D01*
X70200091Y-62359777D01*
X70391929Y-62243763D01*
X70601703Y-62166488D01*
X70822962Y-62131667D01*
X71049257Y-62143015D01*
G36*
X69995123Y-61914722D02*
G01*
X70114863Y-61967947D01*
X70144969Y-61989166D01*
X70234837Y-62057711D01*
X70110346Y-62141548D01*
X69999687Y-62228591D01*
X69886344Y-62338633D01*
X69784470Y-62456373D01*
X69708216Y-62566509D01*
X69695037Y-62590623D01*
X69661705Y-62649863D01*
X69636504Y-62683952D01*
X69631074Y-62687200D01*
X69606265Y-62670321D01*
X69561517Y-62627959D01*
X69542430Y-62608035D01*
X69491309Y-62542545D01*
X69456889Y-62478989D01*
X69452708Y-62466034D01*
X69451621Y-62366159D01*
X69489256Y-62253507D01*
X69559229Y-62138664D01*
X69655152Y-62032213D01*
X69765246Y-61948037D01*
X69875917Y-61907796D01*
X69995123Y-61914722D01*
G37*
X69995123Y-61914722D02*
X70114863Y-61967947D01*
X70144969Y-61989166D01*
X70234837Y-62057711D01*
X70110346Y-62141548D01*
X69999687Y-62228591D01*
X69886344Y-62338633D01*
X69784470Y-62456373D01*
X69708216Y-62566509D01*
X69695037Y-62590623D01*
X69661705Y-62649863D01*
X69636504Y-62683952D01*
X69631074Y-62687200D01*
X69606265Y-62670321D01*
X69561517Y-62627959D01*
X69542430Y-62608035D01*
X69491309Y-62542545D01*
X69456889Y-62478989D01*
X69452708Y-62466034D01*
X69451621Y-62366159D01*
X69489256Y-62253507D01*
X69559229Y-62138664D01*
X69655152Y-62032213D01*
X69765246Y-61948037D01*
X69875917Y-61907796D01*
X69995123Y-61914722D01*
G36*
X71959804Y-61930434D02*
G01*
X71988257Y-61945806D01*
X72105712Y-62036323D01*
X72204207Y-62145985D01*
X72275465Y-62262981D01*
X72311208Y-62375501D01*
X72313800Y-62410336D01*
X72296903Y-62478542D01*
X72255031Y-62558551D01*
X72201413Y-62628681D01*
X72159893Y-62662606D01*
X72126079Y-62672044D01*
X72097689Y-62651337D01*
X72063000Y-62591872D01*
X72062610Y-62591108D01*
X71994532Y-62484714D01*
X71897345Y-62367063D01*
X71785226Y-62253490D01*
X71672350Y-62159331D01*
X71647053Y-62141548D01*
X71522562Y-62057711D01*
X71612430Y-61989166D01*
X71729448Y-61924869D01*
X71848396Y-61904927D01*
X71959804Y-61930434D01*
G37*
X71959804Y-61930434D02*
X71988257Y-61945806D01*
X72105712Y-62036323D01*
X72204207Y-62145985D01*
X72275465Y-62262981D01*
X72311208Y-62375501D01*
X72313800Y-62410336D01*
X72296903Y-62478542D01*
X72255031Y-62558551D01*
X72201413Y-62628681D01*
X72159893Y-62662606D01*
X72126079Y-62672044D01*
X72097689Y-62651337D01*
X72063000Y-62591872D01*
X72062610Y-62591108D01*
X71994532Y-62484714D01*
X71897345Y-62367063D01*
X71785226Y-62253490D01*
X71672350Y-62159331D01*
X71647053Y-62141548D01*
X71522562Y-62057711D01*
X71612430Y-61989166D01*
X71729448Y-61924869D01*
X71848396Y-61904927D01*
X71959804Y-61930434D01*
G36*
X70878700Y-61674498D02*
G01*
X71082201Y-61675268D01*
X71265798Y-61676986D01*
X71424280Y-61679522D01*
X71552434Y-61682746D01*
X71645049Y-61686531D01*
X71696915Y-61690746D01*
X71704035Y-61694932D01*
X71548935Y-61762770D01*
X71414704Y-61860991D01*
X71384149Y-61891779D01*
X71331921Y-61943792D01*
X71293201Y-61962943D01*
X71250102Y-61956309D01*
X71234877Y-61950819D01*
X71121786Y-61923008D01*
X70977351Y-61909033D01*
X70819023Y-61908601D01*
X70664253Y-61921422D01*
X70530492Y-61947203D01*
X70480540Y-61963443D01*
X70434531Y-61957948D01*
X70395362Y-61914939D01*
X70326278Y-61841785D01*
X70221996Y-61770860D01*
X70097523Y-61712144D01*
X70081590Y-61706266D01*
X70063083Y-61697505D01*
X70064318Y-61690431D01*
X70089341Y-61684883D01*
X70142194Y-61680700D01*
X70226925Y-61677721D01*
X70347576Y-61675785D01*
X70508192Y-61674731D01*
X70712819Y-61674396D01*
X70878700Y-61674498D01*
G37*
X70878700Y-61674498D02*
X71082201Y-61675268D01*
X71265798Y-61676986D01*
X71424280Y-61679522D01*
X71552434Y-61682746D01*
X71645049Y-61686531D01*
X71696915Y-61690746D01*
X71704035Y-61694932D01*
X71548935Y-61762770D01*
X71414704Y-61860991D01*
X71384149Y-61891779D01*
X71331921Y-61943792D01*
X71293201Y-61962943D01*
X71250102Y-61956309D01*
X71234877Y-61950819D01*
X71121786Y-61923008D01*
X70977351Y-61909033D01*
X70819023Y-61908601D01*
X70664253Y-61921422D01*
X70530492Y-61947203D01*
X70480540Y-61963443D01*
X70434531Y-61957948D01*
X70395362Y-61914939D01*
X70326278Y-61841785D01*
X70221996Y-61770860D01*
X70097523Y-61712144D01*
X70081590Y-61706266D01*
X70063083Y-61697505D01*
X70064318Y-61690431D01*
X70089341Y-61684883D01*
X70142194Y-61680700D01*
X70226925Y-61677721D01*
X70347576Y-61675785D01*
X70508192Y-61674731D01*
X70712819Y-61674396D01*
X70878700Y-61674498D01*
D14*
%TO.C,ANT1*%
X81314000Y-74926000D02*
X81814000Y-74676000D01*
X81314000Y-74426000D02*
X81314000Y-74926000D01*
X81814000Y-74676000D02*
X81314000Y-74426000D01*
X86074000Y-76626000D02*
X86074000Y-75516000D01*
X86074000Y-73836000D02*
X86074000Y-72726000D01*
%TO.C,C1*%
X75234748Y-55732000D02*
X76657252Y-55732000D01*
X75234748Y-57552000D02*
X76657252Y-57552000D01*
%TO.C,C2*%
X82854748Y-69236000D02*
X84277252Y-69236000D01*
X82854748Y-67416000D02*
X84277252Y-67416000D01*
%TO.C,D1*%
X73838000Y-60317000D02*
X77898000Y-60317000D01*
X77898000Y-60317000D02*
X77898000Y-58047000D01*
X77898000Y-58047000D02*
X73838000Y-58047000D01*
%TO.C,J1*%
X57090000Y-46990000D02*
X59750000Y-46990000D01*
X57090000Y-46990000D02*
X57090000Y-64830000D01*
X57090000Y-64830000D02*
X59750000Y-64830000D01*
X59750000Y-46990000D02*
X59750000Y-64830000D01*
X59750000Y-44390000D02*
X59750000Y-45720000D01*
X58420000Y-44390000D02*
X59750000Y-44390000D01*
%TO.C,J2*%
X83820000Y-44390000D02*
X85150000Y-44390000D01*
X85150000Y-44390000D02*
X85150000Y-45720000D01*
X85150000Y-46990000D02*
X85150000Y-64830000D01*
X82490000Y-64830000D02*
X85150000Y-64830000D01*
X82490000Y-46990000D02*
X82490000Y-64830000D01*
X82490000Y-46990000D02*
X85150000Y-46990000D01*
%TO.C,UPDI*%
X81580000Y-47050000D02*
X81580000Y-41850000D01*
X76440000Y-47050000D02*
X81580000Y-47050000D01*
X73840000Y-41850000D02*
X81580000Y-41850000D01*
X76440000Y-47050000D02*
X76440000Y-44450000D01*
X76440000Y-44450000D02*
X73840000Y-44450000D01*
X73840000Y-44450000D02*
X73840000Y-41850000D01*
X75170000Y-47050000D02*
X73840000Y-47050000D01*
X73840000Y-47050000D02*
X73840000Y-45720000D01*
%TO.C,R1*%
X70831064Y-58272000D02*
X69376936Y-58272000D01*
X70831064Y-60092000D02*
X69376936Y-60092000D01*
%TO.C,R2*%
X59584000Y-70900936D02*
X59584000Y-72355064D01*
X57764000Y-70900936D02*
X57764000Y-72355064D01*
D15*
%TO.C,RFM95*%
X62484000Y-77230000D02*
X62484000Y-77030000D01*
X78484000Y-77230000D02*
X62484000Y-77230000D01*
X78484000Y-77030000D02*
X78484000Y-77230000D01*
X78484000Y-75030000D02*
X78484000Y-75430000D01*
X78484000Y-73030000D02*
X78484000Y-73430000D01*
X78484000Y-71030000D02*
X78484000Y-71430000D01*
X78484000Y-69030000D02*
X78484000Y-69430000D01*
X78484000Y-67030000D02*
X78484000Y-67430000D01*
X78484000Y-65030000D02*
X78484000Y-65430000D01*
X78484000Y-63030000D02*
X78484000Y-63430000D01*
X78484000Y-61230000D02*
X78484000Y-61430000D01*
X62484000Y-75030000D02*
X62484000Y-75430000D01*
X62484000Y-61430000D02*
X62484000Y-61230000D01*
X61484000Y-61430000D02*
X62484000Y-61430000D01*
X62484000Y-63430000D02*
X62484000Y-63030000D01*
X62484000Y-65430000D02*
X62484000Y-65030000D01*
X62484000Y-67030000D02*
X62484000Y-67430000D01*
X62484000Y-69030000D02*
X62484000Y-69430000D01*
X62484000Y-71030000D02*
X62484000Y-71430000D01*
X62484000Y-73030000D02*
X62484000Y-73430000D01*
X62484000Y-61230000D02*
X78484000Y-61230000D01*
D14*
%TO.C,ATTiny 3216*%
X66802000Y-44163000D02*
X62942000Y-44163000D01*
X62942000Y-44163000D02*
X62942000Y-44398000D01*
X66802000Y-44163000D02*
X70662000Y-44163000D01*
X70662000Y-44163000D02*
X70662000Y-44398000D01*
X66802000Y-57183000D02*
X62942000Y-57183000D01*
X62942000Y-57183000D02*
X62942000Y-56948000D01*
X66802000Y-57183000D02*
X70662000Y-57183000D01*
X70662000Y-57183000D02*
X70662000Y-56948000D01*
X70662000Y-56948000D02*
X72477000Y-56948000D01*
%TO.C,ANT1*%
D10*
X80430666Y-76295047D02*
X80430666Y-75818857D01*
X80716380Y-76390285D02*
X79716380Y-76056952D01*
X80716380Y-75723619D01*
X80716380Y-75390285D02*
X79716380Y-75390285D01*
X80716380Y-74818857D01*
X79716380Y-74818857D01*
X79716380Y-74485523D02*
X79716380Y-73914095D01*
X80716380Y-74199809D02*
X79716380Y-74199809D01*
X80716380Y-73056952D02*
X80716380Y-73628380D01*
X80716380Y-73342666D02*
X79716380Y-73342666D01*
X79859238Y-73437904D01*
X79954476Y-73533142D01*
X80002095Y-73628380D01*
%TO.C,C1*%
X76303142Y-56808666D02*
X76350761Y-56856285D01*
X76398380Y-56999142D01*
X76398380Y-57094380D01*
X76350761Y-57237238D01*
X76255523Y-57332476D01*
X76160285Y-57380095D01*
X75969809Y-57427714D01*
X75826952Y-57427714D01*
X75636476Y-57380095D01*
X75541238Y-57332476D01*
X75446000Y-57237238D01*
X75398380Y-57094380D01*
X75398380Y-56999142D01*
X75446000Y-56856285D01*
X75493619Y-56808666D01*
X76398380Y-55856285D02*
X76398380Y-56427714D01*
X76398380Y-56142000D02*
X75398380Y-56142000D01*
X75541238Y-56237238D01*
X75636476Y-56332476D01*
X75684095Y-56427714D01*
%TO.C,C2*%
X83923142Y-68492666D02*
X83970761Y-68540285D01*
X84018380Y-68683142D01*
X84018380Y-68778380D01*
X83970761Y-68921238D01*
X83875523Y-69016476D01*
X83780285Y-69064095D01*
X83589809Y-69111714D01*
X83446952Y-69111714D01*
X83256476Y-69064095D01*
X83161238Y-69016476D01*
X83066000Y-68921238D01*
X83018380Y-68778380D01*
X83018380Y-68683142D01*
X83066000Y-68540285D01*
X83113619Y-68492666D01*
X83113619Y-68111714D02*
X83066000Y-68064095D01*
X83018380Y-67968857D01*
X83018380Y-67730761D01*
X83066000Y-67635523D01*
X83113619Y-67587904D01*
X83208857Y-67540285D01*
X83304095Y-67540285D01*
X83446952Y-67587904D01*
X84018380Y-68159333D01*
X84018380Y-67540285D01*
%TO.C,D1*%
X75890380Y-59793095D02*
X74890380Y-59793095D01*
X74890380Y-59555000D01*
X74938000Y-59412142D01*
X75033238Y-59316904D01*
X75128476Y-59269285D01*
X75318952Y-59221666D01*
X75461809Y-59221666D01*
X75652285Y-59269285D01*
X75747523Y-59316904D01*
X75842761Y-59412142D01*
X75890380Y-59555000D01*
X75890380Y-59793095D01*
X75890380Y-58269285D02*
X75890380Y-58840714D01*
X75890380Y-58555000D02*
X74890380Y-58555000D01*
X75033238Y-58650238D01*
X75128476Y-58745476D01*
X75176095Y-58840714D01*
%TO.C,J1*%
X58086666Y-42759380D02*
X58086666Y-43473666D01*
X58039047Y-43616523D01*
X57943809Y-43711761D01*
X57800952Y-43759380D01*
X57705714Y-43759380D01*
X59086666Y-43759380D02*
X58515238Y-43759380D01*
X58800952Y-43759380D02*
X58800952Y-42759380D01*
X58705714Y-42902238D01*
X58610476Y-42997476D01*
X58515238Y-43045095D01*
%TO.C,J2*%
X85264666Y-42886380D02*
X85264666Y-43600666D01*
X85217047Y-43743523D01*
X85121809Y-43838761D01*
X84978952Y-43886380D01*
X84883714Y-43886380D01*
X85693238Y-42981619D02*
X85740857Y-42934000D01*
X85836095Y-42886380D01*
X86074190Y-42886380D01*
X86169428Y-42934000D01*
X86217047Y-42981619D01*
X86264666Y-43076857D01*
X86264666Y-43172095D01*
X86217047Y-43314952D01*
X85645619Y-43886380D01*
X86264666Y-43886380D01*
%TO.C,UPDI*%
X76186190Y-47712380D02*
X76186190Y-48521904D01*
X76233809Y-48617142D01*
X76281428Y-48664761D01*
X76376666Y-48712380D01*
X76567142Y-48712380D01*
X76662380Y-48664761D01*
X76710000Y-48617142D01*
X76757619Y-48521904D01*
X76757619Y-47712380D01*
X77233809Y-48712380D02*
X77233809Y-47712380D01*
X77614761Y-47712380D01*
X77710000Y-47760000D01*
X77757619Y-47807619D01*
X77805238Y-47902857D01*
X77805238Y-48045714D01*
X77757619Y-48140952D01*
X77710000Y-48188571D01*
X77614761Y-48236190D01*
X77233809Y-48236190D01*
X78233809Y-48712380D02*
X78233809Y-47712380D01*
X78471904Y-47712380D01*
X78614761Y-47760000D01*
X78710000Y-47855238D01*
X78757619Y-47950476D01*
X78805238Y-48140952D01*
X78805238Y-48283809D01*
X78757619Y-48474285D01*
X78710000Y-48569523D01*
X78614761Y-48664761D01*
X78471904Y-48712380D01*
X78233809Y-48712380D01*
X79233809Y-48712380D02*
X79233809Y-47712380D01*
%TO.C,R1*%
X70556380Y-59348666D02*
X70080190Y-59682000D01*
X70556380Y-59920095D02*
X69556380Y-59920095D01*
X69556380Y-59539142D01*
X69604000Y-59443904D01*
X69651619Y-59396285D01*
X69746857Y-59348666D01*
X69889714Y-59348666D01*
X69984952Y-59396285D01*
X70032571Y-59443904D01*
X70080190Y-59539142D01*
X70080190Y-59920095D01*
X70556380Y-58396285D02*
X70556380Y-58967714D01*
X70556380Y-58682000D02*
X69556380Y-58682000D01*
X69699238Y-58777238D01*
X69794476Y-58872476D01*
X69842095Y-58967714D01*
%TO.C,R2*%
X58507333Y-72080380D02*
X58174000Y-71604190D01*
X57935904Y-72080380D02*
X57935904Y-71080380D01*
X58316857Y-71080380D01*
X58412095Y-71128000D01*
X58459714Y-71175619D01*
X58507333Y-71270857D01*
X58507333Y-71413714D01*
X58459714Y-71508952D01*
X58412095Y-71556571D01*
X58316857Y-71604190D01*
X57935904Y-71604190D01*
X58888285Y-71175619D02*
X58935904Y-71128000D01*
X59031142Y-71080380D01*
X59269238Y-71080380D01*
X59364476Y-71128000D01*
X59412095Y-71175619D01*
X59459714Y-71270857D01*
X59459714Y-71366095D01*
X59412095Y-71508952D01*
X58840666Y-72080380D01*
X59459714Y-72080380D01*
%TO.C,RFM95*%
X69096142Y-69540380D02*
X68762809Y-69064190D01*
X68524714Y-69540380D02*
X68524714Y-68540380D01*
X68905666Y-68540380D01*
X69000904Y-68588000D01*
X69048523Y-68635619D01*
X69096142Y-68730857D01*
X69096142Y-68873714D01*
X69048523Y-68968952D01*
X69000904Y-69016571D01*
X68905666Y-69064190D01*
X68524714Y-69064190D01*
X69858047Y-69016571D02*
X69524714Y-69016571D01*
X69524714Y-69540380D02*
X69524714Y-68540380D01*
X70000904Y-68540380D01*
X70381857Y-69540380D02*
X70381857Y-68540380D01*
X70715190Y-69254666D01*
X71048523Y-68540380D01*
X71048523Y-69540380D01*
X71572333Y-69540380D02*
X71762809Y-69540380D01*
X71858047Y-69492761D01*
X71905666Y-69445142D01*
X72000904Y-69302285D01*
X72048523Y-69111809D01*
X72048523Y-68730857D01*
X72000904Y-68635619D01*
X71953285Y-68588000D01*
X71858047Y-68540380D01*
X71667571Y-68540380D01*
X71572333Y-68588000D01*
X71524714Y-68635619D01*
X71477095Y-68730857D01*
X71477095Y-68968952D01*
X71524714Y-69064190D01*
X71572333Y-69111809D01*
X71667571Y-69159428D01*
X71858047Y-69159428D01*
X71953285Y-69111809D01*
X72000904Y-69064190D01*
X72048523Y-68968952D01*
X72953285Y-68540380D02*
X72477095Y-68540380D01*
X72429476Y-69016571D01*
X72477095Y-68968952D01*
X72572333Y-68921333D01*
X72810428Y-68921333D01*
X72905666Y-68968952D01*
X72953285Y-69016571D01*
X73000904Y-69111809D01*
X73000904Y-69349904D01*
X72953285Y-69445142D01*
X72905666Y-69492761D01*
X72810428Y-69540380D01*
X72572333Y-69540380D01*
X72477095Y-69492761D01*
X72429476Y-69445142D01*
%TO.C,ATTiny 3216*%
X67222666Y-55157142D02*
X67222666Y-54680952D01*
X67508380Y-55252380D02*
X66508380Y-54919047D01*
X67508380Y-54585714D01*
X66508380Y-54395238D02*
X66508380Y-53823809D01*
X67508380Y-54109523D02*
X66508380Y-54109523D01*
X66508380Y-53633333D02*
X66508380Y-53061904D01*
X67508380Y-53347619D02*
X66508380Y-53347619D01*
X67508380Y-52728571D02*
X66841714Y-52728571D01*
X66508380Y-52728571D02*
X66556000Y-52776190D01*
X66603619Y-52728571D01*
X66556000Y-52680952D01*
X66508380Y-52728571D01*
X66603619Y-52728571D01*
X66841714Y-52252380D02*
X67508380Y-52252380D01*
X66936952Y-52252380D02*
X66889333Y-52204761D01*
X66841714Y-52109523D01*
X66841714Y-51966666D01*
X66889333Y-51871428D01*
X66984571Y-51823809D01*
X67508380Y-51823809D01*
X66841714Y-51442857D02*
X67508380Y-51204761D01*
X66841714Y-50966666D02*
X67508380Y-51204761D01*
X67746476Y-51300000D01*
X67794095Y-51347619D01*
X67841714Y-51442857D01*
X66508380Y-49919047D02*
X66508380Y-49300000D01*
X66889333Y-49633333D01*
X66889333Y-49490476D01*
X66936952Y-49395238D01*
X66984571Y-49347619D01*
X67079809Y-49300000D01*
X67317904Y-49300000D01*
X67413142Y-49347619D01*
X67460761Y-49395238D01*
X67508380Y-49490476D01*
X67508380Y-49776190D01*
X67460761Y-49871428D01*
X67413142Y-49919047D01*
X66603619Y-48919047D02*
X66556000Y-48871428D01*
X66508380Y-48776190D01*
X66508380Y-48538095D01*
X66556000Y-48442857D01*
X66603619Y-48395238D01*
X66698857Y-48347619D01*
X66794095Y-48347619D01*
X66936952Y-48395238D01*
X67508380Y-48966666D01*
X67508380Y-48347619D01*
X67508380Y-47395238D02*
X67508380Y-47966666D01*
X67508380Y-47680952D02*
X66508380Y-47680952D01*
X66651238Y-47776190D01*
X66746476Y-47871428D01*
X66794095Y-47966666D01*
X66508380Y-46538095D02*
X66508380Y-46728571D01*
X66556000Y-46823809D01*
X66603619Y-46871428D01*
X66746476Y-46966666D01*
X66936952Y-47014285D01*
X67317904Y-47014285D01*
X67413142Y-46966666D01*
X67460761Y-46919047D01*
X67508380Y-46823809D01*
X67508380Y-46633333D01*
X67460761Y-46538095D01*
X67413142Y-46490476D01*
X67317904Y-46442857D01*
X67079809Y-46442857D01*
X66984571Y-46490476D01*
X66936952Y-46538095D01*
X66889333Y-46633333D01*
X66889333Y-46823809D01*
X66936952Y-46919047D01*
X66984571Y-46966666D01*
X67079809Y-47014285D01*
%TD*%
M02*
